<svg xmlns="http://www.w3.org/2000/svg" viewBox="0 0 3785 2558"><path fill="#CC2936" d="M1777.5 1136c3.3 3.3 6.2 6 6.4 6 .3 0-2.1-2.7-5.4-6s-6.2-6-6.4-6c-.3 0 2.1 2.7 5.4 6"/><g fill="#CC2936" stroke-width="0"><path d="M1890.3 980.2c-1.1 1.5-8.3 18.3-8.3 19.4 0 .4-1.2 3.2-2.6 6.3-1.5 3.1-4.2 9.2-6 13.6s-4.8 11.6-6.7 16c-4.8 11.2-15.3 36.4-16.7 40.2-1.2 3.3-2.8 4.1-4.6 2.4-1.5-1.5-59.5-30.3-60-29.9-.2.3.7 4.2 2 8.9 1.4 4.6 7.2 26.2 13 47.9 10.5 38.9 11.7 43.3 17 61.9 1.5 5.1 2.5 9.8 2.4 10.3-.2.6-5.7-4.4-12.2-11.1-6.6-6.6-12.2-11.8-12.6-11.6-.7.4-11-9.2-11-10.2 0-.3.9.2 2 1.2s2 1.3 2 .7c0-1.3-5.8-5.8-7-5.5-.4.1-2.5-1.7-4.6-4l-3.9-4.2 4.5 4 4.5 4-4.4-4.7c-2.4-2.6-4.9-4.4-5.4-4.1-.6.4-.7.1-.3-.6.5-.7 0-2.1-1-3.2-2.4-2.7-4.1-2.4-1.8.3 1 1.3-.8-.2-4.2-3.2-3.3-3-6.6-6.4-7.3-7.5s1 .2 3.8 3c2.8 2.7 5.1 4.5 5.1 3.9 0-1.5-9.8-10.9-10.6-10.1-.4.3-2.8 9.2-5.5 19.8-2.6 10.5-4.9 19.3-5.1 19.5-.5.4-8.9-1.6-34.7-8.3-11.8-3.1-23.2-5.7-25.2-5.9l-3.8-.2 2.5 5.6c15.5 35.1 23.8 53.2 24.1 52.8.4-.4-3.1-8.9-8.8-21.1-8.3-17.9-15.9-35.8-15.5-36.3 1-1 9.5 2 9 3.2-.7 1.8 8.5 9.7 21.2 18.2 7.9 5.3 35 26.6 49 38.4 29.1 24.6 37 31 52.6 42.8 6.8 5.1 15.2 11.7 18.8 14.7s14.4 11.6 24 19.2c9.6 7.5 21 16.5 25.2 20s7.9 6 8.1 5.6c.8-1.4.4-318.8-.4-319.3-.5-.3-.5-1.1-.1-1.7.7-1.1 2.7 2.9 9.9 19.7 2.6 6.3 6.5 14 6.1 12.4-.8-3.2-14.3-34.4-14.9-34.4-.3 0-1.1.6-1.6 1.2m-3.2 12.1c-1 .9-1.1.8-.5-.6.3-1 .9-1.5 1.2-1.2s0 1.1-.7 1.8m-2 4.4c-1.2 2-1.4 1.4-.5-1.2.4-.9.9-1.4 1.1-1.1.3.2 0 1.3-.6 2.3m-6.5 16c-1.4 2.6-2.5 4.5-2.6 4.2 0-1.3 4.2-10.1 4.7-9.6.2.3-.7 2.7-2.1 5.4m-6.5 16c-6.6 15.3-8.4 19.3-8.8 19-.1-.2 2.5-6.9 5.9-15 3.4-8 6.4-14.4 6.6-14.2.3.2-1.4 4.8-3.7 10.2m-84.3 22.8c-.3.3-.9-.2-1.2-1.2-.6-1.4-.5-1.5.5-.6.7.7 1 1.5.7 1.8m73.3 2.2c-1.2 2-1.4 1.4-.5-1.2.4-.9.9-1.4 1.1-1.1.3.2 0 1.3-.6 2.3m-50.1 8c9.3 4.8 16.7 8.9 16.6 9.1-.4.3-27.1-12.9-32-15.9-6.9-4.2-.6-1.4 15.4 6.8m-20.2.3c0 .9-.3.7-.8-.5-.5-1.1-.8-2.9-.8-4 0-1.6.2-1.5.8.5.4 1.4.8 3.2.8 4m65.6 3.4c-2 4.8-3.8 8.5-4.1 8.3-.2-.2 1.3-4.3 3.3-9.1s3.8-8.5 4.1-8.2c.2.2-1.2 4.3-3.3 9m-63.5 3.6c0 .9-.4.8-.9-.5-.5-1.1-.9-2.7-.9-3.5 0-.9.4-.8.9.5.5 1.1.9 2.7.9 3.5m.8 4.2c-.3.8-.6.5-.6-.6-.1-1.1.2-1.7.5-1.3.3.3.4 1.2.1 1.9m41.3.8c2.2 1.1 4 2.3 4 2.5 0 .7-7.3-2.4-8.4-3.6-1.6-1.5.2-1.1 4.4 1.1m-40.3 3.2c-.3.8-.6.5-.6-.6-.1-1.1.2-1.7.5-1.3.3.3.4 1.2.1 1.9m56.4 2.1c-1.3 1.3-1.5-.1-.4-3 .7-1.7.8-1.7 1.1.1.2 1-.1 2.3-.7 2.9m-55.4 1.9c-.3.8-.6.5-.6-.6-.1-1.1.2-1.7.5-1.3.3.3.4 1.2.1 1.9m2.2 6.8c0 .9-.4.8-.9-.5-.5-1.1-.9-2.7-.9-3.5 0-.9.4-.8.9.5.5 1.1.9 2.7.9 3.5m.8 4.2c-.3.8-.6.5-.6-.6-.1-1.1.2-1.7.5-1.3.3.3.4 1.2.1 1.9m2.1 7.3c0 1.6-.2 1.5-.8-.5-1.1-3.4-1.1-6 0-3.5.5 1.1.8 2.9.8 4m5.1 18.5c0 .9-.4.8-.9-.5-.5-1.1-.9-2.7-.9-3.5 0-.9.4-.8.9.5.5 1.1.9 2.7.9 3.5m-50.9 5.5c-1.7 5.9-2.4 5.2-.9-.9.6-2.6 1.4-4.4 1.7-4.2.2.3-.1 2.6-.8 5.1m52.9 1.5c0 .9-.4.8-.9-.5-.5-1.1-.9-2.7-.9-3.5 0-.9.4-.8.9.5.5 1.1.9 2.7.9 3.5m-56.2 10.2c-.3.8-.6.5-.6-.6-.1-1.1.2-1.7.5-1.3.3.3.4 1.2.1 1.9m-1.2 5.8c-.4 1.7-.9 3-1.1 2.7-.2-.2-.1-1.8.2-3.6.4-1.7.9-3 1.1-2.7.3.2.2 1.9-.2 3.6m61.2-.8c-.3.8-.6.5-.6-.6-.1-1.1.2-1.7.5-1.3.3.3.4 1.2.1 1.9m-115 3.4c-.3.3-1.2.4-1.9.1-.8-.3-.5-.6.6-.6 1.1-.1 1.7.2 1.3.5m117.2 3.4c0 1-.3.8-.9-.5-1.2-2.7-1.2-4.3 0-2.5.5.8.9 2.2.9 3m-106.4-.9 2 .8h-2c-1.1 0-3.3-.6-5-1.4l-3-1.4 3 .6c1.7.3 3.9 1 5 1.4m41.2 2.1c-.3.7-.5.2-.5-1.2s.2-1.9.5-1.3c.2.7.2 1.9 0 2.5m-36-.6c-.3.3-1.2.4-1.9.1-.8-.3-.5-.6.6-.6 1.1-.1 1.7.2 1.3.5m7.6 2.1c-.7.2-1.9.2-2.5 0-.7-.3-.2-.5 1.2-.5s1.9.2 1.3.5m94.4 1.5c-.3.8-.6.5-.6-.6-.1-1.1.2-1.7.5-1.3.3.3.4 1.2.1 1.9m-89.2-.2c1.3.6 1.5.9.5.9-.8 0-2.2-.4-3-.9-1.8-1.2-.2-1.2 2.5 0m17.5 4.2c1 .6.3.7-2 .2-5.4-1-8.3-2.5-3.5-1.8 2.2.4 4.7 1.1 5.5 1.6m72.7 0c-.3.8-.6.5-.6-.6-.1-1.1.2-1.7.5-1.3.3.3.4 1.2.1 1.9m6.2 19.3c0 .5-.4.3-.9-.5s-.9-2.2-.9-3c0-1.6 1.7 1.6 1.8 3.5m85.1-159.1c0 1.6 12.1 29.8 12.6 29.3.4-.3-11.4-28.8-12.2-29.6-.2-.2-.4-.1-.4.3m86 34.1c-5.5 2.9-4.5 3.3 1.1.5l4-2.1-.7 2.8c-.4 2.2-.3 2.5.5 1.3 1.2-1.7 1.5-5 .4-5-.5.1-2.8 1.2-5.3 2.5m-12.5 6.1c-3.3 1.8-5.6 3.4-5.2 3.4 1.1 0 12.7-5.9 12.7-6.5 0-.9-1.4-.3-7.5 3.1m-57.5-1.1c0 .8.4 1.5 1 1.5.5 0 .7-.7.4-1.5-.4-.8-.8-1.5-1-1.5s-.4.7-.4 1.5m2 3.7c0 1.1 3 7.8 3.5 7.8.3 0-.2-1.7-1-3.7-1.5-3.6-2.5-5.2-2.5-4.1m68 8c-1.2 4.6-3 11.2-4.1 14.7s-1.7 6.6-1.5 6.8 1.3-2.7 2.4-6.4c4.1-13.6 6.3-22.5 5.9-22.9-.3-.3-1.4 3.2-2.7 7.8m-22.6-5.7c-1 .8-1.4 1.4-.9 1.4.6 0 1.9-.6 2.9-1.4 1.1-.8 1.5-1.5 1-1.5-.6 0-1.9.7-3 1.5m-12.1 6.2c-5 2.6-9 4.9-8.8 5.1.4.4 18.5-8.8 18.5-9.4s.1-.7-9.7 4.3m-14.3 7.3c-1.9 1.1-3.1 1.9-2.7 2 1.1 0 6.7-2.9 6.7-3.5 0-.7-.1-.7-4 1.5m-13-.5c0 1.2 3.1 6.5 3.8 6.5.4 0 1.8-1 3.2-2.1 2.4-1.9 2.4-2 .2-.9-2.8 1.4-5.2.7-5.2-1.4 0-.8-.4-1.8-1-2.1-.5-.3-1-.3-1 0m53.1 25.2c-3.2 11.2-3.4 12.1-2.3 10.3 1.2-1.9 5.4-17.1 4.9-17.6-.2-.2-1.4 3.1-2.6 7.3m-4.2 14.9c-.5 1.5-.7 2.9-.5 3.2.5.4 1-.6 2.2-4.6.7-2.3-.7-1.2-1.7 1.4m36.4 9.7c-6 5.9-10.5 10.7-10.1 10.7s4.9-4.2 10-9.4c5.1-5.1 10-9.5 10.8-9.8s1.2-.9.8-1.3c-.5-.5-5.6 4-11.5 9.8m-39.7 2.5c-.9 3.2-1.6 6.5-1.5 7.3 0 .8.9-1.7 2-5.5s1.8-7 1.6-7.3c-.2-.2-1.2 2.3-2.1 5.5m53-2.8c.4 1.9 1.1 4.4 1.5 5.5q.9 2.1.3-1.5c-.4-1.9-1.1-4.4-1.5-5.5q-.9-2.1-.3 1.5m3 11c.4 1.9 1.1 4.4 1.5 5.5q.9 2.1.3-1.5c-.4-1.9-1.1-4.4-1.5-5.5q-.9-2.1-.3 1.5m-60 6.1c-.9 3-3.1 10.8-5 17.4-1.8 6.6-3.7 12.9-4.1 14-.6 1.4-.5 1.7.3 1 1.1-1.1 11.3-36.7 10.7-37.4-.2-.2-1.1 2.1-1.9 5m10.4 17.6c-10.7 10.8-18.6 19-17.5 18.2 1-.8 9.7-9.3 19.1-18.9 9.5-9.6 17.6-17.8 18-18.3.4-.4.5-.7.3-.7s-9.2 8.9-19.9 19.7m110.1-17.6c-1.8.6-3.1 1.2-2.8 1.5s2.7-.1 5.3-1c5.3-1.6 3-2-2.5-.5m6.4 3.1c-.7 1.8-4.8 10.9-8.9 20.2-4.2 9.3-7.5 17.3-7.4 17.7.2.5 3.9-7.3 8.3-17.2 10.9-24.8 10.6-23.9 10-23.9-.4 0-1.2 1.5-2 3.2m-25 1.8c-5.5 1.6-9.2 2.9-8.2 2.9 1.8.1 19.8-4.7 20.6-5.5 1-.9-3-.1-12.4 2.6m-38.9.5c.4 1.6 1.1 3.7 1.5 4.5.6 1 .7.4.3-1.5-.4-1.7-1.1-3.7-1.5-4.5-.6-1-.7-.4-.3 1.5"/><path d="M1791 1150.5c1.8 1.9 3.6 3.2 3.9 3 .6-.7-5-6.5-6.3-6.5-.5 0 .5 1.6 2.4 3.5m263.1-.4c-1.8.6-3.1 1.2-2.9 1.4.2.3 2.4-.1 4.9-.9 4.9-1.6 3.3-2-2-.5m24.9 39.5c-1.7 3.6-3 7.1-3 7.7.1.7.7-.2 1.4-1.8 4.1-9.1 5.5-12.5 5-12.5-.3 0-1.8 3-3.4 6.6m-369.5 12.9c.9 2.2 2.1 4.4 2.7 5 .5.5.2-.8-.7-3s-2.1-4.5-2.6-5c-.6-.6-.3.8.6 3m363 2.2c-1.2 2.8-1.3 3.9-.4 4.7s1 .8.6 0c-.4-.7 0-2.8.8-4.8s1.3-3.6 1-3.6c-.2 0-1.2 1.7-2 3.7m-370.2 10.1c-10.8 6.3-11.8 7.5-1.8 2.2 6.9-3.6 12-7.1 10.5-7-.3 0-4.2 2.2-8.7 4.8m376.7-.9c1.4 1.1 3 2.1 3.5 2.1 1.1 0-.7-1.4-4-3.1-1.3-.7-1.2-.3.5 1m5.4 3c.7 1.1 16.7 10.3 17.2 9.9.2-.2-3.7-2.7-8.7-5.6-4.9-2.8-8.7-4.8-8.5-4.3"/><path d="M1687.3 1223.6c-4.8 2.8-5.9 4.3-1.5 2 3-1.6 7-4.5 6.2-4.6-.3 0-2.4 1.2-4.7 2.6"/><path d="M1679.4 1228.4c-1 .8-1.7 1.6-1.4 1.9.3.2 1.4-.4 2.4-1.4 2.3-2.2 1.8-2.5-1-.5m424.5 0c.8.9 1.2 1.8 1 2-.2.1-3.4 1.9-7.1 4-3.8 2-6.8 3.9-6.8 4.2 0 .7 11.3-5.2 13.8-7.2l2.3-1.9-2.3-1.4c-2.1-1.3-2.2-1.3-.9.3m-423.9 3c0 .2.7.7 1.6 1 .8.3 1.2.2.9-.4-.6-1-2.5-1.4-2.5-.6m4 2c0 .4 13.7 8.1 40.9 22.9 4.1 2.2 7.1 3.5 6.7 2.8-.4-.6-4.2-2.9-8.4-5-4.2-2.2-14.6-7.8-23.1-12.5-15.4-8.6-16.1-9-16.1-8.2m398.3 9.2c-3.4 1.9-6.5 3.9-6.9 4.5-.6 1 8.7-3.8 13.1-6.8 4-2.7-.2-1.2-6.2 2.3m-13.6 7.3c-4.6 3-4.5 3.5.3 1.1 5.3-2.6 5.8-3 3.9-2.9-.8 0-2.6.8-4.2 1.8"/><path d="M2056.8 1256.3c-8.3 4.7-8.4 5.5 0 1.3 6.5-3.3 8.5-4.7 6.5-4.6-.5.1-3.4 1.5-6.5 3.3m-322.3 5c1.1.7 17.5 9.6 36.4 19.8 21.5 11.5 34.7 19.1 35.2 20.4.8 1.8.9 1.8.6-.3-.1-1.8-2-3.3-8.2-6.6-16.5-8.7-30.2-16.1-37.5-20.1-16.4-9.3-32.7-17.3-26.5-13.2"/><path d="M2041 1264.7c-3.6 2-10.8 5.8-16 8.6-13 6.8-20 10.8-20 11.3s17.8-8.7 33.4-17.3c4.3-2.4 8.2-4.3 8.7-4.3.4 0 1.1-.5 1.4-1 1-1.6-.6-1-7.5 2.7m-48 25.4c-3 1.6-5.9 3.5-6.5 4.1-.8.8 11.8-5.6 13.4-6.9 1.8-1.4-2.4.3-6.9 2.8m-13 6.9c-3.3 2.5-1.9 2.5 2.2 0 1.8-1.1 2.6-2 1.8-2s-2.6.9-4 2m-4 4c0 .8 2.3 8.5 5 17s5 15.8 5 16.1-3.6-.7-8.1-2.2c-4.4-1.6-8.6-2.9-9.2-2.9-.9.1 17 7 18.1 7 .8 0-.4-4.3-5.3-19.5-3-9.4-5.4-16.3-5.5-15.5m-173 10.2c-4.9 15.9-6.8 23-6.1 22.2 1.1-1.2 9.3-28.5 8.8-29.1-.3-.2-1.5 2.9-2.7 6.9m78.2-4c-4.5 1.7-8.1 3.3-7.9 3.5s4.3-1 9.1-2.7l8.8-3.1 9.5 3.1c5.3 1.7 9.8 2.9 10 2.7.5-.5-18.1-6.7-19.9-6.6-.7 0-5 1.4-9.6 3.1m-13.2 4.8c-.8.5-1 1-.5 1 .6 0 1.7-.5 2.5-1s1.1-1 .5-1c-.5 0-1.7.5-2.5 1m44-.6c0 .2.9.6 2 .9s1.8.1 1.4-.4c-.5-.9-3.4-1.3-3.4-.5m-59.5 5.7c-6 2.1-15.2 5.2-20.3 7-5.1 1.7-9.1 3.3-8.9 3.5.4.4 34.4-10.8 40.7-13.4 6.1-2.6-1.5-.6-11.5 2.9m73.9-1c4.9 1.6 9.1 2.8 9.3 2.6.4-.5-15.7-5.7-17.2-5.6-.5 0 3 1.4 7.9 3m11.4 3.6c.7.3 1.6.2 1.9-.1.4-.3-.2-.6-1.3-.5-1.1 0-1.4.3-.6.6m3.3.7c.8.8 21 7.6 22.3 7.5.6 0-3.4-1.6-8.9-3.5-12.7-4.4-14.1-4.8-13.4-4m-131.6 11.2c-5.5 2-10.8 3.6-11.7 3.7-1.9.1-2.5 1.7-.7 1.7.6 0 3.1-.9 5.7-2 2.6-1 8-2.9 12-4.1 3.9-1.1 7.2-2.3 7.2-2.5 0-.9-2.8-.1-12.5 3.2"/></g><g fill="red" stroke-width="0"><path d="M1890.7 981.5c-.4.8-.3 1.5.1 1.5.8 0 1.3 317.9.5 319.3-.2.4-3.9-2.1-8.1-5.6s-15.6-12.5-25.2-20c-9.6-7.6-20.4-16.2-24-19.2s-12-9.6-18.8-14.7c-15.6-11.8-23.5-18.2-52.6-42.8-14-11.8-41.1-33.1-49-38.4-12.8-8.6-21.9-16.4-21.2-18.2.3-.8-1.3-1.7-4.5-2.5-2.7-.7-4.9-1.7-4.9-2.3 0-.5-.2-.7-.5-.4-.5.4 7.7 19.4 16.5 38.3 1.5 3.3 4.2 9.4 6 13.5 1.7 4.1 4.3 9.7 5.6 12.4 1.8 3.7 2.1 5.3 1.3 6.7-.9 1.8-8 6.9-9.5 6.9-.9 0-23.4 13.4-23.4 14 0 .3 1.4 1.1 3 1.9 1.7.7 9.9 5.1 18.3 9.8s18.6 10.3 22.7 12.5c4.1 2.1 11.1 5.8 15.5 8.1s13.9 7.4 21 11.3c14.9 8.2 27.5 15 39 21 4.4 2.3 8.1 4.7 8.3 5.3s-2 8.8-4.8 18.2-4.9 17.3-4.7 17.6c.3.2 1.6-.1 2.8-.8 1.3-.6 7.1-2.7 12.9-4.5s21-6.9 33.9-11.3 23.8-7.8 24.2-7.5c.4.2 1 0 1.3-.5.3-.4 4.7-2.3 9.7-4.1l9.1-3.3 11.6 3.8c6.5 2.1 12.1 4.2 12.6 4.7.6.4 1.7.8 2.5.8 2.4 0 21.5 6.3 21.9 7.2.2.5.7.6 1.1.4.4-.3 10.7 2.8 22.9 6.7 12.2 4 22.2 7 22.2 6.7s-2.3-7.5-5-16-5-16-5-16.7c0-1.4 6.1-6.3 7.9-6.3.7 0 2.6-.9 4.2-2.1 1.6-1.1 5.8-3.4 9.5-5 3.7-1.7 8.3-4.1 10.3-5.3 2-1.3 9-5.1 15.6-8.6 6.6-3.4 15.6-8.2 20-10.5s12.1-6.3 17-9c5-2.6 9.4-5.1 10-5.6.5-.5 1.6-.9 2.4-.9s2.2-.7 3.1-1.5c1.4-1.3 12.9-7.6 24.8-13.7 4.8-2.5 4.9-3.6.6-5.8-1.6-.8-6-3.3-9.7-5.5-3.8-2.2-7.6-4.5-8.6-5-3.5-2-12.1-7.7-12.1-8 0-1.1 3.2-7.5 4-8 .5-.3 1-1.5 1-2.6s1.5-5.2 3.3-9.2c1.9-4 7.3-16.2 12.2-27.2 4.8-11 9.2-20.6 9.8-21.3 1.2-1.5 1.1-1.5-4.9.2-2.7.8-5.6 1.4-6.4 1.4s-6 1.4-11.5 3.1c-5.5 1.6-11.6 3.2-13.5 3.5-1.9.2-5.7 1.2-8.4 2-2.6.9-5.2 1.3-5.7 1s-1.5-.2-2.1.3c-1.3.8-2.5 1.1-7 2-2.2.4-2.9 0-4.2-2.6-.9-1.6-1.7-4.3-1.9-5.9-.2-1.5-.6-3.2-.9-3.7-.9-1.6-5.9-20.5-6.1-23.3-.1-1.4-.8-2.7-1.5-3-.7-.2-6.5 5-13 11.5-6.4 6.5-19.8 20.2-29.8 30.3-10 10.2-19.1 19.3-20.4 20.4-2.3 1.8-2.3 1.8-1.5 0 .4-1.1.9-3 1-4.4.2-1.4 2.6-10.4 5.4-20s6-20.8 7.1-24.9 2.5-8 3.1-8.7.8-1.7.5-2.3c-.3-.5-.1-2.2.5-3.8.7-1.5 1.3-3.8 1.5-4.9.4-3.6 4.6-16.8 5.6-18.1.5-.7.7-1.6.4-2.2-.3-.5.3-3.8 1.3-7.3 1.1-3.4 2.8-9.7 3.9-13.8 1.2-4.1 2.6-8.9 3.3-10.5.6-1.7 1.3-4.2 1.4-5.7l.3-2.7-3.7 1.8c-35.4 17.6-56.8 28.4-57.5 29.2-.6.5-1.3.9-1.8.9-.9 0-3.9-5.6-3.6-6.7.1-.4-1.2-3.8-3-7.6-1.8-3.7-3.2-7.4-3.2-8.2s-.4-1.5-.9-1.5-1.1-1.4-1.5-3.1c-.3-1.7-2.3-6.7-4.5-11.2-2.1-4.5-5.4-11.8-7.2-16.2-5.3-13.1-8.5-20.6-15.4-36.5-4.4-10-4.1-9.5-4.8-7.5"/><path d="M1886.6 991.7c-.6 1.4-.5 1.5.5.6.7-.7 1-1.5.7-1.8s-.9.2-1.2 1.2m-2 3.8c-.9 2.6-.7 3.2.5 1.2.6-1 .9-2.1.6-2.3-.2-.3-.7.2-1.1 1.1m-6.5 16c-2.9 6.5-2.6 7.1.5 1.2 1.4-2.7 2.3-5.1 2.1-5.4-.3-.2-1.5 1.7-2.6 4.2m-8.9 21.2c-3.4 8.1-6 14.8-5.9 15 .4.3 2.2-3.7 8.8-19 2.3-5.4 4-10 3.7-10.2-.2-.2-3.2 6.2-6.6 14.2m-82.6 17.6c.3 1 .9 1.5 1.2 1.2s0-1.1-.7-1.8c-1-.9-1.1-.8-.5.6m74 2.2c-.9 2.6-.7 3.2.5 1.2.6-1 .9-2.1.6-2.3-.2-.3-.7.2-1.1 1.1m-65 2.4c4.9 3 31.6 16.2 32 15.9.4-.4-33.2-17.8-34.3-17.8-.4 0 .6.9 2.3 1.9m-6.4 2.6c0 1.1.3 2.9.8 4 1.1 2.5 1.1-.1 0-3.5-.6-2-.8-2.1-.8-.5m66.4 7.1c-2 4.8-3.5 8.9-3.3 9.1.3.2 2.1-3.5 4.1-8.3 2.1-4.7 3.5-8.8 3.3-9-.3-.3-2.1 3.4-4.1 8.2m-64.5.4c0 .8.4 2.4.9 3.5.5 1.3.9 1.4.9.5 0-.8-.4-2.4-.9-3.5-.5-1.3-.9-1.4-.9-.5m2 7.6c0 1.1.3 1.4.6.6.3-.7.2-1.6-.1-1.9-.3-.4-.6.2-.5 1.3m37.5.3c1.1 1.2 8.4 4.3 8.4 3.6 0-.5-7.6-4.5-8.7-4.5-.4 0-.3.4.3.9m-36.5 3.7c0 1.1.3 1.4.6.6.3-.7.2-1.6-.1-1.9-.3-.4-.6.2-.5 1.3m56.6-.3c-1.1 2.9-.9 4.3.4 3 .6-.6.9-1.9.7-2.9-.3-1.8-.4-1.8-1.1-.1m-55.6 4.3c0 1.1.3 1.4.6.6.3-.7.2-1.6-.1-1.9-.3-.4-.6.2-.5 1.3m1 3.4c0 .8.4 2.4.9 3.5.5 1.3.9 1.4.9.5 0-.8-.4-2.4-.9-3.5-.5-1.3-.9-1.4-.9-.5m2 7.6c0 1.1.3 1.4.6.6.3-.7.2-1.6-.1-1.9-.3-.4-.6.2-.5 1.3m1.1 3.4c0 .8.4 2.6.8 4 .6 2 .8 2.1.8.5 0-1.1-.3-2.9-.8-4-.5-1.2-.8-1.4-.8-.5m4.9 19c0 .8.4 2.4.9 3.5.5 1.3.9 1.4.9.5 0-.8-.4-2.4-.9-3.5-.5-1.3-.9-1.4-.9-.5m-46.9 3.7c.6 1 3.9 4.3 7.2 7.3l6.1 5.4-7-7.2c-7.1-7.4-8.4-8.5-6.3-5.5m-3.1 4.9c-1.5 6.1-.8 6.8.9.9.7-2.5 1-4.8.8-5.1-.3-.2-1.1 1.6-1.7 4.2m52-1.6c0 .8.4 2.4.9 3.5.5 1.3.9 1.4.9.5 0-.8-.4-2.4-.9-3.5-.5-1.3-.9-1.4-.9-.5m-55 13.6c0 1.1.3 1.4.6.6.3-.7.2-1.6-.1-1.9-.3-.4-.6.2-.5 1.3m25.4 2.4c2.1 2.2 4.1 4 4.4 4s-1.3-1.8-3.4-4-4.1-4-4.4-4 1.3 1.8 3.4 4m-26.9 3.1c-.3 1.8-.4 3.4-.2 3.6.2.3.7-1 1.1-2.7s.5-3.4.2-3.6c-.2-.3-.7 1-1.1 2.7m61.5-.5c0 1.1.3 1.4.6.6.3-.7.2-1.6-.1-1.9-.3-.4-.6.2-.5 1.3m-116.3 4.1c.7.3 1.6.2 1.9-.1.4-.3-.2-.6-1.3-.5-1.1 0-1.4.3-.6.6m117.3-.2c.1 1.9 1.8 5.1 1.8 3.5 0-.8-.4-2.2-.9-3s-.9-1.1-.9-.5m-109.6 2c1.7.8 3.9 1.4 5 1.4h2l-2-.8c-1.1-.4-3.3-1.1-5-1.4l-3-.6zm81.5-1.1c0 .5 6 6.5 9.1 9.1 1.3 1-.1-.6-3.1-3.8-5.2-5.5-6-6.2-6-5.3m-35.8 2.6c0 1.4.2 1.9.5 1.2.2-.6.2-1.8 0-2.5-.3-.6-.5-.1-.5 1.3m-37.4.7c.7.3 1.6.2 1.9-.1.4-.3-.2-.6-1.3-.5-1.1 0-1.4.3-.6.6m7 2c.6.2 1.8.2 2.5 0 .6-.3.1-.5-1.3-.5s-1.9.2-1.2.5m96.3.9c0 1.1.3 1.4.6.6.3-.7.2-1.6-.1-1.9-.3-.4-.6.2-.5 1.3m-91.1.4c.8.5 2.2.9 3 .9 1 0 .8-.3-.5-.9-2.7-1.2-4.3-1.2-2.5 0m12.5 2.9c3.1 1.3 9.3 2.4 7.5 1.3-.8-.5-3.3-1.2-5.5-1.6-2.6-.4-3.3-.3-2 .3m79.6.7c0 1.1.3 1.4.6.6.3-.7.2-1.6-.1-1.9-.3-.4-.6.2-.5 1.3m5 16.4c0 .8.4 2.2.9 3 1.2 1.8 1.2.2 0-2.5-.6-1.3-.9-1.5-.9-.5"/></g><path fill="#2563eb" d="M1785.1 1302.5c-.1 1.1-.4 3.1-.6 4.5l-.6 2.5 1.1-2.5c.6-1.3.9-3.3.7-4.5-.4-1.9-.4-1.9-.6 0m-51.1 23.6c-2.2 1.8-2.2 1.9-.3 1 1.2-.6 2.5-1.6 2.8-2.1.9-1.5.3-1.2-2.5 1.1m-23.3 15.3c-5.9 4.1-7.3 5.5-2.9 3 3.3-1.9 9.1-6.3 8.2-6.3-.3 0-2.7 1.5-5.3 3.3m60.9 4.3c-.6 1.4-.5 1.5.5.6.7-.7 1-1.5.7-1.8s-.9.2-1.2 1.2m-81.3 9.4c-2.4 1.7-4.3 3.2-4.3 3.5s2-.9 4.5-2.6 4.5-3.3 4.5-3.5c0-.7-.2-.6-4.7 2.6m78.8.5c0 1.1.3 1.4.6.6.3-.7.2-1.6-.1-1.9-.3-.4-.6.2-.5 1.3m-102.9 15.8c-4.6 3.3-5.3 4.3-1.4 2 1.9-1 3.8-2.5 4.4-3.2 1.5-1.7.8-1.4-3 1.2m455.4 8.1c-.3.9-.6 2.2-.5 2.8 0 .7.5.1 1-1.2s.8-2.6.5-2.8c-.2-.2-.6.3-1 1.2m-462.6 8.9c0 .2.8 1 1.8 1.7 1.5 1.3 1.6 1.2.3-.4s-2.1-2.1-2.1-1.3m4 2.9c0 .3 1.2 1.2 2.6 2.2 1.5.9 2.3 1.2 2 .6-.7-1.1-4.6-3.5-4.6-2.8m18 12c0 .3 1.2 1.2 2.6 2.2 1.5.9 2.3 1.2 2 .6-.7-1.1-4.6-3.5-4.6-2.8m261 3.7-171.5.5 171.2.3c113.3.1 171.4-.1 171.8-.8.3-.6.5-.9.3-.8-.2.2-77.5.5-171.8.8m-170.4 13.3c.3 1 .9 1.5 1.2 1.2s0-1.1-.7-1.8c-1-.9-1.1-.8-.5.6m1.5 3.7c0 .8.4 2.2.9 3 1.2 1.8 1.2.2 0-2.5-.6-1.3-.9-1.5-.9-.5m4.1 13.1c.6 1.6 1.2 2.8 1.4 2.6.5-.5-1.3-5.7-2-5.7-.3 0 0 1.4.6 3.1m-44.2 1.2c0 .2 1.9 1.7 4.3 3.2 2.3 1.6 3.7 2.2 3 1.4-1.2-1.5-7.3-5.3-7.3-4.6m48.4 11.2c.4 1.6 1.2 3.4 1.7 4 .5.5.4-.6-.2-2.5-1.5-4.5-2.4-5.4-1.5-1.5m2.7 7.5c0 .8.4 2.2.9 3 1.2 1.8 1.2.2 0-2.5-.6-1.3-.9-1.5-.9-.5"/><g fill="#2563eb" stroke-width="0"><path d="M1775.8 1298.6c-3.8 2-3.6 2.9.2.9 1.6-.8 4.2-1.5 5.7-1.4 2.2 0 1.7.4-2.2 1.5-2.7.8-5.7 1.5-6.5 1.6-2.3.1-7 3.7-6.7 5.1.1.7.7 1.6 1.2 2 .6.5.3.7-.6.4s-2.9.1-4.5.9l-2.9 1.4 3-2.6c1.7-1.4 2.1-2.1 1-1.5s-3.1 2-4.5 3.2c-1.4 1.1-1.9 1.8-1.2 1.4.6-.3 1.2-.2 1.2.3 0 .6-.7 1.2-1.5 1.6-.8.3-1.5 1.6-1.5 3 0 2.9-1.8 4.4-2.6 2.2-.5-1.2-1.1-1.3-2.4-.6-2.7 1.5-3.4 1.2-1.9-.7 1.2-1.4 1-1.4-1.3.1-3.2 2.1-3.6 2.8-1 2 1.2-.4 1 0-.7 1.5-2.8 2.5-4.9 2.8-3 .4.9-1.1.3-.9-1.9.6-1.8 1.2-2.9 2.7-2.5 3.3.4.7.1.9-.8.6s-2.6.3-4 1.4l-2.4 2 3-1.6 3-1.7-3 2.7c-1.6 1.5-3.1 3.1-3.1 3.6-.1.4-.2 1.4-.3 2-.1.8-1.8 1.4-4.3 1.4l-4.3.2 3-2.5c1.7-1.4 2.1-2 1-1.4-2.9 1.5-7.3 5.2-5.5 4.6 1.1-.4 1.6.1 1.6 1.4 0 1.1-.3 1.8-.7 1.6-1-.7-4 3.1-3.2 3.9.5.4-.4.2-1.9-.5-2.3-1-2.6-1.5-1.5-2.7.6-.9-.7-.3-3 1.3-2.4 1.5-4 3.1-3.8 3.5.3.5-.9 1.9-2.7 3.1-1.8 1.3-3.5 2.6-3.8 2.9-.3.4-1.2.9-2 1.3-4.6 2.1-16.5 10.6-16.2 11.7.5 2.2-1.8 3.8-5.4 3.7l-3.5-.1 2.3-1.8c3-2.3 4.4-2.3 2.7-.1-1.3 1.6-1.2 1.7.3.4 1-.7 1.6-1.7 1.3-2.1-.2-.4 2.7-2.8 6.5-5.4 3.9-2.5 7-4.8 7-5.1s-4.8 2.7-10.6 6.6-10.3 7.3-10 7.6c.9.9-3.4 6.4-4.5 5.8-.5-.4-.9-.2-.9.4s-.7.8-1.5.5c-.8-.4-1.2-1-.9-1.6.6-.9-3.6 1.6-11.9 7.2-2 1.4-3.7 2.7-3.7 3 .1.3 3.5 2.6 7.8 5.3 4.2 2.6 8.8 5.4 10.2 6.3 2 1.3 2 1.2-.3-.6-1.5-1.2-2.4-2.6-2.1-3.2.4-.6.9-.5 1.4.3.5.7 1.8 1.4 3.1 1.6 1.2.2 2.8.8 3.6 1.4 1.6 1.4.6 3.2-1.3 2.5-2.8-1.1-1.2.2 5.9 4.8 4 2.7 5.9 3.5 4.2 2l-3-2.7 3 1.8c7.4 4.5 22 14.7 22 15.5 0 .5.4 1.2.9 1.7s.6.2.1-.6q-.75-1.35.6-.9c.8.3 1.3 1 1.2 1.7-.2.6 3.2 3.4 7.4 6.3 10.2 7 10.7 7.3 9.9 5.9-1.1-1.8 1-1.3 2.5.6 1.2 1.4 1.2 1.6 0 .8-1-.5-1.2-.4-.7.3.4.7 1.7 1.7 2.9 2.4 2.1 1 2.1 1 .7-.7s-1.4-1.7 1.6-.2c1.7.9 3.7 2.4 4.5 3.3 1.3 1.6 1.2 1.6-1.3 0-4.5-2.9-3.2-1.1 1.4 2 6.3 4.3 7.7 4.9 4.3 2l-3-2.6 3.5.7c1.9.3 4 1 4.5 1.6.7.7.3.8-1 .3-2.3-.8-1.8-.4 4.3 4.3 2.4 1.9 4.5 3.1 4.8 2.9.3-.3 1.9.8 3.6 2.3 1.7 1.6 5.1 3.4 7.5 4.1 3.1.7 4.7 1.8 5.3 3.4.6 1.4 1.9 2.4 3.7 2.7 1.5.2 1.1.3-1.1.1-2.8-.2-3.5.1-2.8.8 1.4 1.4 12.9 1.5 14.3.1.5-.5.7-1.8.3-2.7-.4-1.1-.9-1.4-1.3-.7-.4.6-2.4-4.1-4.4-10.3-3.4-10.4-4-11.3-5.9-10.8-1.5.3-1.9.2-1.4-.7.4-.6 1.2-.8 1.8-.5.7.5.9-.6.5-3.2-.5-2.9-.4-3.4.3-1.9.9 1.9 1 1.9.7-.3-.1-1.2-.6-2.1-1-2-1 .4-3.6-4.1-3.6-6.2-.1-1.3.1-1.3 1 0 .9 1.2 1 1.2.5-.3-.3-1-.6-2.4-.6-3 0-.8-.3-.8-.8.1-.6.9-1.3 0-2.2-2.7-.7-2.2-1.7-3.8-2.2-3.5-1.5.9-3.8-1.7-3.8-4.3 0-1.3.4-2.2.9-1.8.6.3 1.4-.3 2-1.2 1-1.7 1-1.6 1.1.3 0 1.1-.3 2.4-.7 2.8-1.1 1-1.2 3.6-.2 3.6.5 0 .9-1 1-2.3 0-2.1.1-2.1 1-.2.7 1.6.8 1.3.4-1.3-.4-3-.3-3.2 2.8-3.3l3.2-.2-3.5-.7-3.5-.7 4.5-.2c2.5-.1 22.1-.2 43.5-.4 34-.2 39-.4 38.7-1.7-.2-1.2 0-1.2 1.1.2 1.2 1.5 10.6 1.7 129 1.8l127.6.1 1.7-5.6c1-3 1.9-5.3 2.2-5.1.2.2-.4 2.9-1.4 6l-1.8 5.6-23 .3-23.1.2 23.3.3 23.2.2 1.1-2.8c1.1-2.7 2.7-7.9 5.5-17.6.8-2.7 1.2-5.1.9-5.4-.2-.2-.8 1.1-1.4 2.9-.5 1.9-1 2.8-1 2-.2-2.5 4.3-15.1 4.9-14.1.3.5 1.7-2.2 3-6 2-5.6 2.2-7.2 1.2-8.2-1.1-1.1-1.2-1-.7.2.3.9-.3 4-1.4 7s-2 5-2 4.4c-.1-.6.6-3.1 1.4-5.4.8-2.4 1.4-4.5 1.2-4.6-.3-.3-191.9-.7-193.7-.4-.3 0-33.9 0-74.7.1-68.4 0-74.3.1-74.3 1.6s-.2 1.4-1.4-.2c-1.1-1.6-2.2-1.7-7.4-1.2l-6.1.7.4-3.3c.5-2.7.4-2.9-.5-1.2-.9 1.8-1 1.8-.6-.5 1.1-6 3.5-12.5 4.4-12.3 1.1.3 3.8-6.5 2.9-7.3-.3-.3-.8.9-1.2 2.6s-.9 2.9-1.2 2.7c-.2-.3.1-2.4.8-4.6.7-2.3 1.5-3.7 1.9-3.1.4.7 1.8-2.2 3.2-6.3 1.9-5.6 2.2-7.9 1.4-8.7s-.7-1.1.3-.8c1.8.4 4.3-7.5 3.5-11.1-.4-2.1-.3-2.3.6-1.1.8 1.2.9.6.4-2.4-.6-3.2-.4-3.7.7-3.1 1.2.8 1.2.6 0-.8-1.7-2.1-5.7-2.1-9.3-.1m-5.8 6.4c-2.4 1.5-3.7 1.1-1.6-.5 1.1-.8 2.2-1.2 2.5-.9s-.1.9-.9 1.4m11.5 9c-.4 1.2-.9 1.9-1.2 1.7-.3-.3-.2-1.5.2-2.7s.9-1.9 1.2-1.7c.3.3.2 1.5-.2 2.7m-4 11.5c-.9 3.1-1.9 5.4-2.2 5.2-.2-.3.3-3 1.2-6.2.9-3.1 1.9-5.4 2.2-5.2.2.3-.3 3-1.2 6.2m-35-1.4c1 1.4.1 2.1-1.9 1.3-.9-.3-1.3-1-1-1.5.7-1.2 2.1-1.1 2.9.2m13.2 11.5c-.3.3-1.2.4-1.9.1-.8-.3-.5-.6.6-.6 1.1-.1 1.7.2 1.3.5m-43.1 7.9c-1.1.8-2.4 1.5-3 1.5-.5 0-.1-.7 1-1.5 1-.8 2.4-1.4 2.9-1.4.6 0 .1.6-.9 1.4m10.9-.5c.3.5.1 1-.4 1-.6 0-1.1-.5-1.1-1 0-.6.2-1 .4-1 .3 0 .8.4 1.1 1m36.5 3.1c0 .5-.4.9-1 .9-.5 0-1-.7-1-1.6 0-.8.5-1.2 1-.9.6.3 1 1 1 1.6m-13.6 2.5c.9 2.2-.3 3.2-1.4 1.4-1.2-1.9-1.2-3-.1-3 .5 0 1.2.7 1.5 1.6m16.3 3c-.3.3-1.2.4-1.9.1-.8-.3-.5-.6.6-.6 1.1-.1 1.7.2 1.3.5m-16.2 7.5c1.1 1.7 0 2-2.1.4-1.7-1.3-1.7-1.4-.2-1.5.9 0 2 .5 2.3 1.1m9.2.5c-.3.3-1.2.4-1.9.1-.8-.3-.5-.6.6-.6 1.1-.1 1.7.2 1.3.5m4.6 1.4c-2.1 2.4-1.9 2.4-2.7.4-.3-.8-.2-1.2.3-.9s1.2.1 1.6-.5c.3-.5 1-1 1.5-1 .6 0 .2.9-.7 2m-16.3.9c0 .5.3 1.7.7 2.7.4 1.1.3 1.5-.4 1.1-1.4-.9-2.4-4.7-1.2-4.7.5 0 .9.4.9.9m112.5 1.1c.3.5-.1 1-.9 1-.9 0-1.6-.5-1.6-1 0-.6.4-1 .9-1 .6 0 1.3.4 1.6 1m73.2 1.4c-.8.9-1.5 1-2.3.2-1.6-1.5-.8-2.5 1.5-1.9 1.5.4 1.7.8.8 1.7m-124.3-.5c.3.5-.1 1.1-.9 1.4-.9.4-1.2.1-.8-.9.6-1.6 1-1.7 1.7-.5m38 .6c.3.8.1 1.5-.4 1.5-.6 0-1-.7-1-1.5s.2-1.5.4-1.5.6.7 1 1.5m9.6 1.9c0 .8.7 1.6 1.5 2 .8.3 1.5.1 1.5-.4 0-.6.4-1 .9-1 1.5 0 .9 4.9-.8 6.2-.9.7-1.3.8-.9.4 1.1-1.3-1.2-3.7-2.6-2.9-.6.3-.8.3-.4-.1.4-.5.3-1.9-.2-3.2-.6-1.5-.6-2.4 0-2.4s1 .6 1 1.4m-106 1.7c0 .6-.7.8-1.6.5-1.1-.4-1.4-.1-1.2 1.2.2.9 1 1.6 1.8 1.4 1.1-.3 1.1 0 .1 1.2s-.9 1.6.6 2.5c1.6.9 1.5 1-.7.7-1.7-.2-2.5-.9-2.5-2.2 0-1-.4-2.5-.9-3.3s-.4-1.6.5-2.2c1.9-1.2 3.9-1.1 3.9.2m134.3 1.4c-.7 2.1-1.3 1.9-1.3-.6 0-1.1.4-1.8 1-1.4.5.3.7 1.2.3 2m-49.3.6c0 .6-.4.7-1 .4-.5-.3-1-1.1-1-1.6 0-.6.5-.7 1-.4.6.3 1 1.1 1 1.6m-95.5 1.8c-.6.5-2.5-1-2.5-2 0-.5.6-.4 1.4.3s1.2 1.5 1.1 1.7m191.9-1.4c-.7 1.8-1.4 1.8-3.4.4-1.3-.9-1.2-1 .2-.5 1 .3 2 .1 2.3-.4.9-1.5 1.5-1.2.9.5m-66.9 1.5c.3.5.2 1-.4 1-.5 0-1.3-.5-1.6-1-.3-.6-.2-1 .4-1 .5 0 1.3.4 1.6 1m-73.5 1c0 .5-.2 1-.4 1-.3 0-.8-.5-1.1-1-.3-.6-.1-1 .4-1 .6 0 1.1.4 1.1 1m-113 1.6c0 .8-.5 1.2-1 .9-.6-.4-.8-1.1-.5-1.6.9-1.4 1.5-1.1 1.5.7m79.6 2.1c-.7.8-4.6-1.2-4.6-2.4 0-1.1.5-1 2.4.4 1.3 1 2.3 1.9 2.2 2m88.8-2.1c.3.8.2 1.2-.4.9s-1-1-1-1.6c0-1.4.7-1.1 1.4.7m10.1.5c1 3 0 3.3-1.3.4-.6-1.4-.7-2.5-.2-2.5s1.2.9 1.5 2.1m9.5-.1c-.6 1.1-1.6 2-2.2 2s-.3-.9.7-2 2-2 2.2-2-.1.9-.7 2m-197-.5c0 .3-1.8 1.7-4 3.1-2.2 1.5-3.7 3-3.5 3.5.3.4-.2 1.2-1.2 1.7-1.5.9-1 1.5 3.5 4.3 2.9 1.8 5 3.4 4.8 3.6s-3.1-1.3-6.5-3.4c-6.2-3.9-7.3-6-3-5.5 1.6.1 2-.1 1.1-.6-1-.7 0-1.8 3.5-4 5.1-3.4 5.3-3.5 5.3-2.7m119.3 1.4c1.9-.9 1.8-.7-.3 1.1-1.4 1.1-3.4 2.5-4.5 3.1-1.9.9-1.9.9-.2-.4 1-.8 1.7-1.9 1.6-2.3-.3-1.7.3-2.9.8-1.7.3 1 1 1 2.6.2m47.5 2c1.3 3.8-.7 5.9-4 4.4-1.5-.6-1.8-1.2-1-1.7.7-.4 1.2-.2 1.2.3 0 .6.7 1.1 1.5 1.1s1.5-.9 1.5-1.9c0-1.3-.6-1.8-1.7-1.6-1 .1-1.2 0-.5-.2.6-.3 1.2-.8 1.2-1.3s-.6-1.1-1.2-1.3c-.8-.4-.7-.6.4-.6.9-.1 2 1.1 2.6 2.8m3.2-1.9c0 .5-.2 1-.4 1-.3 0-.8-.5-1.1-1-.3-.6-.1-1 .4-1 .6 0 1.1.4 1.1 1m22.1.9c-.7.5-1 1.4-.7 2 .4.6.3 1.1-.3 1.1-1.4 0-2.3-1.8-1.6-3 .3-.6 1.4-1 2.3-1 1.4 0 1.4.2.3.9m-98.9 1.2c.2.2.1.3-.1.2s-1.2.2-2.2.8c-1.4.7-1.7.6-1.3-.5.5-1.3 2.9-1.6 3.6-.5m118.3-.1c.3.5.1 1-.4 1-.6 0-1.1-.5-1.1-1 0-.6.2-1 .4-1 .3 0 .8.4 1.1 1m-40.9 1.6c-.3.9-.6 2.3-.7 3.2-.1 1-.4.7-.8-.8-.9-2.8-.5-4 1.1-4 .5 0 .7.7.4 1.6m16.4 1.9c0 .8-.4 1.5-1 1.5-.5 0-.7-.7-.4-1.5.4-.8.8-1.5 1-1.5s.4.7.4 1.5m29-.5c0 .5-.4 1-1 1-.5 0-1-.5-1-1 0-.6.5-1 1-1 .6 0 1 .4 1 1m43.1.7c1.3 1.6 1.2 1.7-.3.4-1.7-1.3-2.2-2.1-1.4-2.1.2 0 1 .8 1.7 1.7m-167.4 5.3c-.8 1.1-1.7 1.7-2 1.3-.4-.3-.2-1.2.3-1.8.8-.9.6-1.4-.5-1.8-.8-.4-1.2-1.3-.9-2.1.5-1.2.9-1.1 2.5.5 1.7 1.7 1.8 2.2.6 3.9m1.3-5c0 .5-.5 1-1.1 1-.5 0-.7-.5-.4-1 .3-.6.8-1 1.1-1 .2 0 .4.4.4 1m23.5 0c-.3.5-1.2 1-1.8 1-.7 0-.6-.4.3-1 1.9-1.2 2.3-1.2 1.5 0m58.5 2.1c0 1.7-.4 2.8-1 2.4-.5-.3-.7-1.2-.3-2 .3-.9-.1-1.5-.8-1.5-1.1 0-1.1-.3.1-1 2.1-1.3 2-1.4 2 2.1m36.5-2.1c.3.5-.1 1-1 1s-1.3-.5-1-1c.3-.6.8-1 1-1s.7.4 1 1m-133.5 1c0 .5-.4 1-1 1-.5 0-1-.5-1-1 0-.6.5-1 1-1 .6 0 1 .4 1 1m31-.6c0 .3-.4.8-1 1.1-.5.3-1 .1-1-.4 0-.6.5-1.1 1-1.1.6 0 1 .2 1 .4m88.7.2c-.3.3-1.2.4-1.9.1-.8-.3-.5-.6.6-.6 1.1-.1 1.7.2 1.3.5m-4.2 1.4c-.3.5-1.1 1-1.6 1-.6 0-.7-.5-.4-1 .3-.6 1.1-1 1.6-1 .6 0 .7.4.4 1m-76.5 1.3c0 .7-.9 1.8-1.9 2.4-1.5.9-1.9.9-1.7 0 .4-3.1 3.6-5.2 3.6-2.4m49 .7c0 .5-.4 1-1 1-.5 0-1-.5-1-1 0-.6.5-1 1-1 .6 0 1 .4 1 1m46 0c0 .5-.5 1-1.1 1-.5 0-.7-.5-.4-1 .3-.6.8-1 1.1-1 .2 0 .4.4.4 1m-145.5 1c-.3.5-1.1 1-1.6 1-.6 0-.7-.5-.4-1 .3-.6 1.1-1 1.6-1 .6 0 .7.4.4 1m103.3-.3c-2.1.5-2.3 2.4-.6 4.1.9.9.9 1.2 0 1.2-.7 0-1.2-.5-1.2-1.1s-.7-.9-1.5-.5c-1.3.5-1.3.2.1-1.9.9-1.4 2.4-2.4 3.3-2.4 1.4.1 1.3.2-.1.6m93.2-.3c0 .3-.4.8-1 1.1-.5.3-1 .1-1-.4 0-.6.5-1.1 1-1.1.6 0 1 .2 1 .4m-88.3 3.1c0 1.8-2.3 2-3.3.3-.4-.6-.3-.8.4-.4.6.3 1.3.2 1.7-.4.9-1.4 1.2-1.3 1.2.5m12.5.7c-.7.7-1.2.8-1.2.2 0-1.4 1.2-2.6 1.9-1.9.2.3-.1 1.1-.7 1.7m-135.2.8c0 .5-.5 1-1.1 1-.5 0-.7-.5-.4-1 .3-.6.8-1 1.1-1 .2 0 .4.4.4 1m29.5-.1c.3.5.1 1.2-.5 1.6-.5.3-1-.1-1-.9 0-1.8.6-2.1 1.5-.7m15.5.7c0 .2-.7.4-1.5.4s-1.5-.4-1.5-1c0-.5.7-.7 1.5-.4.8.4 1.5.8 1.5 1m18.6 2c-2.1 2-2.8 1.7-1.4-.5.7-1.1 1.6-1.7 2-1.5.5.3.2 1.2-.6 2m75.4.4c-1.1 2.1-3 2.7-3 .9 0-.5-.4-.7-1-.4-.5.3-1 .4-1 0 0-.6 3.8-2.3 5.3-2.4.4-.1.3.8-.3 1.9m71.6.5c.1.8-.2 1.5-.7 1.5s-.9.7-.9 1.5-.4 1.5-1 1.5c-1.2 0-1.2 0 .1-3.9 1.1-3.2 2.1-3.4 2.5-.6m-99.6.5c0 .5-.2 1-.4 1-.3 0-.8-.5-1.1-1-.3-.6-.1-1 .4-1 .6 0 1.1.4 1.1 1m7.6-.1c-.3.5-1.6 1.1-2.8 1.4-2.2.6-2.2.5-.4-.8 2.2-1.7 4-2 3.2-.6m44.9 1.1c-.3.5-1.2 1-1.8 1-.7 0-.6-.4.3-1 1.9-1.2 2.3-1.2 1.5 0m-125 3.1c-1 1.5-2.5 1-1.9-.6.4-.8 1-1.2 1.5-.9s.7 1 .4 1.5m-41.2 24.4c4.6 3.1 5.2 3.3 5.9 1.8.3-1 .7-1.2.7-.6.1.7.1 1.6.2 2 0 .5.8 1.6 1.6 2.5.9 1 1.3 1.8 1 1.8-.6 0-13.2-8.5-15.1-10.2-2.4-2 1-.5 5.7 2.7m31.7.5c0 .5-.4 1-1 1-.5 0-1-.5-1-1 0-.6.5-1 1-1 .6 0 1 .4 1 1m38 38c0 .5-1.2 1-2.7.9l-2.8-.1 2.5-.8c1.4-.4 2.6-.8 2.8-.9.1-.1.2.3.2.9"/><path d="M1717.6 1337.8c-.2.4-.1 1.4.3 2.1.6.9 1.1 1 1.5.2.4-.6.2-1.1-.4-1.1s-.8-.5-.5-1c.3-.6.4-1 .1-1s-.7.4-1 .8m53.1 9.9c-.4.3-.7 1.1-.7 1.7s.5.5 1.2-.2c.6-.6.9-1.4.7-1.7-.3-.3-.9-.2-1.2.2m-72.8 3.4c-2.3 1.9-2.3 2-.2 1 1.2-.6 2.5-1.6 2.8-2.1 1-1.6-.1-1.2-2.6 1.1m424.2 24.1c0 .9-.4 2.5-.7 3.5-.5 1.7-.5 1.7.6 0 .6-1 .9-2.5.7-3.5-.4-1.5-.5-1.5-.6 0m-435.1 31.2c0 .3 1.5 1.5 3.3 2.7 2.3 1.7 2.8 1.8 1.8.6-1.4-1.8-5.1-4.2-5.1-3.3m101.3.3c.9.2 2.5.2 3.5 0 .9-.3.1-.5-1.8-.5s-2.7.2-1.7.5m8 0c.9.2 2.5.2 3.5 0 .9-.3.1-.5-1.8-.5s-2.7.2-1.7.5m22.5 0c1.2.2 3.2.2 4.5 0 1.2-.2.2-.4-2.3-.4s-3.5.2-2.2.4m8.5 0c.9.2 2.5.2 3.5 0 .9-.3.1-.5-1.8-.5s-2.7.2-1.7.5m17.5 0c1.2.2 3.2.2 4.5 0 1.2-.2.2-.4-2.3-.4s-3.5.2-2.2.4m20 0c.6.2 1.8.2 2.5 0 .6-.3.1-.5-1.3-.5s-1.9.2-1.2.5m5 0c.7.3 1.6.2 1.9-.1.4-.3-.2-.6-1.3-.5-1.1 0-1.4.3-.6.6m129.5 0c.9.2 2.5.2 3.5 0 .9-.3.1-.5-1.8-.5s-2.7.2-1.7.5m20.5 0c.6.2 1.8.2 2.5 0 .6-.3.1-.5-1.3-.5s-1.9.2-1.2.5m31 0c.7.3 1.6.2 1.9-.1.4-.3-.2-.6-1.3-.5-1.1 0-1.4.3-.6.6m8.5 0c.9.2 2.5.2 3.5 0 .9-.3.1-.5-1.8-.5s-2.7.2-1.7.5m-360.8 7.8c1.1.9 2.9 2.1 4 2.6l2 1-2-1.6c-1.1-.9-2.9-2.1-4-2.6l-2-1zm70.5.1c0 .6.7 1.9 1.6 3 1.4 1.8 1.4 1.8.3-.6-1.4-3.1-1.9-3.6-1.9-2.4m8 23.9c0 .5.5 1.7 1 2.5s1 1 1 .5c0-.6-.5-1.7-1-2.5s-1-1.1-1-.5m-32 7c0 .2 4.8 3.7 10.7 7.7 13.1 8.9 13.3 9 13.3 8.4 0-.3-4.2-3.4-9.2-6.8-11.8-8-14.8-9.9-14.8-9.3m38.1 11.1c0 1.1.3 1.4.6.6.3-.7.2-1.6-.1-1.9-.3-.4-.6.2-.5 1.3"/></g><g fill="#2563eb" stroke-width="0"><path d="M1775.8 1299.5c-3.9 2.2-3.5 2.7.7.9 4.8-2 7.3-1.8 7.8.6.4 1.7.4 1.6.3-.2s-.8-2.4-3.1-2.5c-1.6-.2-4.2.4-5.7 1.2m-10.6 7c-5.6 3.8-6.8 5.2-2.6 3 1.5-.7 3.4-1.1 4.3-.8 1.3.4 1.4.3.2-.5-1.2-.9-1-1.3 1.2-2.3 1.5-.7 2.7-1.6 2.7-2.1 0-1.2 0-1.2-5.8 2.7m17.9-.9c0 1.1.3 1.4.6.6.3-.7.2-1.6-.1-1.9-.3-.4-.6.2-.5 1.3m-35.7 12.9c-6 4.2-23.4 15.9-38.6 26.1-15.3 10.3-27.6 19-27.3 19.4s-.3 1.4-1.3 2.1c-1.5 1.3-1.6 1.2-.3-.4 2.4-3.1.2-1.8-12 6.5-8.1 5.5-11.5 8.4-10.7 9 .8.5.4.7-1.1.6-4.6-.5-3 1.7 4.7 6.7 4.2 2.7 9.7 6.3 12.2 7.9s3.9 2.2 3.3 1.4c-.7-.8-1.1-1.7-.8-2 .8-.8-1.9-2.7-4.4-3.1-1.3-.2-2.6-.9-3-1.6-.5-.7-1-1.1-1.3-.9-.3.1-2.9-1.2-5.8-3-4.1-2.6-5-3.6-3.9-4.2.8-.5 1.4-1.4 1.4-1.9 0-1.4 8.4-7.3 9.5-6.6.6.4 1 .1 1-.4 0-.6.4-1 .8-.8.5.1 2.3-1.3 4-3.1 2.4-2.5 3.6-3.1 5.5-2.7 2.5.7 5-1.3 4.5-3.5-.3-1.1 11.6-9.6 16.2-11.7.8-.4 1.7-1 2-1.3.3-.4 3.3-2.6 6.7-4.9 5.4-3.7 6.5-4.1 8.4-3.1 1.2.7 1.9.8 1.5.2-.7-1.2 2.8-4.5 3.8-3.5.4.4.4 0 .1-.9-.8-2 1.8-3.5 5.8-3.3 1.5 0 2.8-.5 2.8-1.2.1-.7.2-1.7.3-2.2 0-.5 1.9-2.3 4-4 2.7-2.1 4.5-2.9 5.9-2.5s1.8.2 1.5-.7c-.3-.8 1.6-2.7 4.6-4.6 4.2-2.8 5.2-3.1 5.9-1.8 1.1 2.1 2.7.9 2.7-2 0-1.3.8-2.8 1.7-3.4 1-.5 1.5-1.2 1.2-1.5s-5.5 2.8-11.5 6.9m-27.4 20.9c0 .3-.4.8-1 1.1-.5.3-1 .1-1-.4 0-.6.5-1.1 1-1.1.6 0 1 .2 1 .4m60.5-26.4c-.4 1.2-.5 2.4-.2 2.7.3.2.8-.5 1.2-1.7s.5-2.4.2-2.7c-.3-.2-.8.5-1.2 1.7m-4 11.5c-.9 3.2-1.4 5.9-1.2 6.2.3.2 1.3-2.1 2.2-5.2.9-3.2 1.4-5.9 1.2-6.2-.3-.2-1.3 2.1-2.2 5.2m-3.4 11.6c-.7 2.2-1.1 4.3-.8 4.5.2.2.9-1.4 1.6-3.7.7-2.2 1.1-4.3.8-4.5-.2-.2-.9 1.4-1.6 3.7m-19.3-.4c.7.3 1.6.2 1.9-.1.4-.3-.2-.6-1.3-.5-1.1 0-1.4.3-.6.6"/><path d="M1722 1343c0 .5.5 1 1.1 1 .5 0 .7-.5.4-1-.3-.6-.8-1-1.1-1-.2 0-.4.4-.4 1m48.7.1c-.2.8-1.2 4-2.2 7.2-1 3.1-1.6 5.9-1.3 6.2s1.5-2.7 2.6-6.7c1.2-3.9 2-7.3 1.7-7.6-.2-.3-.6.1-.8.9m-12.7 2.3c0 .9.5 1.6 1 1.6.6 0 1-.4 1-.9 0-.6-.4-1.3-1-1.6-.5-.3-1 .1-1 .9m-14 2.3c0 1.4 1.9 3.8 2.5 3.2.8-.8-.5-3.9-1.6-3.9-.5 0-.9.3-.9.7m16.8 4c.7.3 1.6.2 1.9-.1.4-.3-.2-.6-1.3-.5-1.1 0-1.4.3-.6.6m-16.4 7.8c2.1 1.6 3.2 1.3 2.1-.4-.3-.6-1.4-1.1-2.3-1.1-1.5.1-1.5.2.2 1.5m23.6-.5c0 .6 2.3.7 6.1.3 5.3-.5 6.4-.4 7.5 1.2 1.2 1.6 1.4 1.7 1.4.2s5.8-1.6 74.1-1.6c40.8 0 74.4-.3 74.7-.6s-36.4-.5-81.6-.5c-53.3 0-82.2.3-82.2 1m172.3-.3c3.7.2 9.6.2 13 0s.4-.3-6.8-.3c-7.1 0-9.9.1-6.2.3m24.5 0c1.2.2 3 .2 4 0 .9-.3-.1-.5-2.3-.4-2.2 0-3 .2-1.7.4m7 0c.6.2 1.8.2 2.5 0 .6-.3.1-.5-1.3-.5s-1.9.2-1.2.5m45 0c16.6.2 43.8.2 60.5 0 16.6-.1 3-.2-30.3-.2s-46.9.1-30.2.2m100.5 0c4.8.2 8.7.5 8.7.7s-.7 2.3-1.5 4.6-1.5 4.8-1.4 5.4c.1 1.3 3.7-8.3 3.8-10.2.1-.9-2.3-1.1-9.1-1l-9.3.2zm-363.5 1c.7.3 1.6.2 1.9-.1.4-.3-.2-.6-1.3-.5-1.1 0-1.4.3-.6.6m5.7.3c-.4.6-1.1.8-1.6.5s-.6.1-.3.9c.8 2 .6 2 2.7-.4.9-1.1 1.3-2 .7-2-.5 0-1.2.5-1.5 1m-16.8 3c.3 1.1 1 2.3 1.6 2.7.7.4.8 0 .4-1.1-.4-1-.7-2.2-.7-2.7s-.4-.9-.9-.9-.7.9-.4 2m111.3 0c0 .5.7 1 1.6 1 .8 0 1.2-.5.9-1-.3-.6-1-1-1.6-1-.5 0-.9.4-.9 1m72.6-.2c-.2.4.1 1.2.8 1.8.8.8 1.5.7 2.3-.2.9-.9.7-1.3-.8-1.7-1-.3-2.1-.2-2.3.1m-122.9 1.6c-.4 1-.1 1.3.8.9.8-.3 1.2-.9.9-1.4-.7-1.2-1.1-1.1-1.7.5m38.3.1c0 .8.4 1.5 1 1.5.5 0 .7-.7.4-1.5-.4-.8-.8-1.5-1-1.5s-.4.7-.4 1.5m10 2.9c.5 1.3.6 2.7.2 3.2-.4.4-.2.4.4.1 1.4-.8 3.7 1.6 2.6 2.9-.4.4 0 .3.9-.4 1.7-1.3 2.3-6.2.8-6.2-.5 0-.9.4-.9 1 0 .5-.7.7-1.5.4-.8-.4-1.5-1.2-1.5-2s-.4-1.4-1-1.4-.6.9 0 2.4m-108.9.5c-.9.6-1 1.4-.5 2.2s.9 2.3.9 3.3c0 1.3.8 2 2.5 2.2 2.2.3 2.3.2.7-.7-1.5-.9-1.6-1.3-.6-2.5s1-1.5-.1-1.2c-.8.2-1.6-.5-1.8-1.4-.2-1.3.1-1.6 1.2-1.2.9.3 1.6.1 1.6-.5 0-1.3-2-1.4-3.9-.2m136.9 1c0 2.5.6 2.7 1.3.6.4-.8.2-1.7-.3-2-.6-.4-1 .3-1 1.4m-50 0c0 .5.5 1.3 1 1.6.6.3 1 .2 1-.4 0-.5-.4-1.3-1-1.6-.5-.3-1-.2-1 .4m-96 1c0 1 1.9 2.5 2.5 2 .1-.2-.3-1-1.1-1.7s-1.4-.8-1.4-.3m193.5.1c-.3.5-1.3.7-2.3.4-1.4-.5-1.5-.4-.2.5 2 1.4 2.7 1.4 3.4-.4.6-1.7 0-2-.9-.5m-68 2c.3.5 1.1 1 1.6 1 .6 0 .7-.5.4-1-.3-.6-1.1-1-1.6-1-.6 0-.7.4-.4 1m260.7 5.7c-1.2 3.8-2.2 7.6-2.1 8.4 0 .8 1.1-1.9 2.5-6s2.3-7.8 2.2-8.3c-.2-.5-1.4 2.1-2.6 5.9m-333.7-4.7c.3.5.8 1 1.1 1 .2 0 .4-.5.4-1 0-.6-.5-1-1.1-1-.5 0-.7.4-.4 1m-113 .9c-.3.5-.1 1.2.5 1.6.5.3 1-.1 1-.9 0-1.8-.6-2.1-1.5-.7m76.5.4c0 .8 1 1.7 2.2 2 3 .8 3 .5.2-1.6-1.9-1.4-2.4-1.5-2.4-.4m92-.4c0 .6.4 1.3 1 1.6s.7-.1.4-.9c-.7-1.8-1.4-2.1-1.4-.7m10.2 1.6c.6 1.4 1.3 2.3 1.6 2.1.7-.7-.9-4.6-1.8-4.6-.5 0-.4 1.1.2 2.5m9.3-.5c-1 1.1-1.3 2-.7 2s1.6-.9 2.2-2 .9-2 .7-2-1.2.9-2.2 2m-79.5.5c-.1.5-.2 1.4-.1 1.9.1.4-.6 1.5-1.6 2.3-1.7 1.3-1.7 1.3.2.4 1.1-.6 3.1-2 4.5-3.1 2.1-1.8 2.2-2 .3-1.1-1.6.8-2.3.8-2.6-.2-.3-.6-.6-.8-.7-.2m47.8.2c.6.2 1.2.8 1.2 1.3s-.6 1-1.2 1.3c-.7.2-.5.3.5.2 1.1-.2 1.7.3 1.7 1.6 0 1-.7 1.9-1.5 1.9s-1.5-.5-1.5-1.1c0-.5-.5-.7-1.2-.3-.8.5-.5 1.1 1 1.7 1.5.7 2.6.6 3.6-.2 1.9-1.6.2-7.1-2.2-7-1.1 0-1.2.2-.4.6m4.7.3c.3.5.8 1 1.1 1 .2 0 .4-.5.4-1 0-.6-.5-1-1.1-1-.5 0-.7.4-.4 1m21 1c-.7 1.2.2 3 1.6 3 .6 0 .7-.5.3-1.1-.3-.6 0-1.5.7-2 1.1-.7 1.1-.9-.3-.9-.9 0-2 .4-2.3 1m-99.9 1.6c-.4 1.1-.1 1.2 1.3.5 1-.6 2-.9 2.2-.8s.3 0 .1-.2c-.7-1.1-3.1-.8-3.6.5m120.4-.6c0 .5.5 1 1.1 1 .5 0 .7-.5.4-1-.3-.6-.8-1-1.1-1-.2 0-.4.4-.4 1m-41.3.7c-.2.5-.1 1.9.4 3.3.4 1.5.7 1.8.8.8.1-.9.4-2.3.7-3.2.6-1.6-1.1-2.3-1.9-.9m16.9 2.8c-.3.8-.1 1.5.4 1.5.6 0 1-.7 1-1.5s-.2-1.5-.4-1.5-.6.7-1 1.5m28.4-.5c0 .5.5 1 1 1 .6 0 1-.5 1-1 0-.6-.4-1-1-1-.5 0-1 .4-1 1m43-.6c0 .2.8 1 1.8 1.7 1.5 1.3 1.6 1.2.3-.4s-2.1-2.1-2.1-1.3m-168.4 2.2c-.3.8.1 1.7.9 2.1 1.1.4 1.3.9.5 1.8-.5.6-.7 1.5-.3 1.8.3.4 1.2-.2 2-1.3 1.2-1.7 1.1-2.2-.6-3.9-1.6-1.6-2-1.7-2.5-.5m2.9-.6c-.3.5-.1 1 .4 1 .6 0 1.1-.5 1.1-1 0-.6-.2-1-.4-1-.3 0-.8.4-1.1 1m23.5 0c-.9.6-1 1-.3 1 .6 0 1.5-.5 1.8-1 .8-1.2.4-1.2-1.5 0m58 0c-1.2.7-1.2 1-.1 1 .7 0 1.1.6.8 1.5-.4.8-.2 1.7.3 2 .6.4 1-.7 1-2.4 0-3.5.1-3.4-2-2.1m36.5 0c-.3.5.1 1 1 1s1.3-.5 1-1c-.3-.6-.8-1-1-1s-.7.4-1 1m-133.5 1c0 .5.5 1 1 1 .6 0 1-.5 1-1 0-.6-.4-1-1-1-.5 0-1 .4-1 1m31 .1c0 .5.5.7 1 .4.6-.3 1-.8 1-1.1 0-.2-.4-.4-1-.4-.5 0-1 .5-1 1.1m88.8-.4c.7.3 1.6.2 1.9-.1.4-.3-.2-.6-1.3-.5-1.1 0-1.4.3-.6.6m-4.3 1.3c-.3.5-.2 1 .4 1 .5 0 1.3-.5 1.6-1 .3-.6.2-1-.4-1-.5 0-1.3.4-1.6 1m-77.2 1.2c-1.6 2.6-1.2 3.8.8 2.5 2-1.2 2.6-3.7 1-3.7-.6 0-1.3.6-1.8 1.2m49.7.8c0 .5.5 1 1 1 .6 0 1-.5 1-1 0-.6-.4-1-1-1-.5 0-1 .4-1 1m46.5 0c-.3.5-.1 1 .4 1 .6 0 1.1-.5 1.1-1 0-.6-.2-1-.4-1-.3 0-.8.4-1.1 1m-146 1c-.3.5-.2 1 .4 1 .5 0 1.3-.5 1.6-1 .3-.6.2-1-.4-1-.5 0-1.3.4-1.6 1m102.1 1.5c-1.4 2.1-1.4 2.4-.1 1.9.8-.4 1.5-.1 1.5.5s.5 1.1 1.2 1.1c.9 0 .9-.3 0-1.2-1.7-1.7-1.5-3.6.6-4.1 1.4-.4 1.5-.5.1-.6-.9 0-2.4 1-3.3 2.4m94.4-1.4c0 .5.5.7 1 .4.6-.3 1-.8 1-1.1 0-.2-.4-.4-1-.4-.5 0-1 .5-1 1.1m-87.5 1.9c-.4.6-1.1.7-1.7.4-.7-.4-.8-.2-.4.4 1 1.7 3.3 1.5 3.3-.3s-.3-1.9-1.2-.5m13.2-.3c-.4.3-.7 1.1-.7 1.7s.5.5 1.2-.2c.6-.6.9-1.4.7-1.7-.3-.3-.9-.2-1.2.2m-136.2 2.3c-.3.5-.1 1 .4 1 .6 0 1.1-.5 1.1-1 0-.6-.2-1-.4-1-.3 0-.8.4-1.1 1m29.5.6c0 .8.5 1.2 1 .9.6-.4.8-1.1.5-1.6-.9-1.4-1.5-1.1-1.5.7m14-.6c0 .6.7 1 1.5 1s1.5-.2 1.5-.4-.7-.6-1.5-1c-.8-.3-1.5-.1-1.5.4m20.2 2.1c-1.4 2.2-.7 2.5 1.4.5.8-.8 1.1-1.7.6-2-.4-.2-1.3.4-2 1.5m74.1-.1c-1.3.5-2.3 1.2-2.3 1.5 0 .4.5.3 1 0 .6-.3 1-.1 1 .4 0 1.8 1.9 1.2 3-.9 1.2-2.2.7-2.3-2.7-1m71.8 2.1c-1.3 3.9-1.3 3.9-.1 3.9.6 0 1-.7 1-1.5s.4-1.5.9-1.5.8-.7.7-1.5c-.4-2.8-1.4-2.6-2.5.6m-98.6-.1c.3.5.8 1 1.1 1 .2 0 .4-.5.4-1 0-.6-.5-1-1.1-1-.5 0-.7.4-.4 1m5.9.5c-1.8 1.3-1.8 1.4.4.8 1.2-.3 2.5-.9 2.8-1.4.8-1.4-1-1.1-3.2.6m280.2 4-1.7 5.6-127.6-.1c-118.4-.1-127.8-.3-129-1.8-1.1-1.4-1.3-1.4-1.1-.2.3 1.3-5.1 1.5-42.6 1.7-23.6.2-43.1.5-43.4.8s77.1.5 172 .5h172.4l1.8-5.6c1-3.1 1.6-5.8 1.4-6-.3-.2-1.2 2.1-2.2 5.1M1880 1396c-.9.6-1 1-.3 1 .6 0 1.5-.5 1.8-1 .8-1.2.4-1.2-1.5 0m-125.4 2.5c-.3.8-.1 1.5.4 1.5 1.3 0 2.2-1.8 1.1-2.4-.5-.3-1.1.1-1.5.9m-73.1 3.2c1.5 1.6 36.1 25.1 45 30.7 2.7 1.6 2.7 1.5-.5-1.2-1.9-1.7-3.6-3.5-3.6-4.1-.4-3.1-.6-3.5-1.2-1.8-.6 1.4-3.5-.1-19.2-10.6-19.7-13.1-22.1-14.6-20.5-13m84.1 5.8c-.3.9-1 1.3-1.6 1s-1 .4-1 1.8c0 2.6 2.5 5.5 3.7 4.3.4-.4 1.5 1.3 2.4 3.6 2.6 6.3 2.2 2.4-.5-5.5-1.5-4.4-2.6-6.2-3-5.2m1.1 6.2c-.3.3-1.1.2-1.7-.2-.8-.5-.7-1.1.2-2.2 1.2-1.5 1.3-1.4 1.6.1.2 1 .1 2-.1 2.3M1745 1424c0 .5.5 1 1 1 .6 0 1-.5 1-1 0-.6-.4-1-1-1-.5 0-1 .4-1 1m26.1 0c0 .8.6 2.6 1.5 4l1.5 2.5-.7-2.5c-.3-1.4-1-3.2-1.5-4-.7-1.3-.8-1.3-.8 0m3.4 10.4c.5 2.7.4 3.7-.3 3.2-.6-.3-1.4-.1-1.8.5-.5.8-.1 1 1.4.7 1.9-.5 2.5.5 6.1 11.2 3.9 11.8 3.9 11.9 1.8 12.3-1.8.3-1.7.5.6.6 1.5 0 2.7-.1 2.7-.3 0-.8-10.3-31.1-10.7-31.6-.3-.3-.2 1.3.2 3.4m-44.1.4c.3.6 2.3 2 4.3 3.2 2.6 1.5 3.3 1.7 2.3.5-1.5-1.8-7.6-5.2-6.6-3.7m8.6 5.7c0 .5 27.5 19.2 31.3 21.2 1.2.7 3.6 1.2 5.2 1.1 3-.1 3-.1-.3-.5-2.3-.3-3.6-1.1-4.2-2.7s-2.2-2.7-5.3-3.4c-2.4-.7-5.8-2.5-7.5-4.1-1.7-1.5-3.3-2.6-3.6-2.3-.3.2-2.4-1-4.8-2.9-6.1-4.7-6.6-5.1-4.3-4.3 1.3.5 1.7.4 1-.3-1-1.1-7.5-2.6-7.5-1.8"/></g><path fill="#2563eb" d="M1782.3 1357.7c7.5.2 19.9.2 27.5 0 7.5-.1 1.3-.3-13.8-.3s-21.3.2-13.7.3m78.5 0c18.9.2 49.5.2 68 0 18.5-.1 3.1-.2-34.3-.2s-52.6.1-33.7.2m103.5 0c.9.2 2.5.2 3.5 0 .9-.3.1-.5-1.8-.5s-2.7.2-1.7.5m42.5 0c19.9.2 52.5.2 72.5 0 19.9-.1 3.6-.2-36.3-.2s-56.2.1-36.2.2m112.5 0c1.5.2 3.7.2 5 0 1.2-.2 0-.4-2.8-.4-2.7 0-3.8.2-2.2.4m-343 49c1.5.2 3.7.2 5 0 1.2-.2 0-.4-2.8-.4-2.7 0-3.8.2-2.2.4m29.5 0c1.2.2 3.2.2 4.5 0 1.2-.2.2-.4-2.3-.4s-3.5.2-2.2.4m8 0c.6.2 1.8.2 2.5 0 .6-.3.1-.5-1.3-.5s-1.9.2-1.2.5m21 0c1.8.2 4.5.2 6 0s0-.4-3.3-.4-4.5.2-2.7.4m20.5 0c.9.2 2.5.2 3.5 0 .9-.3.1-.5-1.8-.5s-2.7.2-1.7.5m6.5 0c.7.3 1.6.2 1.9-.1.4-.3-.2-.6-1.3-.5-1.1 0-1.4.3-.6.6m21 0c4.5.2 11.9.2 16.5 0 4.5-.1.8-.3-8.3-.3s-12.8.2-8.2.3m30 0c2.3.2 6.1.2 8.5 0 2.3-.2.4-.4-4.3-.4s-6.6.2-4.2.4m14 0c.6.2 1.8.2 2.5 0 .6-.3.1-.5-1.3-.5s-1.9.2-1.2.5m6 0c.7.3 1.6.2 1.9-.1.4-.3-.2-.6-1.3-.5-1.1 0-1.4.3-.6.6m5.5 0c.9.2 2.3.2 3 0 .6-.3-.1-.5-1.8-.5-1.6 0-2.2.2-1.2.5m10.5 0c1.2.2 3.2.2 4.5 0 1.2-.2.2-.4-2.3-.4s-3.5.2-2.2.4m10.5 0c1.5.2 3.9.2 5.5 0 1.5-.2.2-.4-2.8-.4s-4.3.2-2.7.4m14.5 0c1.2.2 3.2.2 4.5 0 1.2-.2.2-.4-2.3-.4s-3.5.2-2.2.4m11.5 0c2.6.2 6.7.2 9 0s.2-.3-4.8-.3c-4.9 0-6.8.1-4.2.3m19.5 0c.7.3 1.6.2 1.9-.1.4-.3-.2-.6-1.3-.5-1.1 0-1.4.3-.6.6m10.5 0c.9.2 2.3.2 3 0 .6-.3-.1-.5-1.8-.5-1.6 0-2.2.2-1.2.5m12 0c.9.2 2.5.2 3.5 0 .9-.3.1-.5-1.8-.5s-2.7.2-1.7.5m7 0c.9.2 2.5.2 3.5 0 .9-.3.1-.5-1.8-.5s-2.7.2-1.7.5m8 0c1.5.2 3.9.2 5.5 0 1.5-.2.2-.4-2.8-.4s-4.3.2-2.7.4m22.5 0c.7.3 1.6.2 1.9-.1.4-.3-.2-.6-1.3-.5-1.1 0-1.4.3-.6.6"/></svg>