<svg xmlns="http://www.w3.org/2000/svg" viewBox="0 0 3840 2560"><g fill="#CC2936" stroke-width="0"><path d="M1568.6 1072.3c.3 1 .9 1.5 1.2 1.2s0-1.1-.7-1.8c-1-.9-1.1-.8-.5.6m-1.9 3.1c-.4 1-.5 2.1-.2 2.4.9.9 1.7-.6 1.3-2.5-.3-1.7-.4-1.7-1.1.1m4.5 3.6c0 .8.8 3.3 1.9 5.5 1 2.2 1.6 2.9 1.3 1.5-1-3.8-3.2-8.7-3.2-7m-9.1 8.1c-.6 1.8-.9 3.4-.7 3.6s.9-1 1.5-2.8.9-3.4.7-3.6-.9 1-1.5 2.8m4.6 3.9c-.4 4.1-.6 11.6-.5 16.7.2 5 0 8.9-.3 8.7-.7-.4-.4 2.3.6 7.2.5 2.2.2 3.5-1 4.7-1.4 1.4-1.4 1.7-.2 1.7 1.1 0 1.5 1.2 1.5 4.4 0 3.5-.3 4.3-1.4 3.9-.8-.3-1.4 0-1.4.6s.7 1.1 1.5 1.1 1.5.5 1.5 1.1c0 .5-.6.7-1.2.3-.8-.5-.7 0 .2 1.1.8 1 1 1.6.3 1.2-.6-.4-1.5-.2-1.9.4-.4.7-.3.9.4.5.6-.3 1.3-.2 1.6.3s-.1 1.1-.9 1.5c-.8.3-1.5 1.1-1.5 1.8 0 1 .2 1 .9-.1 1.3-2 2.4.5 1.2 2.7-.6 1.1-.7 2.3-.3 2.7 1.1 1.1.9 12.4-.3 11.8-.5-.3-.4 0 .3.8 1.5 1.6 1.6 5 .1 4.6-.6-.1-1.4.4-1.6 1.1-.3.8.1 1 1.1.6.9-.3 1.6-.2 1.6.4 0 .5-.7 1.3-1.6 1.6-1.1.4-1.8-.1-2.1-1.4-.3-1.1-.9-1.7-1.5-1.4-.5.3-.5 1.1.2 1.9.7.9.7 1.5.1 1.9-.5.4-1.4-.2-2-1.1-.6-1-1.1-1.3-1.1-.8 0 2 2.3 3.5 3.6 2.5 1.6-1.4 2.4.8 1.3 3.5-.4 1.1-.8 1.4-.8.6-.1-1-.4-1.1-1.5-.2-1.5 1.2-3.2-.1-2.3-1.7.3-.4-.7-1.6-2.2-2.6-2.6-2-2.6-2-.8 0 1.9 2.2 2.3 3.9.7 2.9-.5-.3-1-.1-1 .4 0 .6.7 1.1 1.5 1.1s1.5.5 1.5 1.1c0 .5-.5.7-1.2.3s-.8-.3-.4.4c.5.9 1.3.9 2.7.2 2.3-1.3 4.9-.2 2.8 1.1-1.1.7-1 .9.4.9 1.6 0 2.1-1 1.8-3.7-.1-.6.2-1.4.7-1.7.4-.2.9 3.1 1 7.4.3 6.6 0 8-1.5 9-1.6 1-1.6 1.1 0 .6 1.5-.5 1.7.2 1.7 6.2 0 3.7-.4 7.4-1 8.2-.6.9-.5 1.7.2 2.1.9.6.8 1.2-.3 2.5-.8 1-.9 1.5-.3 1.1.7-.4 1.1.9 1.2 3.8.2 3.9-.1 4.5-1.8 4.5-1.1 0-2.3-.8-2.7-1.8-.3-.9-2.6-6-5.1-11.2-2.4-5.2-4.5-10.2-4.6-11-.2-2-6.9-15.4-7.8-15.8-.5-.2-.8-1.1-.8-1.9 0-1.3-4.9-8.1-5.1-7.1 0 .2-.2 1-.4 1.9-.1.9-.6 2.6-1 3.8-.4 1.3-.2 2.1.5 2.1.6 0 .8.5.4 1.1-.5.8-.8.8-1.3 0-.5-.7-1.4-.4-2.9.9-2.3 2.2-3.2 2.5-3.2 1 0-.5 1.2-1.6 2.6-2.3 1.7-.9 2.3-1.7 1.5-2.1-.6-.4-1.1-.2-1.1.3 0 .6-.4 1.1-.9 1.1s-.8-.8-.6-1.8c.1-.9.8-1.6 1.5-1.4.6.1.9-.2.5-.8-.5-.8-1.1-.8-2.1.1-.7.6-1.1 1.5-.8 2s-.3.9-1.3.9c-1.5 0-1.6.2-.3 1 1.1.7 1.1 1 .2 1-.7 0-1 .5-.6 1.2.4.6.3.8-.4.4-.6-.3-.9-1.5-.7-2.6s-.4-2.4-1.3-3c-1-.5-1.2-1-.4-1 .6 0 1.2-.7 1.2-1.6 0-.8-.4-1.3-.9-1-.5.4-1.1.2-1.3-.4s-.9-.6-1.8 0c-1.2.7-1.2 1.2-.2 2.2.6.6 1.2 1.6 1.2 2.2 0 .5-.6.1-1.4-.9-.7-1-2.3-1.9-3.5-2-3-.2-2.6 1.3.6 2.1l2.7.7-2.3.9c-2 .7-2.2 1-1 2.5.8.9.9 1.4.2 1-.6-.4-1.4-.1-1.6.5-.3.8-.6.5-.6-.5-.1-1.7-.2-1.7-1.7-.3-3 3-5 1.2-4.5-4.1.1-1.9-.2-3.3-.8-3.3s-1.1-.5-1.1-1.1.6-.9 1.4-.6c1.7.7 1.5-1.8-.2-3.5-.9-.9-1.5-.9-2.4.1-.7.7-.8 1.2-.3 1.1 1.8-.4 3.8 0 3.3.5-1.3 1.3-5.8 1.5-5.8.3 0-.8-.5-.6-1.1.4-.5 1-1.3 1.8-1.7 1.8-1.2 0-6.2-4.7-5.7-5.4.3-.3.2-.4-.1-.1-.4.2-1.6-.1-2.8-.6-1.1-.6.4 1.1 3.4 3.7 3 2.7 9.1 8.3 13.6 12.6 4.4 4.3 8.3 7.8 8.7 7.8s.7-.8.7-1.8c0-1.4.2-1.5 1-.2.5.9.5 1.7 0 2s8.1 8.7 19.2 18.5c11 9.9 21.5 19.2 23.2 20.8l3.1 2.7.5-2.2c.3-1.3.3-35.6 0-76.3-.3-42.8-.8-70.8-1.3-66.5m-57.2 87.6c0 .5.4 1.5.8 2.1 1.4 2.2-.7 1.4-3.6-1.3-3.2-2.9-2.7-5.3.6-3.1 1.2.8 2.2 1.8 2.2 2.3m57-2.6c.3.5.1 1-.4 1-.6 0-1.1-.5-1.1-1 0-.6.2-1 .4-1 .3 0 .8.4 1.1 1m-24.5 3.9c0 .4-.6.8-1.3.8-.8 0-1.4-.6-1.4-1.3s.6-1 1.4-.7c.7.3 1.3.8 1.3 1.2m-18 3.1c0-.8.2-1.1.5-.8.8.8-.6 3.8-1.8 3.8-.6 0-.7-.3-.4-.7.4-.3.1-1.3-.6-2.2-1.1-1.4-1-1.4.6-.2 1.3 1.1 1.7 1.1 1.7.1m-7 3.4c0 .3-.4.8-1 1.1-.5.3-1 .1-1-.4 0-.6.5-1.1 1-1.1.6 0 1 .2 1 .4m3 1.1c-.7.8-1.7 1.5-2.3 1.5s-.2-.7.9-1.5c2.5-1.9 3-1.9 1.4 0m16.7.7c-.3.8-.6.5-.6-.6-.1-1.1.2-1.7.5-1.3.3.3.4 1.2.1 1.9m-6.2 2.8c.3.6-.1.7-.9.4-1.8-.7-2.1-1.4-.7-1.4.6 0 1.3.4 1.6 1m36.2 37.2c-.3.8-.6.5-.6-.6-.1-1.1.2-1.7.5-1.3.3.3.4 1.2.1 1.9m8.3-137.3c0 .5.5 1.3 1 1.6.6.3 1 .2 1-.4 0-.5-.4-1.3-1-1.6-.5-.3-1-.2-1 .4"/><path d="M1557.2 1099.5c-1.2 3.2-2.1 5.9-1.9 6.1.7.7 4.9-9.4 4.5-10.6-.2-.7-1.4 1.3-2.6 4.5m53.8 6.5c-.9.6-1 1-.3 1 .6 0 1.5-.5 1.8-1 .8-1.2.4-1.2-1.5 0m-84 1.5c.7.9 2.7 2.3 4.4 3.1s5.1 2.5 7.6 3.9c5.2 2.8 8 3.4 3.5.7-8.4-5-16.7-9.2-15.5-7.7m79 1.5c-1.3.8-1.2 1 .3 1 .9 0 1.7-.5 1.7-1 0-1.2-.1-1.2-2 0m8.6.5c-.3.9-.6 2.2-.5 2.8 0 .7.5.1 1-1.2s.8-2.6.5-2.8c-.2-.2-.6.3-1 1.2m-92 3c.4 1.6 1.1 3.7 1.5 4.5.6 1 .7.4.3-1.5-.4-1.7-1.1-3.7-1.5-4.5-.6-1-.7-.4-.3 1.5m29.9 2.6c-.4.6-.5 1.2-.2 1.5.2.3.7-.2 1-1.1.7-1.7.1-2-.8-.4m-27.4 5.2c0 1 1 5.2 2.4 9.5 6.9 21.7 12.5 40 13.1 42.9.7 3.3 3.4 4.7 3.4 1.7 0-.8-.4-1.3-.8-1-.4.2-1.4-1.6-2.1-4.2s-1.7-5.5-2.2-6.4c-.5-1-.9-2.6-.9-3.5 0-1-.6-2.9-1.3-4.3s-1.3-4.3-1.2-6.5c0-2.2-.5-4.5-1.1-5-1.3-1.1-5.1-13.1-6.1-18.7-.3-2.1-.9-3.5-1.3-3.3-.5.3-1.1-.3-1.3-1.2-.4-1.7-.5-1.7-.6 0m86 1.3c0 1.1.3 1.4.6.6.3-.7.2-1.6-.1-1.9-.3-.4-.6.2-.5 1.3m-64.1 3.4c-.7 1.2-1.6 1.7-2.8 1.3-1.3-.4-1.4-.3-.6.6 1.4 1.5 4.1.4 4.7-2 .7-2.5.1-2.4-1.3.1m2.7 1.7c.3.7.9 1 1.4.7 1.4-.8 1.1-2.1-.5-2.1-.8 0-1.2.6-.9 1.4m13.3-.8c0 .6.4 1.3 1 1.6s.7-.1.4-.9c-.7-1.8-1.4-2.1-1.4-.7m-15.4 5.3c-.9 3.4-.7 4.5.4 2.8.8-1.3 1-1.2 1 .2 0 1 .4 1.8.9 1.8 1.2 0 2.5-3.9 1.7-4.7-.3-.4-.6.2-.6 1.3-.1 1.8-.1 1.8-1.1.1-.5-.9-.7-2.2-.4-2.7.3-.6.2-1-.3-1s-1.2 1-1.6 2.2m10.4 2.2c0 .2.9.6 2 .9s1.8.1 1.4-.4c-.5-.9-3.4-1.3-3.4-.5m-8.6 4.7c-.3.6-.1 1.5.6 1.9 1 .6.9.9-.1 1.3s-.9.6.4.6c.9.1 1.7-.6 1.7-1.4s-.6-1.5-1.2-1.5c-.9 0-.8-.4.2-1 .9-.6 1-1 .3-1-.6 0-1.5.5-1.9 1.1m-2.9 1.8c-.3.5-.1 1.2.5 1.6.5.3 1-.1 1-.9 0-1.8-.6-2.1-1.5-.7m11.7 1.7c-.7.8-1.8 1.1-2.4.8-.7-.5-.8-.2-.4.5.5.7 1.1 1 1.4.7s1.5.2 2.6 1.1c1.2 1 1.6 1.1.9.4-1-1.1-.9-1.7.5-2.8.9-.8 1.2-1.2.5-.9-.6.4-1.3.2-1.5-.3-.1-.5-.9-.3-1.6.5m-13.2 1.9c0 .7.5 1.7 1 2 .6.4.8 1 .5 1.5-.9 1.5 1.2 2 3.7 1 2.1-1 2.1-1 .1-.6-2.1.4-3.9-1.7-2.8-3.4.3-.4-.2-1-1-1.4-.9-.3-1.5 0-1.5.9m-39 .7c1 1.4 22 22.7 22 22.3 0-.2 1.8 1.5 4 3.8s4 3.7 4 3.1-4.4-5.3-9.7-10.4c-12.1-11.5-20.9-19.7-20.3-18.8"/><path d="M1550 1145c-.9.6-1 1-.3 1 .6 0 1.5-.5 1.8-1 .8-1.2.4-1.2-1.5 0m80.5 0c-.3.5-.1 1 .4 1 .6 0 1.1-.5 1.1-1 0-.6-.2-1-.4-1-.3 0-.8.4-1.1 1m3.3 1.7c.5 2.1.7 2.3 1 .9.2-1 0-2.2-.6-2.8s-.7 0-.4 1.9m-130.7.8c-.1 1.1-.4 3.1-.6 4.5l-.6 2.5 1.1-2.5c.6-1.3.9-3.3.7-4.5-.4-1.9-.4-1.9-.6 0m55.4.5c-.3.5-.1 1 .4 1 .6 0 1.1-.5 1.1-1 0-.6-.2-1-.4-1-.3 0-.8.4-1.1 1m-14.2 2.4c0 .8 1.1 1.3 2.6 1.3 2.3 0 2.4 0 .6-1.3-1-.8-2.2-1.4-2.5-1.4-.4 0-.7.6-.7 1.4m6.4-.7c-.4.3-.7 1.1-.7 1.7s.5.5 1.2-.2c.6-.6.9-1.4.7-1.7-.3-.3-.9-.2-1.2.2m74.8.4c-.4.6-.5 1.2-.2 1.5.2.3.7-.2 1-1.1.7-1.7.1-2-.8-.4m-67 .8c-.3.5-.2 1.2.3 1.5s.9-.1.9-.9c0-1.7-.3-1.9-1.2-.6m76.7 1.6c0 1.6.2 2.2.5 1.2.2-.9.2-2.3 0-3-.3-.6-.5.1-.5 1.8m32.6.2c.6.2 1.8.2 2.5 0 .6-.3.1-.5-1.3-.5s-1.9.2-1.2.5m-193.8 1.2c.8.5 3.1 1.1 5 1.5 2.4.4 2.8.3 1.5-.2-3.1-1.4-8.3-2.4-6.5-1.3m186.8.8c.7.3 1.6.2 1.9-.1.4-.3-.2-.6-1.3-.5-1.1 0-1.4.3-.6.6m-102.4 2.3c0 1 .2 1.7.5 1.5.2-.3 1.1.1 1.9.8 1.1.9 1.1.4-.2-1.6-2.2-3.2-2.2-3.2-2.2-.7m3-.8c-.3.4.5.5 1.7.3 3-.6 3.6-1.4.9-1.2-1.2.1-2.4.5-2.6.9m86.9 1.1c-7.9 2.1-12.9 4.3-6.1 2.7 7-1.6 16.3-4.2 16.7-4.6.8-.8-2.5-.2-10.6 1.9m-164.5-.6c.7.3 1.6.2 1.9-.1.4-.3-.2-.6-1.3-.5-1.1 0-1.4.3-.6.6m183.8.8c-.9 2.6-.7 3.2.5 1.2.6-1 .9-2.1.6-2.3-.2-.3-.7.2-1.1 1.1m-117.6 1.4c0 .6.4 1.3 1 1.6s.7-.1.4-.9c-.7-1.8-1.4-2.1-1.4-.7m-56.5 1.1c-.3.5.1 1 .9 1 .9 0 1.6-.5 1.6-1 0-.6-.4-1-.9-1-.6 0-1.3.4-1.6 1m-20.5 2.6c0 .6.7 1.9 1.6 3 1.4 1.8 1.4 1.8.3-.6-1.4-3.1-1.9-3.6-1.9-2.4m85.7 2.3c-.4 1.7-.3 2.1.5 1.3.5-.5.8-1.6.6-2.3-.3-.8-.7-.3-1.1 1m104.7 1.7c-.4 1-1.3 3.4-2.1 5.3-.7 1.9-1.2 3.6-1 3.8s1.4-2 2.6-4.8c1.2-2.9 1.9-5.4 1.6-5.7-.2-.3-.8.4-1.1 1.4m-55.7 1.1c-.4.3-.7 1.1-.7 1.7s.5.5 1.2-.2c.6-.6.9-1.4.7-1.7-.3-.3-.9-.2-1.2.2m-131.5 3c1.7 4.1 3 5.3 1.7 1.5-.6-1.8-1.5-3.5-2-3.8s-.4.7.3 2.3m81.3-1.7c-.3.6.1.7.9.4 1.8-.7 2.1-1.4.7-1.4-.6 0-1.3.4-1.6 1m88.3.2c-.7.7-3.2 3-5.6 5-2.3 2.1-3.9 3.8-3.5 3.8 1 0 12-9.9 11.1-10-.4 0-1.3.6-2 1.2m-145.8 2.2c0 .2.8 1 1.8 1.7 1.5 1.3 1.6 1.2.3-.4s-2.1-2.1-2.1-1.3m14.1 1.3c.8.9 1.3 2.4 1.1 3.4-.2.9.1 2 .7 2.3.5.4.7-.3.3-1.6-.4-1.6-.2-1.9.9-1.3.8.5.3-.4-1-1.8-2.7-2.9-4.2-3.7-2-1m4.7-.3c.5 1.1 1.7 2.1 2.6 2.2s1.3-.2 1-.8c-.3-.5-.8-.7-1.2-.4-.3.3-1.1-.2-1.9-1.2-1.3-1.6-1.4-1.6-.5.2m8.4.6c0 1.4.2 1.9.5 1.2.2-.6.2-1.8 0-2.5-.3-.6-.5-.1-.5 1.3m2.9 2.6c0 1.1.3 1.4.6.6.3-.7.2-1.6-.1-1.9-.3-.4-.6.2-.5 1.3m69.6.1c-.4.3-.7 1.3-.7 2.2.1 1.3.3 1.3 1.1-.2 1.1-1.9.8-3.3-.4-2m-70.2 3.4c-.4.6-.5 1.2-.2 1.5.2.3.7-.2 1-1.1.7-1.7.1-2-.8-.4m-16 1.8c-.3.6-.3 1.1.2 1.1.4 0 .1.5-.7 1-1 .7-1.1 1-.2 1 .7 0 1.5-.7 1.9-1.5.7-1.9-.2-3.1-1.2-1.6m83.5.9c0 1.2.3 1.2 1.5.2.8-.7 1.5-1.3 1.5-1.5 0-.1-.7-.2-1.5-.2s-1.5.7-1.5 1.5m-3 3.3c0 .5-1.2 3.6-2.6 6.7-1.5 3.1-5.1 11.1-8.1 17.7-7.2 16-10.6 22.5-11.5 22.5-.4 0-1.2.9-1.8 2-2.1 4 1 2 9.2-5.9 4.6-4.4 9.7-9 11.3-10.2 3.9-3 23.5-20.2 23.5-20.6 0-.8-7.3 3.7-8.3 5.1-1.2 1.6-6.2 3.2-5.3 1.7.7-1.1-4.3-3.3-5.5-2.5-.5.3-.7 1.5-.3 2.6.4 1.5.3 1.8-.6 1.3s-1.1-.4-.6.4c.4.6 1.1.9 1.6.6.4-.3 1 .1 1.3.7.3 1 .9 1 2.8-.1 2.3-1.3 2.3-1.2.7.5-1.4 1.4-2.2 1.6-4.2.6-2.9-1.3-4.2-.1-2.7 2.6.9 1.6.6 1.9-2.4 1.9-2.3 0-3.5-.6-3.8-1.7-.2-.9.2-1.7.9-1.7s1.2.5 1.1 1.1c-.1.5.6 1.2 1.6 1.4.9.2 1.7-.1 1.7-.7s-.4-1.1-.9-1.1-1.2-.7-1.5-1.6c-.4-1.1-.2-1.5.8-1.1.9.4 1.6-.3 1.9-1.9.2-1.3 0-2.4-.4-2.4-.5 0-.9-.5-.9-1.2 0-.6.3-.8.7-.5.3.4 1.5-.5 2.5-2 1.5-2.4 1.8-2.5 1.8-.8s.2 1.7 1 .5c.8-1.3 1-1.3 1-.1 0 2.5 2.4-.6 2.5-3.2.1-1.8-.4-2.3-2.2-2.3-1.3 0-2.3.6-2.3 1.4 0 .7-.4 1-1 .7-1.2-.8-.8-4.1.8-5.7 1.4-1.4 1.6-3.2.3-2.4-.5.4-.7-.3-.4-1.4s0-2-.6-2-1.1.5-1.1 1.1m5 10.5c0 .8-.5 1.2-1 .9-.6-.4-.8-1.1-.5-1.6.9-1.4 1.5-1.1 1.5.7m-5 2.8c0 .3-.4.8-1 1.1-.5.3-1 .1-1-.4 0-.6.5-1.1 1-1.1.6 0 1 .2 1 .4m2.4 4.8c-.5.8-.2.9.9.5 1.9-.7 2.1.1.8 2.2-.7 1.1-1.1 1-2-.7-1.4-2.6-1.4-3.2 0-3.2.5 0 .7.5.3 1.2m-5.4 1.8c0 .5-.7 1-1.6 1-.8 0-1.2-.5-.9-1 .3-.6 1-1 1.6-1 .5 0 .9.4.9 1m32.7-16.5c-2.7 2.5-5.5 4.5-6.2 4.5s-1.6.7-1.9 1.6c-1 2.5-.8 2.5 2.1.1 4.5-3.6 11.8-10.7 11.3-10.7-.3 0-2.7 2-5.3 4.5m-331.6.7c.2 2.7.3 2.8.6.8l.4-2.5 56.7.1c31.2.1 57.4-.2 58.2-.7s-24.9-.9-57.2-.9H1292zm118.9-2.5c-.1.5-.2 6.9-.3 14.3l-.2 13.5-20.5.1c-22.7.1-23 .1-23 1.1 0 .5 10.1.7 22.5.5l22.5-.3V1201c0-8.3-.2-15-.5-15s-.5.3-.5.7"/><path d="M1598.5 1190c-.3.5-.1 1 .4 1 .6 0 1.1-.5 1.1-1 0-.6-.2-1-.4-1-.3 0-.8.4-1.1 1m72.2 3.1c.7.7 1.5 1 1.8.7s-.2-.9-1.2-1.2c-1.4-.6-1.5-.5-.6.5m-207.7 2.8c0 .5.7 1.2 1.6 1.5 1.4.5 1.5.4.4-.9-1.4-1.7-2-1.9-2-.6m139 .6c-.8 4.5-.8 4.7.2 3.7.5-.5.8-1.8.5-2.8-.3-1.1-.6-1.5-.7-.9m3.8.2c.7.3 1.6.2 1.9-.1.4-.3-.2-.6-1.3-.5-1.1 0-1.4.3-.6.6m61.9 2.8c-4.9 3.4-4.7 4.2.3 1.4 2.2-1.3 4-2.6 4-3.1 0-1.1-.1-1.1-4.3 1.7m-64.7 2.5c-.8.5-1.2 1.2-.9 1.5.4.3 1.2-.1 1.9-1 1.4-1.7 1.1-1.9-1-.5m-38.8 1.2c-.7.7-1.2 1.6-1.2 2.1s.7.1 1.6-.8 1.4-1.8 1.2-2c-.2-.3-1 .1-1.6.7m-88.2.2c0 .2.7.7 1.6 1 .8.3 1.2.2.9-.4-.6-1-2.5-1.4-2.5-.6m173.5 7.6c-.3.6.1.7.9.4 1.8-.7 2.1-1.4.7-1.4-.6 0-1.3.4-1.6 1m-3 1c-.3.5-.1 1 .4 1 .6 0 1.1-.5 1.1-1 0-.6-.2-1-.4-1-.3 0-.8.4-1.1 1m-4.1 2.4c-1 .8-1.7 1.6-1.4 1.9.3.2 1.4-.4 2.4-1.4 2.3-2.2 1.8-2.5-1-.5m-350.4.8c0 .4 10 .8 22.2.8s21.8-.3 21.4-.8c-1-1-43.6-1-43.6 0m74.7 5c-1 4.5-.8 129.8.3 129.8.7 0 1-22.2 1-66 0-36.3-.2-66-.4-66s-.6 1-.9 2.2m-29.5 3.8c0 1.9.2 2.7.5 1.7.2-.9.2-2.5 0-3.5-.3-.9-.5-.1-.5 1.8m292.7-1.3c-1.3 1.7-1.3 1.7.6.3 1.1-.8 2.2-1.6 2.4-1.7q.3-.3-.6-.3c-.6 0-1.7.8-2.4 1.7m-293.3 7.9c-.9 2.5-.7 10.2.3 10.9.6.3 1-2.2 1-6 0-6.7-.3-7.6-1.3-4.9m271.1 5c-1.6.9-2.7 1.8-2.4 2 .3.3 2-.4 3.8-1.5 3.9-2.4 2.8-2.8-1.4-.5m-43.4 2c.3.3 2.8.8 5.4 1 3.3.2 4.3.1 3.3-.6-1.6-1-9.7-1.4-8.7-.4m-30.1 6.9c0 1.6.2 2.2.5 1.2.2-.9.2-2.3 0-3-.3-.6-.5.1-.5 1.8m60.3-.6c1.1.4 3.4 1.1 5 1.4l3 .6-3-1.4c-1.6-.8-3.9-1.4-5-1.4h-2zm-46.2 3.7-2.8 2.6 3.3-2.2c2.9-2 3.9-3 2.8-3-.3 0-1.8 1.2-3.3 2.6m-211.7.9c-.3.8-.1 1.5.4 1.5.6 0 1-.7 1-1.5s-.2-1.5-.4-1.5-.6.7-1 1.5m-.4 6.9c.1 1.4.6 2.2 1 2 1.2-.7 1-4.4-.2-4.4-.5 0-.9 1.1-.8 2.4m140.8 2.3c7.6.3 11.7.8 12.2 1.6s.8.7.8-.6c0-1.5-1.2-1.7-12.2-1.5l-12.3.2zm25 .3c0 .5.7 1 1.5 1s1.5-.5 1.5-1c0-.6-.7-1-1.5-1s-1.5.4-1.5 1m10.8-.3c2.8.2 7.6.2 10.5 0 2.8-.2.5-.3-5.3-.3s-8.1.1-5.2.3m61.1 1.5c-1.1 2.2-1.1 2.2.7.6 1.6-1.4 4.4-1.8 13.9-2.1l12-.3-12.7-.2c-12.3-.2-12.8-.1-13.9 2m31.9-1.4c.9.6-.1 2.1-3.7 5.5-2.8 2.6-4.8 4.7-4.6 4.7.6 0-2.2 3.4-5.1 6.4-1.1 1.1-3.1 3.7-4.4 5.6s-1.6 2.8-.8 2c3-3.1 20.8-23.9 20.8-24.4 0-.4-.8-.6-1.7-.6-1.3 0-1.5.2-.5.8m-269.1 3.9c-.4.3-.7 3.3-.7 6.6s.3 5.7.6 5.4c.5-.5 1.3-12.7.8-12.7 0 0-.4.3-.7.7m68.8.3c-.3.6.1.7.9.4 1.8-.7 2.1-1.4.7-1.4-.6 0-1.3.4-1.6 1m100.1 0c1.3 2.5 5.8 8 6.7 8 .4 0-.4-1.3-1.8-2.8-1.4-1.6-3.2-3.7-4.1-4.8-.9-1-1.2-1.2-.8-.4m-16.7 43.7c-.1 23-.1 42.1 0 42.5 0 .5-.9.8-2.1.8-2.6 0-1.9.9 1.1 1.5l2.1.4v-43.5c0-23.9-.2-43.4-.5-43.4s-.6 18.8-.6 41.7m52.1-37.7c1.7 2.2 3.4 4 3.7 4 .2 0-1-1.8-2.7-4s-3.4-4-3.7-4c-.2 0 1 1.8 2.7 4m26.7-1.4c-1 1.3-1.4 2.4-1 2.4.9 0 3.6-4 3.1-4.5-.2-.2-1.1.8-2.1 2.1m-169.4.6c-1.7 2.3-2.5 4.4-.9 2.4.9-1.1 2.2-2.3 2.8-2.8.9-.5.9-.8.2-.8-.6 0-1.6.6-2.1 1.2m114.7 4.7c0 .6.4 1.3 1 1.6s.7-.1.4-.9c-.7-1.8-1.4-2.1-1.4-.7m-177 5.8c0 .5.5 1.5 1 2.3.7 1.2.9 1 .7-.8-.1-1.9-1.7-3.3-1.7-1.5m222 .8c-.8.9-.8 1.5-.2 1.5 1.2 0 2.6-1.9 1.9-2.6-.2-.2-1 .2-1.7 1.1m-112.2.2c.7.3 1.6.2 1.9-.1.4-.3-.2-.6-1.3-.5-1.1 0-1.4.3-.6.6m-109.8 7.7c0 .8.4 1.7.9 2.1.6.3.9-.4.8-1.5-.1-2.3-1.7-2.8-1.7-.6m244.6 2.4c-2.2 2.7-2.4 3.2-.7 1.7 2-1.7 4.7-5.5 3.9-5.5-.2 0-1.6 1.7-3.2 3.8m-120 2.2c2.2 4.5 2.8 5.2 1.9 2-.4-1.4-1.4-3.2-2.2-4-1-1.1-.9-.5.3 2m65.4-2c0 .5.5 1 1.1 1 .5 0 .7-.5.4-1-.3-.6-.8-1-1.1-1-.2 0-.4.4-.4 1m-189.7 5.5c0 .8.4 1.5.9 1.5.4 0 .8-.7.8-1.5s-.4-1.5-.8-1.5c-.5 0-.9.7-.9 1.5m238.4-.1c-.4 1-.1 1.3.8.9.8-.3 1.2-.9.9-1.4-.7-1.2-1.1-1.1-1.7.5m-191.4 8.6c0 4.1.2 5.8.4 3.7.2-2 .2-5.4 0-7.5-.2-2-.4-.3-.4 3.8m79.8-5.4c0 1.1.3 1.4.6.6.3-.7.2-1.6-.1-1.9-.3-.4-.6.2-.5 1.3m-54.8 5.4c0 3 .2 4.3.4 2.7.2-1.5.2-3.9 0-5.5-.2-1.5-.4-.2-.4 2.8m163.7.5c0 .4.9 1.8 2 3.2s2 2.2 2 1.8-.9-1.8-2-3.2-2-2.2-2-1.8m-236 5.7c0 1.5.5 3 1 3.3 1.3.8 1.3-2.5 0-4.5-.8-1.2-1-.9-1 1.2m195.9.5c-1.3 1.6-1.2 1.7.4.4s2.1-2.1 1.3-2.1c-.2 0-1 .8-1.7 1.7m46.9 1.8c.6 1.1 2.5 3.3 4.4 5l3.3 3-3.5-4c-1.9-2.2-3.9-4.5-4.4-5-.5-.6-.4-.1.2 1m-52.2 5.2c-.6 1.4-.5 1.5.5.6.7-.7 1-1.5.7-1.8s-.9.2-1.2 1.2m-190.5 7.2c.1 4 .5 6.7.9 6 .9-1.8.7-11.6-.3-12.6-.4-.4-.7 2.6-.6 6.6m48.9-4.9c0 .5.5 1 1.1 1 .5 0 .7-.5.4-1-.3-.6-.8-1-1.1-1-.2 0-.4.4-.4 1m68.4 7.2-1.9 2.3 2.3-1.9c2.1-1.8 2.7-2.6 1.9-2.6-.2 0-1.2 1-2.3 2.2m62.7 2.8c-1.7 2.2-2.8 4-2.4 4 .8 0 6.8-8 6-8-.2 0-1.8 1.8-3.6 4m42.6-1.9c.4 1.3.8 1.8 1.1 1 .2-.7-.1-1.8-.6-2.3-.8-.8-.9-.4-.5 1.3m34.3 1.3c0 .2.8 1 1.8 1.7 1.5 1.3 1.6 1.2.3-.4s-2.1-2.1-2.1-1.3m-168 1.6c.8.5 2.2.9 3 .9 1 0 .8-.3-.5-.9-2.7-1.2-4.3-1.2-2.5 0m7.3 1.7c1.5.2 3.9.2 5.5 0 1.5-.2.2-.4-2.8-.4s-4.3.2-2.7.4m-39.4 2c1.1 2.1 8 8.2 11.1 9.7.8.5-.1-.5-2-2-1.9-1.6-5-4.4-6.9-6.4-2.1-2.2-2.9-2.7-2.2-1.3m204.8.8c1 1.3 2.5 2.7 3.3 3 .8.4.2-.8-1.4-2.4-3.6-3.7-4.3-4-1.9-.6m-261.3 5c.3 8.6 1.6 9.6 1.6 1.2 0-3.6-.4-6.8-.9-7.1s-.8 2.3-.7 5.9m201 1.4-5.9 8-11.5.2c-6.3.1-13.6.2-16.2.2-2.7 0-4.8.3-4.8.7 0 .5 7.3.7 16.3.4l16.2-.3 5.3-6.8c5.4-6.9 7.6-10.3 6.8-10.3-.2 0-3 3.6-6.2 7.9m-26.8-5.2c-.6 1.4-.5 1.5.5.6.7-.7 1-1.5.7-1.8s-.9.2-1.2 1.2m55.1.3c.7 2.5 2.3 3.7 2.3 1.7 0-.8-.6-2-1.4-2.6-1.2-1-1.3-.8-.9.9m40.3 7.7 4.2 5.3-10.9.1c-17.1.3-19.1.4-19.9 1.2-.4.4 6.8.7 15.9.7 9.2 0 16.7-.3 16.7-.8 0-.4-2.3-3.2-5.1-6.2l-5.1-5.5zm-100.6-1.5-1.9 2.3 2.3-1.9c2.1-1.8 2.7-2.6 1.9-2.6-.2 0-1.2 1-2.3 2.2m-47.9.8c-1 1.1-1.5 2-1.1 2 1.1 0 3.9-3 3.4-3.6-.3-.2-1.3.5-2.3 1.6m116.2 3.6c.9 1.5 1.9 2.1 2.1 1.5.4-1.3-1.6-4.1-2.9-4.1-.5 0-.2 1.2.8 2.6m-165.3-.2c3 2.4 14.6 5.6 19.5 5.5 4.5-.2 4.4-.2-1.4-.9-3.3-.4-9.1-1.9-13-3.4-3.8-1.4-6.2-1.9-5.1-1.2m41.1 1.1c-2.7 1.3-4.4 2.4-3.7 2.5 1.4 0 9.2-3.8 9.2-4.5s.2-.7-5.5 2m-113.2 1.7c-.2.5 5.6.7 12.9.6 13.6-.2 12.2-.6-3.5-1-4.9-.2-9.1 0-9.4.4m132.5.5c.7.3 1.6.2 1.9-.1.4-.3-.2-.6-1.3-.5-1.1 0-1.4.3-.6.6m4.2-.1c3.4.7 11 .9 11 .2 0-.5-2.8-.7-6.2-.7-3.5.1-5.6.3-4.8.5m-37.2 2.1c1.2.2 3 .2 4 0 .9-.3-.1-.5-2.3-.4-2.2 0-3 .2-1.7.4"/></g><g fill="#CC2936" stroke-width="0"><path d="M1568.1 1074.7c-.1 1.8-.6 3.3-1.2 3.3-.5 0-.7.4-.4 1 .3.5.2 1-.3 1s-1.5 2-2.2 4.5c-.7 2.4-1.6 4.2-2.1 3.9s-.6.2-.3 1c.3.9.1 1.6-.5 1.6s-1.1 1.4-1.1 3.1c0 1.6-1.8 6.5-3.9 10.7-2.2 4.2-4.3 8.9-4.6 10.5-.4 1.5-1.1 2.9-1.5 3.2-1 .6-10.7-3.3-15-6.2-1.9-1.3-3.9-2.3-4.4-2.3-.4 0-2.4-1.4-4.3-3-5.3-4.7-8.2-3.8-4.7 1.5.9 1.3 1.2 3 .8 3.6-.4.8-.3.9.4.5 1.1-.7 1.6 1.2 1.5 5.1-.1.7.3 1.3.8 1.3s.9.7.9 1.6c0 .8.4 1.3.9 1s1.1 1.1 1.4 3.2c1 5.6 4.8 17.6 6.1 18.7.6.5 1.1 2.8 1.1 5-.1 2.2.5 5.1 1.2 6.5s1.3 3.5 1.3 4.7.5 2.5 1.1 2.9c.6.3.9 1.9.7 3.5-.3 1.5-.1 2.6.4 2.3.4-.3 1.1.8 1.4 2.5.4 1.7 1 2.8 1.5 2.5s.9.2.9 1c0 1-.9 1.6-2.2 1.6h-2.1l2.1 2.3c1.2 1.3 2.2 3 2.2 3.9s.3 1.8.8 2c.9.4 7.6 13.8 7.8 15.8.1.8 2.2 5.8 4.6 11 2.5 5.2 4.8 10.3 5.1 11.2.4 1 1.6 1.8 2.7 1.8 1.7 0 2-.6 1.8-4.5-.1-2.9-.5-4.2-1.2-3.8-.6.4-.5-.1.3-1.1 1.1-1.3 1.2-1.9.3-2.5-.7-.4-.8-1.2-.2-2.1.6-.8 1-4.5 1-8.2 0-6-.2-6.7-1.7-6.2-1.6.5-1.6.4 0-.6 1.5-1 1.8-2.4 1.5-9-.1-4.3-.6-7.6-1-7.4-.5.3-.8 1.1-.7 1.7.3 2.7-.2 3.7-1.8 3.7-1.4 0-1.5-.2-.4-.9 2.1-1.3-.5-2.4-2.8-1.1-1.4.7-2.2.7-2.7-.2-.4-.7-.3-.8.4-.4s1.2.2 1.2-.3c0-.6-.7-1.1-1.5-1.1s-1.5-.5-1.5-1.1c0-.5.5-.7 1-.4 1.6 1 1.2-.7-.7-2.9-1.8-2-1.8-2 .8 0 1.5 1 2.5 2.2 2.2 2.6-.9 1.6.8 2.9 2.3 1.7 1.1-.9 1.4-.8 1.5.2 0 .8.4.5.8-.6 1.1-2.7.3-4.9-1.3-3.5-1.3 1-3.6-.5-3.6-2.5 0-.5.5-.2 1.1.8.6.9 1.5 1.5 2 1.1.6-.4.6-1-.1-1.9-.7-.8-.7-1.6-.2-1.9.6-.3 1.2.3 1.5 1.4.3 1.3 1 1.8 2.1 1.4.9-.3 1.6-1.1 1.6-1.6 0-.6-.7-.7-1.6-.4-1 .4-1.4.2-1.1-.6.2-.7 1-1.2 1.6-1.1 1.5.4 1.4-3-.1-4.6-.7-.8-.8-1.1-.3-.8 1.2.6 1.4-10.7.3-11.8-.4-.4-.3-1.6.3-2.7 1.2-2.2.1-4.7-1.2-2.7-.7 1.1-.9 1.1-.9.1 0-.7.7-1.5 1.5-1.8.8-.4 1.2-1 .9-1.5s-1-.6-1.6-.3c-.7.4-.8.2-.4-.5.4-.6 1.3-.8 1.9-.4.7.4.5-.2-.3-1.2-.9-1.1-1-1.6-.2-1.1.6.4 1.2.2 1.2-.3 0-.6-.7-1.1-1.5-1.1s-1.5-.5-1.5-1.1.6-.9 1.4-.6c1.1.4 1.4-.4 1.4-3.9 0-3.2-.4-4.4-1.5-4.4-1.2 0-1.2-.3.2-1.7 1.2-1.2 1.5-2.5 1-4.7-1-4.9-1.3-7.6-.6-7.2.3.2.5-3.7.3-8.7-.1-5.1.1-12.6.5-16.7.5-4.3 1 23.7 1.3 66.5.3 40.7.3 75 0 76.3l-.5 2.2-3.1-2.7c-1.7-1.6-12.2-10.9-23.2-20.8-11.1-9.8-19.7-18.2-19.2-18.5s.5-1.1 0-2c-.8-1.3-1-1.2-1 .2 0 1-.3 1.8-.7 1.8s-4.3-3.5-8.7-7.8c-4.5-4.3-10.6-9.9-13.6-12.6-3-2.6-4.5-4.3-3.4-3.7 1.2.5 2.4.8 2.8.6.3-.3.4-.2.1.1-.5.7 4.5 5.4 5.7 5.4.4 0 1.2-.8 1.7-1.8.6-1 1.1-1.2 1.1-.4 0 1.2 4.5 1 5.8-.3.5-.5-1.5-.9-3.3-.5-.5.1-.4-.4.3-1.1.9-1 1.5-1 2.4-.1 1.7 1.7 1.9 4.2.2 3.5-.8-.3-1.4 0-1.4.6s.5 1.1 1.1 1.1.9 1.4.8 3.3c-.5 5.3 1.5 7.1 4.5 4.1 1.5-1.4 1.6-1.4 1.7.3 0 1 .3 1.3.6.5.2-.6 1-.9 1.6-.5.7.4.6-.1-.2-1-1.2-1.5-1-1.8 1-2.5l2.3-.9-2.7-.7c-3.2-.8-3.6-2.3-.6-2.1 1.2.1 2.8 1 3.5 2 .8 1 1.4 1.4 1.4.9 0-.6-.6-1.6-1.2-2.2-1-1-1-1.5.2-2.2.9-.6 1.6-.6 1.8 0s.8.8 1.3.4c.5-.3.9.2.9 1 0 .9-.6 1.6-1.2 1.6-.8 0-.6.5.4 1 .9.6 1.5 1.9 1.3 3s.1 2.3.7 2.6c.7.4.8.2.4-.4-.4-.7-.1-1.2.6-1.2.9 0 .9-.3-.2-1-1.3-.8-1.2-1 .3-1 1 0 1.6-.4 1.3-.9s.1-1.4.8-2c1-.9 1.6-.9 2.1-.1.4.6.1.9-.5.8-.7-.2-1.4.5-1.5 1.4-.2 1 .1 1.8.6 1.8s.9-.5.9-1.1c0-.5.5-.7 1.1-.3.8.4.2 1.2-1.5 2.1-1.4.7-2.6 1.8-2.6 2.3 0 1.5.9 1.2 3.2-1 1.5-1.3 2.4-1.6 2.9-.9.5.8.8.8 1.3 0 .4-.6.2-1.1-.4-1.1-.7 0-.9-.8-.5-1.9 1.3-4.2 1.4-6.5.3-7.8-.8-1-1.3-1.1-1.8-.3-.4.7-2.1-.5-4.3-3-2.1-2.2-3.7-3.7-3.7-3.4s-2-1.6-4.4-4.2c-2.5-2.6-4.4-5.2-4.3-5.8.1-.5-.5-1.1-1.3-1.1s-1.4-.7-1.2-1.4c.1-.7-.2-1-.6-.7-1 .6-10.2-8.2-10.2-9.6 0-.4-.4-.8-1-.8-.5 0-1 1.5-1 3.4 0 1.8-.6 5.1-1.4 7.2-.7 2.2-1.1 4.4-.9 5s-.3 1.4-1.2 1.7c-.8.4-1.5.2-1.5-.3 0-.6-.7-1-1.5-1s-1.5.4-1.5 1c0 .5-.7 1-1.5 1-.9 0-1.2-.6-.9-1.5.4-1 0-1.5-1.2-1.6-4.2-.1-8.8-1-9.3-1.7-.4-.4-2.1-.8-4-1-1.8-.1-4.6-1-6.2-1.9s-3.1-1.5-3.3-1.2c-.9.8 1.4 7.9 2.5 7.9.6 0 .7.4.4 1-.3.5-.2 1 .4 1 .8 0 1.8 1.8 2.6 5 .1.3.9 2.1 1.7 4 .9 1.9 1.4 3.8 1.2 4.2-.3.5-.1.8.4.8.6 0 1.3 1.6 1.6 3.5.4 2.2 1.1 3.3 1.8 2.9.6-.4.9-.1.6.7-.2.8-2.1 2.3-4.1 3.5-2.1 1.1-3.5 2.3-3.2 2.6.3.2-.2.5-.9.5-1.9 0-10.6 4.6-10.6 5.5s5.2 4.8 6.3 4.8c.4-.1 1.5.6 2.3 1.5.9.8 2.4 1.5 3.4 1.5 1.1 0 2.3.6 2.7 1.3.6 1.1 10.5 7.2 32.5 20.2.9.5 6.1 3.6 11.6 6.8 11.2 6.7 11.9 7.8 12.1 18.8.1 4.5-.3 6.8-1.2 7.1-.6.3-7.3.4-14.7.4-7.4-.1-14 .3-14.6.9-.8.6-.1 2 2.2 4.3 1.9 1.9 3.1 4 2.7 4.6-.3.6-.3.8.1.4 1.2-1 3.4 1.5 2.8 3.1-.3.9-.1 1.2.5.8.7-.4 1.5.3 2 1.7.9 2.6 5.3 8.6 9.8 13.1 1.6 1.6 2.9 3.3 2.7 3.7-.1.4 1.9 2.8 4.4 5.3 2.5 2.6 3.9 4.3 3.2 3.9s-.5.2.6 1.4c1.4 1.7 1.6 2.5.7 3.5-.6.8-.7 1.7-.3 2.1s0 .6-.8.4-1.4.2-1.3.9c.2.7-1.1 2.1-2.7 3.3-1.7 1.2-3 3-3 4s-.5 2.2-1.2 2.6c-.7.5-.8.2-.3-.7 1-1.8 0-.7-5.1 5-2.1 2.5-3.2 4.1-2.5 3.6.8-.5.5.6-.8 2.3-1.2 1.8-2.5 3.2-2.8 3.2s.1-.8.8-1.8c1.3-1.5 1.2-1.6-.3-.4-.9.8-1.4 2-1.1 2.8s-.1 1.4-1.1 1.4c-.9 0-1.6.7-1.6 1.5 0 .9-.7 1.8-1.5 2.1-.8.4-1.2 1-.9 1.5s-.2.9-1 .9-1.8.5-2.2 1.2c-.5.7-.2.8.7.3.8-.4-.5 1.1-2.8 3.4-2.4 2.3-4.3 4.5-4.3 4.9 0 .7 2.6 1 15 1.6l7.5.3-7-.7c-6.6-.6-6.4-.7 4.5-.8l11.5-.2 2.3-3.6c1.3-2 2.7-3.2 3.4-2.8.6.4.8.3.5-.2-.8-1.3.9-3.9 2.5-3.9.7 0 1.2-.8 1-1.6-.1-.9.5-2.3 1.5-3 1.4-1.2 1.6-1.2.8 0-.5 1-.4 1.2.3.7.7-.4 1.2-1.1 1.2-1.6 0-.4 1.3-2.2 3-4 1.6-1.7 2.8-3.7 2.7-4.3s.3-1.1 1-1.2c.6 0 1.5-.3 1.9-.8.4-.4 1.9.5 3.2 2 1.3 1.6 2 2.2 1.6 1.4-.5-.9-.3-1.2.4-.7.7.4 1.2 1.5 1.2 2.4s1.4 3.3 3.1 5.2 2.7 2.8 2.3 2c-.7-1.3-.5-1.3.9-.1.9.7 1.7 2.2 1.7 3.2s1 2.5 2.2 3.3c1.2.9 1.8 1.6 1.3 1.6-.6 0 .1.6 1.5 1.3s2.6 2.3 2.8 3.5c.3 2.1 1.5 2.8 3.7 2.2 1.4-.5 7.5-.7 19.8-.9l10.9-.1-4.3-5.3c-2.3-2.8-4.8-5.7-5.3-6.2-.6-.6-3.6-4.2-6.6-8-2.9-3.9-7.4-9.2-9.9-11.8-2.5-2.7-5-5.7-5.6-6.7-.5-1-1.3-1.8-1.7-1.7-.8.2-4.2-4.2-5.1-6.5-.4-1.1.4-2.9 2.1-5 1.5-1.8 2.1-2.9 1.5-2.5-.9.6-1.1.3-.7-.7.3-.9.9-1.4 1.3-1.1.5.2 2.3-1.6 4.1-4 1.9-2.5 3.7-4.5 4.1-4.5s2.1-2.1 3.7-4.8c1.7-2.6 3.9-5.4 4.9-6.3 2.2-2 5.4-5.9 4.8-5.9-.2 0 1.8-2.1 4.6-4.7 2.7-2.5 4.7-4.9 4.3-5.2-.3-.3-7.2-.4-15.2-.3-11.9.3-15.1.7-16.6 2-1.3 1.1-1.7 1.2-1.1.3.5-1 .4-1.2-.3-.7-.7.4-1.2 1.4-1.2 2.2s-.3 1.4-.8 1.4c-.4 0-1.3 1.3-2 3-.8 1.6-2 3-2.8 3-.9 0-1.3.4-1 .9s-.5 1.6-1.8 2.5c-1.4.8-2.8 2.6-3.1 3.8-.6 1.9-5 6.8-6.2 6.8-.7 0-4.8-4.5-4.6-5.2.1-.3-1.7-2.6-4-5s-5.1-5.4-6.2-6.8c-2-2.4-2-2.5 0-1 1.1.8.5-.4-1.3-2.7-2.9-3.7-3.2-4.5-2-6.1.7-1.1 1.6-2 2.1-2 1.8-.3 6.4-3.2 8.2-5.2 2.5-2.7 6.2-4.9 4.9-2.8-.6.9-.1.8 1.6-.3 1.4-.9 4.6-2.8 7.3-4.3 2.6-1.5 4.4-3.2 4.1-3.7-.8-1.4 6.9-1 9.1.5s15.5 4.6 21.5 5c2.2.2 5 1.1 6.4 2 4 2.6 6 2.1 5.1-1.2-1.5-5-1.2-7.7.8-7.6 1 .1 1.6-.1 1.2-.4-.3-.4 1.6-1.7 4.2-2.9 5.6-2.7 7.1-3.6 13.8-8.3 2.8-1.9 7.1-4.5 9.8-5.8 2.6-1.3 4.7-2.8 4.7-3.3 0-.4 1-1.3 2.1-2 1.5-.7 1.9-.8 1.5 0-.4.7-.1.9.8.5.9-.3 1.4-1.1 1.3-1.7s.3-1.2.8-1.2c2.4-.4 6.5-2.5 6.5-3.5 0-.6.4-.9.9-.6s4.1-1.7 8-4.5c4-2.8 8.2-5.2 9.3-5.4 3.3-.7 4.5-2.3 2.2-3-2.6-.9-7-3.2-12.7-6.8-3.4-2.2-4.6-3.5-4.1-4.6.3-.9.7-2.2.7-2.9 0-.6.4-1.2.9-1.2.4 0 .8-.8.8-1.9 0-2.1 1.7-6.5 6.5-16.6 3.2-6.8 3.2-7 1.3-7.3-1.2-.2-3 .1-4.2.7-2.1 1.1-18.5 5.7-22.1 6.2-2.7.5-4.5-.8-4.5-3.2 0-1-.4-1.9-.9-1.9-.8 0-2.6-9.3-2.2-11.9.1-.7-.2-1-.8-.6-.6.3-1.1 1.3-1.1 2.1s-.5 1.4-1.1 1.4c-1.4 0-4.9 3.9-4.9 5.3 0 .6-.3.8-.6.4-.9-.9-14.4 12.4-13.7 13.6.3.6.1.7-.5.3-.8-.4-1.6.3-2.2 1.9-.5 1.4-1.4 2.4-1.9 2.1-.5-.4-1.8.5-2.9 1.9s-2.3 2.5-2.8 2.5c-.4 0-1.8 1-3.1 2.2-2.2 2.1-2.3 2.1-2 .2.1-1 .6-2.5 1-3.2.5-.7.9-2.6.9-4.2.1-1.7.5-3 1-3s.6-.9.3-2c-.4-1.2-.2-2 .5-2s.9-.8.5-2.1c-.5-1.6-.4-1.9.6-1.4.9.6 1 .3.5-1-.4-1-.2-2.1.5-2.5.6-.4 1.2-1.9 1.2-3.4.1-1.4.6-2.6 1-2.6.5 0 .5-.9.2-2s-.2-2 .3-2 .9-.6 1-1.3c0-.6 1.3-5.3 2.8-10.2 1.5-5 2.6-10 2.6-11.3-.1-1.2.3-2.2 1-2.2.6 0 .9-.3.6-.6-.4-.3 0-1.7.7-3.1s1.1-3.1.8-3.8c-.2-.7.3-2.8 1.2-4.5 1.9-3.6 1.3-5-1.3-3.2-.9.7-2.7 1.6-3.9 2.2-1.3.5-2.3 1.4-2.3 2 0 .5-.8 1-1.8 1s-2.8.7-4 1.6c-1.2.8-2.2 1.2-2.2.9 0-.4-1.3.3-2.9 1.4-1.6 1.2-3.4 2.1-3.9 2.1-.6 0-1.2.4-1.4.9-.1.4-1.3 1.1-2.4 1.5-2 .6-2.5-.1-5-6.6-1.5-4-3.1-7.5-3.6-7.6-.4-.2-.6-.7-.3-1.2.5-.8-1.3-5.9-2.5-7-1.4-1.4-3-5.2-2.5-6 .4-.6 0-1.6-.7-2.4-.8-.7-2-3.3-2.7-5.7s-1.9-5.8-2.6-7.4l-1.4-3zm-14.8 40.8c-.3.9-.8 1.4-1 1.1-.3-.3-.2-.9.2-1.5.9-1.6 1.5-1.3.8.4m-5 9.4c-.6 2.4-3.3 3.5-4.7 2-.8-.9-.7-1 .6-.6 1.2.4 2.1-.1 2.8-1.3 1.4-2.5 2-2.6 1.3-.1m3.7 1.2c0 1.5-1.8 1.9-2.3.6-.3-.8.1-1.4.9-1.4s1.4.4 1.4.8m12.4.5c.3.8.2 1.2-.4.9s-1-1-1-1.6c0-1.4.7-1.1 1.4.7m-14.9 3.4c-.3.5-.1 1.8.4 2.7 1 1.7 1 1.7 1.1-.1 0-1.1.3-1.7.6-1.3.8.8-.5 4.7-1.7 4.7-.5 0-.9-.8-.9-1.8 0-1.4-.2-1.5-1-.2-1.1 1.7-1.3.6-.4-2.8.4-1.2 1.1-2.2 1.6-2.2s.6.4.3 1m11.9 3.9c.4.5-.3.7-1.4.4-2.3-.6-2.6-1.3-.6-1.3.8 0 1.7.4 2 .9m-10.4 4.1c-1 .6-1.1 1-.2 1 .6 0 1.2.7 1.2 1.5s-.8 1.5-1.7 1.4c-1.3 0-1.4-.2-.4-.6s1.1-.7.1-1.3c-1.4-.9-.5-3 1.3-3 .7 0 .6.4-.3 1m-3 2.6c0 .8-.5 1.2-1 .9-.6-.4-.8-1.1-.5-1.6.9-1.4 1.5-1.1 1.5.7m13.3.8c.7-.3.4.1-.5.9-1.4 1.1-1.5 1.7-.5 2.8.7.7.3.6-.9-.4-1.1-.9-2.3-1.4-2.6-1.1s-.9 0-1.4-.7c-.4-.7-.3-1 .4-.5.6.3 1.7 0 2.4-.8s1.5-1 1.6-.5c.2.5.9.7 1.5.3m-13.8 2.6c-1.1 1.7.7 3.8 2.8 3.4 2-.4 2-.4-.1.6-2.5 1-4.6.5-3.7-1 .3-.5.1-1.1-.5-1.5-1.6-1-1.2-3.5.5-2.9.8.4 1.3 1 1 1.4m4 1c-.3.5-1.2 1-1.8 1-.7 0-.6-.4.3-1 1.9-1.2 2.3-1.2 1.5 0m8.5 3c0 .5-.5 1-1.1 1-.5 0-.7-.5-.4-1 .3-.6.8-1 1.1-1 .2 0 .4.4.4 1m-12.5 2.4c1.8 1.3 1.7 1.3-.6 1.3-1.5 0-2.6-.5-2.6-1.3s.3-1.4.7-1.4c.3 0 1.5.6 2.5 1.4m3.7.8c-.7.7-1.2.8-1.2.2 0-1.4 1.2-2.6 1.9-1.9.2.3-.1 1.1-.7 1.7m8.5.3c0 .8-.4 1.2-.9.9s-.6-1-.3-1.5c.9-1.3 1.2-1.1 1.2.6m.9 6.2c1.3 2 1.3 2.5.2 1.6-.8-.7-1.7-1.1-1.9-.8-.3.2-.5-.5-.5-1.5 0-2.5 0-2.5 2.2.7m5.1-2.1c-.8.8-4.8 1.3-4.3.6.2-.4 1.4-.8 2.6-.9s2 0 1.7.3m-14.3 4c.3.8.2 1.2-.4.9s-1-1-1-1.6c0-1.4.7-1.1 1.4.7m7.8 6.6c-.8.8-.9.4-.5-1.3.4-1.3.8-1.8 1.1-1 .2.7-.1 1.8-.6 2.3m.8 2.2c0 .2-.7.7-1.6 1-.8.3-1.2.2-.9-.4.6-1 2.5-1.4 2.5-.6m83 4.6c-3 2.8-5.8 5-6.3 5-.4 0 1.2-1.7 3.5-3.8 2.4-2 4.9-4.3 5.6-5 .7-.6 1.6-1.2 2-1.2.4.1-1.8 2.3-4.8 5m-140.9-.3c1.3 1.6 1.2 1.7-.3.4-1-.7-1.8-1.5-1.8-1.7 0-.8.8-.3 2.1 1.3m14 1c1.3 1.4 1.8 2.3 1 1.8-1.1-.6-1.3-.3-.9 1.3.4 1.3.2 2-.3 1.6-.6-.3-.9-1.4-.7-2.3.2-1-.3-2.5-1.1-3.4-2.2-2.7-.7-1.9 2 1m5.1-.3c.4-.3.9-.1 1.2.4.3.6-.1.9-1 .8s-2.1-1.1-2.6-2.2c-.9-1.8-.8-1.8.5-.2.8 1 1.6 1.5 1.9 1.2m6.5.8c-.3.7-.5.2-.5-1.2s.2-1.9.5-1.3c.2.7.2 1.9 0 2.5m3 2c-.3.8-.6.5-.6-.6-.1-1.1.2-1.7.5-1.3.3.3.4 1.2.1 1.9m69.4 1.5c-.8 1.5-1 1.5-1.1.2 0-1.7 1-3.2 1.8-2.5.2.3-.1 1.3-.7 2.3m-69.8 1.8c-.3.9-.8 1.4-1 1.1-.3-.3-.2-.9.2-1.5.9-1.6 1.5-1.3.8.4m-15.6 3c-.4.8-1.2 1.5-1.9 1.5-.9 0-.8-.3.2-1 .8-.5 1.1-1 .7-1-.5 0-.5-.5-.2-1.1 1-1.5 1.9-.3 1.2 1.6m85.3-2c0 .2-.7.8-1.5 1.5-1.2 1-1.5 1-1.5-.2 0-.8.7-1.5 1.5-1.5s1.5.1 1.5.2m-4.3 5.5c-.3 1.1-.1 1.8.4 1.4 1.3-.8 1.1 1-.3 2.4-1.6 1.6-2 4.9-.8 5.7.6.3 1 0 1-.7 0-.8 1-1.4 2.3-1.4 1.8 0 2.3.5 2.2 2.3-.1 2.6-2.5 5.7-2.5 3.2 0-1.2-.2-1.2-1 .1-.8 1.2-1 1.2-1-.5s-.3-1.6-1.8.8c-1 1.5-2.2 2.4-2.5 2-.4-.3-.7-.1-.7.5 0 .7.4 1.2.9 1.2.4 0 .6 1.1.4 2.4-.3 1.6-1 2.3-1.9 1.9-1-.4-1.2 0-.8 1.1.3.9 1 1.6 1.5 1.6s.9.5.9 1.1-.8.9-1.7.7c-1-.2-1.7-.9-1.6-1.4.1-.6-.4-1.1-1.1-1.1s-1.1.8-.9 1.7c.3 1.1 1.5 1.7 3.8 1.7 3 0 3.3-.3 2.4-1.9-1.5-2.7-.2-3.9 2.7-2.6 2 1 2.8.8 4.2-.6 1.6-1.7 1.6-1.8-.7-.5-1.9 1.1-2.5 1.1-2.8.1-.3-.6-.9-1-1.3-.7-.5.3-1.2 0-1.6-.6-.5-.8-.3-.9.6-.4s1 .2.6-1.3c-.4-1.1-.2-2.3.3-2.6 1.2-.8 6.2 1.4 5.5 2.5-.9 1.5 4.1-.1 5.3-1.7 1-1.4 8.3-5.9 8.3-5.1 0 .4-19.6 17.6-23.5 20.6-1.6 1.2-6.7 5.8-11.3 10.2-8.2 7.9-11.3 9.9-9.2 5.9.6-1.1 1.4-2 1.8-2 .9 0 4.3-6.5 11.5-22.5 3-6.6 6.6-14.6 8.1-17.7 1.4-3.1 2.6-6.2 2.6-6.7 0-.6.5-1.1 1.1-1.1s.9.9.6 2m29.3 2.3c-5.7 5.2-10 8.8-10 8.3 0-1.6 1.4-3.6 2.5-3.6.7 0 3.5-2 6.2-4.5 2.6-2.5 5-4.5 5.3-4.5s-1.5 1.9-4 4.3m-25 1.7c0 .5-.5 1-1.1 1-.5 0-.7-.5-.4-1 .3-.6.8-1 1.1-1 .2 0 .4.4.4 1m2.2 10.2c-1 1-1 .8-.2-3.7.1-.6.4-.2.7.9.3 1 0 2.3-.5 2.8m5.5-3.6c-.3.3-1.2.4-1.9.1-.8-.3-.5-.6.6-.6 1.1-.1 1.7.2 1.3.5m-3.7 5.9c-.7.9-1.5 1.3-1.9 1-.3-.3.1-1 .9-1.5 2.1-1.4 2.4-1.2 1 .5m-39.4 2c-.9.9-1.6 1.3-1.6.8 0-1.2 2.2-3.4 2.8-2.8.2.2-.3 1.1-1.2 2"/><path d="M1597.5 1194.9c-.3.5-.1 1.2.5 1.6.5.3 1-.1 1-.9 0-1.8-.6-2.1-1.5-.7m-5.5 4.2c0 .5.5.7 1 .4.6-.3 1-.8 1-1.1 0-.2-.4-.4-1-.4-.5 0-1 .5-1 1.1m3 3.5c0 .3.5 1.5 1.1 2.6.9 1.7 1.3 1.8 2 .7 1.3-2.1 1.1-2.9-.8-2.2-1.1.4-1.4.3-.9-.5.4-.7.2-1.2-.3-1.2-.6 0-1.1.3-1.1.6m-6.5 2.4c-.3.5.1 1 .9 1 .9 0 1.6-.5 1.6-1 0-.6-.4-1-.9-1-.6 0-1.3.4-1.6 1m-83.9-29.1c-.4.5.6 2.1 2.1 3.5 2.9 2.7 5 3.5 3.6 1.3-.4-.6-.8-1.6-.8-2.1 0-1.5-4.2-3.8-4.9-2.7m60.4.1c0 .5.5 1 1.1 1 .5 0 .7-.5.4-1-.3-.6-.8-1-1.1-1-.2 0-.4.4-.4 1m-25.7 3.4c0 .7.6 1.3 1.4 1.3.7 0 1.3-.4 1.3-.8s-.6-.9-1.3-1.2c-.8-.3-1.4 0-1.4.7m-17.6 3.7c.7.9 1 1.9.6 2.2-.3.4-.2.7.4.7 1.2 0 2.6-3 1.8-3.8-.3-.3-.5 0-.5.8 0 1-.4 1-1.7-.1-1.6-1.2-1.7-1.2-.6.2m-113.7 3.8c-.8.5-27 .8-58.2.7l-56.6-.1-.5 3.5c-.3 1.9-.4 8-.3 13.5l.3 9.9 21.4.1h21.4l.3 8.5c.2 5.5.6 8 1.2 7 .6-.9.9 1 .9 5.3 0 3.9-.4 6.5-1 6.2-.5-.4-.9.3-.9 1.4 0 1 .6 2.2 1.3 2.4q1.5.6 0 .6c-.7.1-1.3.9-1.3 1.8 0 1.5.2 1.6 1 .3s1-1.2 1 .2c0 1-.4 1.8-.8 1.8-.5 0-.9.7-.9 1.5s.4 1.5.9 1.5c.4 0 .8.9.8 2.1 0 1.1-.4 1.8-.8 1.5-.4-.2-.9.9-1 2.5-.1 1.7.1 2.8.5 2.6.9-.6.7 9.8-.3 13-.4 1.6-.2 2.3.7 2.3 1 0 1 .3.1 1.2-1.3 1.3-1.7 6.8-.4 6.8.4 0 .8.9.9 2s-.2 1.8-.8 1.5c-.5-.4-.9.5-.9 1.9s.5 2.6 1 2.6c.6 0 1 .7 1 1.5s-.4 1.5-.8 1.5-.9 1.8-1.1 4.1c-.1 3.1.1 3.9 1.1 3.3s1-.5 0 .8-1.1 2.2-.3 3.7c1.5 2.6 1.4 5.4 0 4.5-.8-.5-1 .3-.5 2.7 1 5.2 1.5 13.9.7 13.5-.9-.6-.8 4 .2 5 1.1 1.1.9 13.6-.3 12.9-.5-.3-1 0-1 .8 0 1.2 2.2 1.5 11.8 1.6 6.4.1 13.2.4 15 .7l3.2.6v-16.3c0-20.9.8-114.8 1-117.2.2-2.2-1.2-2 23-2.1l20.5-.1.2-14.3c.1-7.8-.2-14.2-.5-14.2-.4 0-1.4.4-2.2.9m-70.3 38.8c-.3 1-.5.2-.5-1.7s.2-2.7.5-1.8c.2 1 .2 2.6 0 3.5m177.3-38.6c0 .5.5.7 1 .4.6-.3 1-.8 1-1.1 0-.2-.4-.4-1-.4-.5 0-1 .5-1 1.1m3.6.4c-1.1.8-1.5 1.5-.9 1.5s1.6-.7 2.3-1.5c1.6-1.9 1.1-1.9-1.4 0m17.5.1c0 1.1.3 1.4.6.6.3-.7.2-1.6-.1-1.9-.3-.4-.6.2-.5 1.3m-8.1 2.8c0 .2.7.7 1.6 1 .8.3 1.2.2.9-.4-.6-1-2.5-1.4-2.5-.6m38.1 37.2c0 1.1.3 1.4.6.6.3-.7.2-1.6-.1-1.9-.3-.4-.6.2-.5 1.3m.7 11.1c.6.2 1.8.2 2.5 0 .6-.3.1-.5-1.3-.5s-1.9.2-1.2.5"/><path d="M1425.2 1255c-1.2.5-3 .6-3.9.3-1.2-.5-1.4-.3-.8.7s.4 1.2-.8.7c-1.8-.7-7.8 1.1-8.8 2.5-.3.6-.9.9-1.3.9-2-.3-2.6 0-2.1.9.3.5.1 1.1-.4 1.1-2 .3-2.6.5-4.9 1.7-1.2.7-2.1 1.6-1.9 2s-.8 1.8-2.1 3.2c-1.4 1.4-2.1 1.9-1.7 1.1.5-.9.4-1.2-.3-.7-1.7 1.1-7.5 9.8-7.5 11.3 0 .7-.4 1.3-.8 1.3-1.9 0-4.1 10.5-4.1 19.8 0 5.3.1 10.1.2 10.7.1.5.2 1.7.1 2.6s.5 2.1 1.3 2.8 1.2 2.1.8 3.3c-.4 1.5-.2 1.9.8 1.3.8-.5 1.1-.3.8.6-.9 2.4 2.2 7.1 8.6 13.3 3.4 3.3 5.2 5.3 4.1 4.5-1.8-1.3-1.9-1.3-.7.3.8.9 1.9 1.5 2.7 1.2.7-.3 1.6 0 2.1.7.5.8.3 1-.7.4s-1.1-.5-.3.4c.6.6 2 1.3 3.3 1.6 4.5.8 9 2.9 8.4 3.8-.3.6-.1.7.5.3 1.3-.8 6.4.3 5.8 1.3-.2.3 2.1.4 5.1.3 3.9-.3 5.3-.1 4.9.7-.4.6-.3 1.1.3 1.1.5 0 1.3-.5 1.7-1.1.3-.6 2.4-.9 4.5-.7 2.2.2 3.9 0 3.9-.5s1-.5 2.1-.2c1.6.5 1.9.4 1.4-.6-.6-.9-.2-1.1 1.3-.7 1.3.4 2 .2 1.9-.6-.1-.6.8-1.1 2-1 1.2 0 2-.3 1.8-.7-.3-.4.2-1 1.1-1.3 1-.4 1.3-.2.9.7-.4.6.1.3 1-.8s2.1-1.9 2.6-1.8c.5.2.8-.1.6-.6-.1-.5.3-1 .8-1.2.6-.2 1.9-1.1 3-2.2 2-1.8 2-1.8 2.6.5.3 1.3.4 4.2.2 6.5-.3 3.3 0 4.3 1.1 4.3.8 0 1.6-.6 1.9-1.3.3-1 .9-1 2.6 0 1.1.7 3.1 1.2 4.3 1.2 1.9-.1 1.7-.3-.7-.9s-1.7-.8 3.3-.9c3.5 0 6.2.3 6.2.9 0 .5.8 1 1.8 1 1.4 0 1.5-.2.2-1-1.2-.8-1.1-1 .7-1h2.2l.1-42.1c0-23.2.3-42.6.6-43.1s.3-2 0-3.4c-.6-2.4-.8-2.4-12.2-2.4-8.9 0-11.4-.3-10.8-1.3.5-.8.4-.9-.4-.2-.6.5-1.2 3.6-1.4 6.8l-.3 5.8-3.2-3.2c-1.8-1.7-3.3-2.7-3.3-2.3 0 .5-.5.1-1.1-.9-.6-.9-1.4-1.5-2-1.2-.5.4-.9.1-.9-.5s-.4-.8-1-.5c-.5.3-1 .2-1-.3 0-1.4-7.7-4.5-9-3.7-.7.4-1.5.3-1.9-.3-.9-1.5-13.1-2.4-15.9-1.2m18.8 23.1c.3.1 1.4.1 2.5 0 1.7-.2 1.7 0 .5.8-1.3.9-1.2 1.1.5 1.2 1.1.1 2.6.2 3.2.2.7-.1 1.1.2.8.6-.2.4 2.1 2.7 5.1 5.1 5 4 5.8 5.2 5.7 8.7-.1.7.3 1.3.8 1.3.9 0 .8 16.1-.1 17-.3.3-1.3 2.1-2.3 4s-3.4 5.3-5.3 7.5c-2 2.2-3.3 3.5-3 2.9.3-.7-.9-.5-2.9.4-1.9.9-3.5 2-3.5 2.5 0 .4-1 .5-2.1.2-1.3-.4-1.9-.3-1.6.2.4.6-2 1.1-5.9 1.2-4.5.1-6.4-.2-5.9-.9s-.2-.9-2.1-.4c-2.1.5-2.5.4-1.9-.6.5-.9.4-1.1-.4-.6-.6.4-1.8 0-2.7-.8-.9-.9-2.1-1.3-2.7-.9-.7.3-.9.3-.5-.2.4-.4-.7-1.9-2.3-3.2-3.1-2.6-8.5-11.9-8.1-14 .2-.6-.2-1.4-.8-1.8-.5-.3-1-2.9-1-5.6 0-3.1.4-4.8 1-4.4.6.3 1-.1 1-1s1-3.5 2.2-5.8 2.1-4.5 2-5c-.1-.4.3-.7.9-.7.5 0 .7-.5.3-1.2-.4-.6-.3-.8.3-.5 1 .6 7.6-3.6 6.8-4.4-.2-.3.4-.6 1.3-.7s3.7-.5 6.2-1c3.7-.7 11.9-.8 14-.1m-107.8 60.9c0 1.4.2 1.9.5 1.2.2-.6.2-1.8 0-2.5-.3-.6-.5-.1-.5 1.3"/><path d="M1480.8 1350.7c.7.3 1.6.2 1.9-.1.4-.3-.2-.6-1.3-.5-1.1 0-1.4.3-.6.6m44 0c1.2.2 3 .2 4 0 .9-.3-.1-.5-2.3-.4-2.2 0-3 .2-1.7.4"/></g><path fill="#2563eb" d="M1786.8 1214.7c.7.3 1.6.2 1.9-.1.4-.3-.2-.6-1.3-.5-1.1 0-1.4.3-.6.6m-61.6 5.8c0 1.6.2 2.2.5 1.2.2-.9.2-2.3 0-3-.3-.6-.5.1-.5 1.8m.1 15c0 2.2.2 3 .4 1.7.2-1.2.2-3 0-4-.3-.9-.5.1-.4 2.3m287.2 54c0 31.9.1 45.1.2 29.3.2-15.8.2-41.9 0-58-.1-16.1-.2-3.2-.2 28.7m-234.2-55.8c.9.2 2.3.2 3 0 .6-.3-.1-.5-1.8-.5-1.6 0-2.2.2-1.2.5m-52.9 23.3c0 9.6.2 13.6.3 8.7.2-4.8.2-12.6 0-17.5-.1-4.8-.3-.8-.3 8.8m71.9-5c0 2.5.2 3.5.4 2.2.2-1.2.2-3.2 0-4.5-.2-1.2-.4-.2-.4 2.3m712.8 11.6c0 1.1.3 1.4.6.6.3-.7.2-1.6-.1-1.9-.3-.4-.6.2-.5 1.3m-157.4.2c.8.5 1.3 4.4 1.6 10.7l.3 10 .2-10.8c.2-9.6 0-10.7-1.5-10.7-1.3 0-1.4.3-.6.8m-451.9.9c.6.2 1.8.2 2.5 0 .6-.3.1-.5-1.3-.5s-1.9.2-1.2.5m180 0c.7.3 1.6.2 1.9-.1.4-.3-.2-.6-1.3-.5-1.1 0-1.4.3-.6.6m.6 3.5-1.9 2.3 2.3-1.9c2.1-1.8 2.7-2.6 1.9-2.6-.2 0-1.2 1-2.3 2.2m254 1-1.9 2.3 2.3-1.9c2.1-1.8 2.7-2.6 1.9-2.6-.2 0-1.2 1-2.3 2.2m-125.3 1.4c0 1.1.3 1.4.6.6.3-.7.2-1.6-.1-1.9-.3-.4-.6.2-.5 1.3m-448.3.1c1.2.2 3 .2 4 0 .9-.3-.1-.5-2.3-.4-2.2 0-3 .2-1.7.4m12 0c.7.3 1.6.2 1.9-.1.4-.3-.2-.6-1.3-.5-1.1 0-1.4.3-.6.6m301.1 5-2.4 2.8 2.8-2.4c2.5-2.3 3.2-3.1 2.4-3.1-.2 0-1.4 1.2-2.8 2.7m232.4.8c0 2.2.2 3 .4 1.7.2-1.2.2-3 0-4-.3-.9-.5.1-.4 2.3m-86.9-.3-1.9 2.3 2.3-1.9c2.1-1.8 2.7-2.6 1.9-2.6-.2 0-1.2 1-2.3 2.2m286.7-.6c0 1.1.3 1.4.6.6.3-.7.2-1.6-.1-1.9-.3-.4-.6.2-.5 1.3m-344 5c0 1.1.3 1.4.6.6.3-.7.2-1.6-.1-1.9-.3-.4-.6.2-.5 1.3m229.9 2.4c-.8.5-1 1-.5 1 .6 0 1.7-.5 2.5-1s1.1-1 .5-1c-.5 0-1.7.5-2.5 1m-555.5 1.1c-.4.6-.5 1.2-.2 1.5.2.3.7-.2 1-1.1.7-1.7.1-2-.8-.4m229.4.6c-1.3 1.6-1.2 1.7.4.4s2.1-2.1 1.3-2.1c-.2 0-1 .8-1.7 1.7m197.1-1.3c0 .2.7.7 1.6 1 .8.3 1.2.2.9-.4-.6-1-2.5-1.4-2.5-.6m-602.7 1.3c3.7.2 9.6.2 13 0s.4-.3-6.8-.3c-7.1 0-9.9.1-6.2.3m38 0c1.5.2 3.9.2 5.5 0 1.5-.2.2-.4-2.8-.4s-4.3.2-2.7.4m220.8.9c0 1.1.3 1.4.6.6.3-.7.2-1.6-.1-1.9-.3-.4-.6.2-.5 1.3m-205.8 5.9c0 2.2.2 3 .4 1.7.2-1.2.2-3 0-4-.3-.9-.5.1-.4 2.3m11.1 5.5c0 5.2.1 7.4.3 4.7.2-2.6.2-6.8 0-9.5-.2-2.6-.3-.4-.3 4.8m194.8-6c0 1.9.2 2.7.5 1.7.2-.9.2-2.5 0-3.5-.3-.9-.5-.1-.5 1.8m142.7-1.3c-1.3 1.6-1.2 1.7.4.4.9-.7 1.7-1.5 1.7-1.7 0-.8-.8-.3-2.1 1.3m31.2-.1c0 1.1.3 1.4.6.6.3-.7.2-1.6-.1-1.9-.3-.4-.6.2-.5 1.3m213.3 10.9c0 6 .1 8.4.3 5.2s.2-8.1 0-11-.3-.3-.3 5.8m22.8-.5c0 1.4.2 1.9.5 1.2.2-.6.2-1.8 0-2.5-.3-.6-.5-.1-.5 1.3m29 2c0 1.4.2 1.9.5 1.2.2-.6.2-1.8 0-2.5-.3-.6-.5-.1-.5 1.3m-81.1 3.6c0 1.1.3 1.4.6.6.3-.7.2-1.6-.1-1.9-.3-.4-.6.2-.5 1.3m-377 3c0 1.1.3 1.4.6.6.3-.7.2-1.6-.1-1.9-.3-.4-.6.2-.5 1.3m-175.8 6.9c0 2.2.2 3 .4 1.7.2-1.2.2-3 0-4-.3-.9-.5.1-.4 2.3m582 3c0 3.8.2 5.3.4 3.2.2-2 .2-5.2 0-7-.2-1.7-.4-.1-.4 3.8m51.8-4.9c0 1.1.3 1.4.6.6.3-.7.2-1.6-.1-1.9-.3-.4-.6.2-.5 1.3m-319.1 5.8c0 .2.8 1 1.8 1.7 1.5 1.3 1.6 1.2.3-.4s-2.1-2.1-2.1-1.3m-314.6 11.1c0 6 .1 8.4.3 5.2s.2-8.1 0-11-.3-.3-.3 5.8m265.5-6.8c-1.3 1.7-1.3 1.7.6.3 1.1-.8 2.2-1.6 2.4-1.7q.3-.3-.6-.3c-.6 0-1.7.8-2.4 1.7m77.1-1.3c0 .2.8 1 1.8 1.7 1.5 1.3 1.6 1.2.3-.4s-2.1-2.1-2.1-1.3m392.4 2.8-2.9 3.3 3.3-2.9c1.7-1.7 3.2-3.1 3.2-3.3 0-.8-.8-.1-3.6 2.9m-416.4-.8c0 .2.8 1 1.8 1.7 1.5 1.3 1.6 1.2.3-.4s-2.1-2.1-2.1-1.3m-111 5.5c.5 1.1 1.5 2.3 2.1 2.7.6.3.3-.5-.6-2-2-3-3-3.5-1.5-.7m374.3 2.1c0 2.5.2 3.5.4 2.2.2-1.2.2-3.2 0-4.5-.2-1.2-.4-.2-.4 2.3m-230.8 0c1 1.1 2 2 2.3 2s-.3-.9-1.3-2-2-2-2.3-2 .3.9 1.3 2m289.5 0c.6 1.1 1.3 2 1.6 2 .2 0 0-.9-.6-2s-1.3-2-1.6-2c-.2 0 0 .9.6 2m-550.6 5.2-1.9 2.3 2.3-1.9c2.1-1.8 2.7-2.6 1.9-2.6-.2 0-1.2 1-2.3 2.2m406.1 1.8c1 1.1 2 2 2.3 2s-.3-.9-1.3-2-2-2-2.3-2 .3.9 1.3 2m-377.5-.6c0 .2.8 1 1.8 1.7 1.5 1.3 1.6 1.2.3-.4s-2.1-2.1-2.1-1.3m97.5 1.6c1 1.1 2 2 2.3 2s-.3-.9-1.3-2-2-2-2.3-2 .3.9 1.3 2m113.5-1.6c0 .2.8 1 1.8 1.7 1.5 1.3 1.6 1.2.3-.4s-2.1-2.1-2.1-1.3m317.7 1.7c1.2 1.2 2.4 2.1 2.7 1.8.2-.2-.8-1.3-2.2-2.3l-2.7-1.9zm155.2-.4c-1.3 1.6-1.2 1.7.4.4.9-.7 1.7-1.5 1.7-1.7 0-.8-.8-.3-2.1 1.3m-718 2c-1.3 1.6-1.2 1.7.4.4.9-.7 1.7-1.5 1.7-1.7 0-.8-.8-.3-2.1 1.3m38.1-.3c0 .2.8 1 1.8 1.7 1.5 1.3 1.6 1.2.3-.4s-2.1-2.1-2.1-1.3m147.9 1.3c-1.3 1.6-1.2 1.7.4.4s2.1-2.1 1.3-2.1c-.2 0-1 .8-1.7 1.7m311.3 1.8c0 1.6.2 2.2.5 1.2.2-.9.2-2.3 0-3-.3-.6-.5.1-.5 1.8m-80.2-1.1c0 .3.9 1 2 1.6s2 .8 2 .6c0-.3-.9-1-2-1.6s-2-.8-2-.6m-279 1c0 .3.9 1 2 1.6s2 .8 2 .6c0-.3-.9-1-2-1.6s-2-.8-2-.6m113.6 1.8c1 1.8 2.4 2.8 3.8 2.7 1.9-.1 1.9-.2.2-.6-1.1-.3-2.8-1.5-3.8-2.7-1.9-2.1-1.9-2.1-.2.6m-206.9-.1c.7.7 1.5 1 1.8.7s-.2-.9-1.2-1.2c-1.4-.6-1.5-.5-.6.5m527 0c.7.7 1.5 1 1.8.7s-.2-.9-1.2-1.2c-1.4-.6-1.5-.5-.6.5m-396.2 1.9c-1.3.6-1.5.9-.5.9.8 0 2.2-.4 3-.9 1.8-1.2.2-1.2-2.5 0m-259.7.7c.7.3 1.6.2 1.9-.1.4-.3-.2-.6-1.3-.5-1.1 0-1.4.3-.6.6m176 0c.7.3 1.6.2 1.9-.1.4-.3-.2-.6-1.3-.5-1.1 0-1.4.3-.6.6m113 0c.7.3 1.6.2 1.9-.1.4-.3-.2-.6-1.3-.5-1.1 0-1.4.3-.6.6m55 0c.6.2 1.8.2 2.5 0 .6-.3.1-.5-1.3-.5s-1.9.2-1.2.5m19 0c.7.3 1.6.2 1.9-.1.4-.3-.2-.6-1.3-.5-1.1 0-1.4.3-.6.6m80.5 0c.9.2 2.5.2 3.5 0 .9-.3.1-.5-1.8-.5s-2.7.2-1.7.5m7.5 0c.6.2 1.8.2 2.5 0 .6-.3.1-.5-1.3-.5s-1.9.2-1.2.5m7 0c.6.2 1.8.2 2.5 0 .6-.3.1-.5-1.3-.5s-1.9.2-1.2.5m245 0c.6.2 1.8.2 2.5 0 .6-.3.1-.5-1.3-.5s-1.9.2-1.2.5m12.5 0c.9.2 2.5.2 3.5 0 .9-.3.1-.5-1.8-.5s-2.7.2-1.7.5m-559.5 1c.7.3 1.6.2 1.9-.1.4-.3-.2-.6-1.3-.5-1.1 0-1.4.3-.6.6m528 0c.7.3 1.6.2 1.9-.1.4-.3-.2-.6-1.3-.5-1.1 0-1.4.3-.6.6m-437.5 1c.9.2 2.3.2 3 0 .6-.3-.1-.5-1.8-.5-1.6 0-2.2.2-1.2.5m278 0c.9.2 2.3.2 3 0 .6-.3-.1-.5-1.8-.5-1.6 0-2.2.2-1.2.5m258.5 0c.7.3 1.6.2 1.9-.1.4-.3-.2-.6-1.3-.5-1.1 0-1.4.3-.6.6M2472 1365c.8.5 2.2.9 3 .9 1 0 .8-.3-.5-.9-2.7-1.2-4.3-1.2-2.5 0"/><g fill="navy" stroke-width="0"><path d="M1725.7 1213.7c-1.3 1.3-.7 2.5.7 1.4 1-.8 9.6-1.1 29.1-1.1 15.2.1 28-.1 28.3-.4s-12.5-.6-28.5-.6c-15.9 0-29.3.3-29.6.7m63.8 1.1c.3.4 2.5 1.2 4.7 1.9 2.4.7 3.7.8 3.1.2s-2.7-1.4-4.8-1.9c-2-.4-3.4-.5-3-.2m714.1.1c-.4.7-.5 1.5-.2 1.8.9.9 1.9-.4 1.4-1.8-.4-1.1-.6-1.1-1.2 0m2.4.1c0 .5.5 1 1.1 1 .5 0 .7-.5.4-1-.3-.6-.8-1-1.1-1-.2 0-.4.4-.4 1m-707 2.3c0 .3 1.9 1.6 4.3 3 2.3 1.4 5.3 3.7 6.6 5.1 1.4 1.4 2.9 2.6 3.5 2.6 1.7 0-4.6-5.5-9.6-8.4-2.7-1.5-4.8-2.6-4.8-2.3m703.3 3.2c-.3.9-.3 1.8-.1 2.1.3.3.8-.4 1.1-1.6.6-2.3-.1-2.7-1-.5m16.5 2.4c-.2 1.7-.1 2.8.3 2.6 1-.7 1.8-5.5.9-5.5-.4 0-1 1.3-1.2 2.9m-793.5 4.6c0 2.7.2 3.8.4 2.2.2-1.5.2-3.7 0-5-.2-1.2-.4 0-.4 2.8m775.3 1.1-.7 4.1-5.8.6c-9.4 1-16.9 4.4-23 10.5-2.9 2.9-5.1 5.5-4.8 5.8s2.6-1.7 5.2-4.4c5.3-5.8 13.7-9.7 22.8-10.7 5.1-.6 5.9-1 6.8-3.3.5-1.4.8-3.5.6-4.6-.2-1.3-.6-.6-1.1 2m16.9.4c-.3.5-.1 1 .4 1 .6 0 1.1-.5 1.1-1 0-.6-.2-1-.4-1-.3 0-.8.4-1.1 1m-703.4.5c0 1.3 2.8 5 3.3 4.4.3-.2-.4-1.5-1.4-2.9-1.1-1.4-2-2.1-1.9-1.5m197.2 1.1c.3.3 5.2.7 10.9.7l10.3.2.5 28.5.6 28.5-.1-28.8c0-18.2.4-28.9 1-29.1.6-.3-4.6-.5-11.4-.5-6.8-.1-12.2.2-11.8.5m415.4 19.6c.3 11.2.6 20.7.8 21.3.2.5.4-8.6.3-20.3 0-11.6-.3-21.2-.7-21.2-.5 0-.6 9.1-.4 20.2m7.1-19.5c2.9.2 7.4.2 10 0s.2-.3-5.3-.3-7.6.1-4.7.3m82.8 1.8c-.9 2.6-.7 3.2.5 1.2.6-1 .9-2.1.6-2.3-.2-.3-.7.2-1.1 1.1m-767.1.8c-.8.4-1.5 1.3-1.5 2 0 .9.2.9.8 0 .4-.6 2.8-1.3 5.2-1.5l4.5-.3-3.7-.6c-2.1-.3-4.5-.1-5.3.4m699 48.2c0 27.5.1 38.6.2 24.7.2-13.9.2-36.4 0-50-.1-13.6-.2-2.2-.2 25.3m-678.2-47.8c1.5.2 3.7.2 5 0 1.2-.2 0-.4-2.8-.4-2.7 0-3.8.2-2.2.4m11.7.1c0 .5 1.1 1.2 2.5 1.4 1.4.3 2.5.1 2.5-.3 0-.5-.4-.9-.9-.9s-1.6-.3-2.5-.6-1.6-.2-1.6.4m10.3 6c1.5 1.5 2.7 3.3 2.7 4s.5 1.2 1 1.2c.7 0 .7-.8-.1-2.3-1.6-3.1-4-5.7-5.2-5.7-.6 0 .1 1.3 1.6 2.8m26.2-1.7c.4.6 1.3 4.5 2 8.7.9 5.3 1.3 6.6 1.4 4 .1-4.9-1.8-13.8-3-13.8-.6 0-.7.5-.4 1.1m702.5 0c0 .5.5.9 1 .9.6 0 2.9.9 5 1.9 2.2 1.1 4 1.6 4 1.1 0-.4-2.2-1.7-5-2.8-2.7-1.2-5-1.7-5-1.1m-773 5.6c0 2.1.4 4.3.8 5 .4.6.7-1.1.7-3.8s-.3-4.9-.7-4.9c-.5 0-.8 1.7-.8 3.7m785.6.7c1 .8 2.1 1.2 2.4 1 .5-.6-2.1-2.4-3.4-2.4-.6 0-.1.6 1 1.4m3.4 1.5c0 .5.9 1.3 2 1.6 2.4.8 2.6 2.8.5 4.5-.8.7-1.5 1.7-1.5 2.3 0 .5.9.2 2-.8 2.7-2.4 2.5-4.9-.5-6.9-1.4-.9-2.5-1.2-2.5-.7m-740.5 1.1c.3.5.8 1 1.1 1 .2 0 .4-.5.4-1 0-.6-.5-1-1.1-1-.5 0-.7.4-.4 1m695 5c-1.3.5-1.4.9-.5.9.8 0 2.4-.4 3.5-.9 1.3-.5 1.4-.9.5-.9-.8 0-2.4.4-3.5.9m23 2c.3.6 1.2 1 1.9 1s3.4 1.1 5.9 2.4c2.6 1.3 4.7 2 4.7 1.6 0-.8-3.6-2.5-9.3-4.6-2.1-.7-3.5-.9-3.2-.4m-878.6.2c-.7 2.5-.7 4.8 0 4.3.6-.3.9-1.4.8-2.5-.1-1.7-.5-2.6-.8-1.8m849.9 1.5c-2.2 2.6-4.1 6.4-3.4 7.1.3.3.6.1.6-.5s1.1-2.7 2.5-4.7c2.6-3.9 2.8-4.7.3-1.9m9.8-.1c-.4.9-.4 1.9-.1 2.2.2.3.7-.3 1.1-1.2s.4-1.9.1-2.2c-.2-.3-.7.3-1.1 1.2m16 .3c-.4.7-.5 1.5-.2 1.8.9.9 1.9-.4 1.4-1.8-.4-1.1-.6-1.1-1.2 0m-716 3.4c-.7 1.8-2.8 4.5-4.6 6s-3 3-2.8 3.2c.9 1 6.8-5.3 8.3-8.8.8-2 1.3-3.7 1-3.7-.2 0-1.1 1.5-1.9 3.3m24.4-1.3c0 1.2-.7 3.4-1.5 5-.9 1.7-1.1 3-.5 3 .5 0 1-.1 1-.3 0-.1.7-2.3 1.5-5 .8-2.6 1-4.7.5-4.7-.6 0-1 .9-1 2m714 1c-1.9 2.7-2.4 2.9-3.8 1.8-1.5-1.2-1.6-1.1-.3.4.7 1 1.7 1.5 2.2 1.3 1.1-.7 5.2-6.5 4.5-6.5-.2 0-1.4 1.4-2.6 3m-71.6 1.6c-.4 2-.4 5.9-.1 8.7.6 5.3 3.4 13.3 4.3 12.4.3-.3-.3-2-1.2-3.9-1.4-2.4-1.8-5.5-1.8-12.1 0-4.8-.1-8.7-.3-8.7-.1 0-.5 1.6-.9 3.6m-714.2-.2c.1 1.4.5 2.3.9 2 .7-.4 0-4.4-.7-4.4-.2 0-.3 1.1-.2 2.4m-120.2 1.1c-1.3 1.4-2.2 2.7-1.9 2.9.2.2 1.4-1 2.7-2.5 2.9-3.6 2.4-3.8-.8-.4m866.5-1.5c-.3.5-.1 1 .4 1 .6 0 1.1-.5 1.1-1 0-.6-.2-1-.4-1-.3 0-.8.4-1.1 1m15.5 1c0 .5.5 1 1 1 .6 0 1-.5 1-1 0-.6-.4-1-1-1-.5 0-1 .4-1 1m-876.8 3.7c-1.6 4-4.2 14.6-3.7 15.1.2.2.9-1.6 1.5-3.9.7-2.4 1.9-6.4 2.7-8.7 1.6-4.9 1.2-6.9-.5-2.5m228.3-.3c-2.3.7-5 1.8-6 2.5-1.8 1.1-1.8 1.1.5.5 1.4-.4 4.4-1.3 6.7-1.9 4.3-1.1 6.8-2.6 4.2-2.4-.8 0-3.2.6-5.4 1.3m14.8-.3c7.6.9 14 3.3 18.2 6.8 1.9 1.5 1.9 1.5.5-.2-2.9-3.8-10.6-6.7-18.7-7.2l-7.8-.4zm84.2-.4c-4.1.8-10.5 3.5-10.5 4.3 0 .5 1.9 0 4.3-1 2.3-1.1 5.4-2 6.9-2s3-.5 3.3-1c.6-1-.4-1.1-4-.3m10.5.4c2.5.4 6.3.7 8.5.7 3.8 0 3.9-.1 1-.8-1.6-.4-5.5-.8-8.5-.8l-5.5.1zm269.6-.2c-1 .4 3.2.7 9.2.7 6.1-.1 10.3-.4 9.4-.8-2.3-.9-16.2-.8-18.6.1m103.1-.1c-.9.2-1.7.7-1.7 1.2 0 .7 6.6-.3 9.5-1.5 1.1-.4-5.2-.2-7.8.3m46.3.2c-2.3.7-2.3.8-.3.9 1.2.1 2.5-.4 2.8-.9.3-.6.5-1 .3-.9s-1.4.5-2.8.9m4.1-.6c.2.2 4.2.6 8.9.8 4.7.3 7.2.2 5.5-.2-3-.8-15.2-1.3-14.4-.6m99.5.7c-1 3-2.6 12.2-2.2 12.6.2.2 1.1-2.7 1.9-6.4s1.3-7 1.1-7.2-.6.2-.8 1m-745.6 1c0 .5.5.7 1 .4.6-.3 1-.8 1-1.1 0-.2-.4-.4-1-.4-.5 0-1 .5-1 1.1m155.6-.3c-.2.4 3.3.8 7.7.8l8.2.2.6 7.8.5 7.9.2-7.5c.1-4.1-.2-8-.6-8.7-.8-1.3-15.8-1.7-16.6-.5m151.5 4.3c-5.3 6.1-4.5 6.4 1.3.4l4.4-4.5 12.7.3 12.7.3 1.4 3 1.3 2.9-.6-3.3-.6-3.3 9.8.2c8.4.3 9.9.6 10.3 2.1.7 2.7 2 2.2 1.5-.6l-.5-2.5h-49.4zm84.3-2.8c-.3 1-.3 2.1 0 2.4.3.4.6-.1.6-1 0-1.3 1-1.7 4.3-1.7 2.3 0 6.5-.3 9.4-.6 5.1-.7 5.1-.6 5.5 2.2.2 1.6.6 2.4.9 1.9.4-.6.3-2-.2-3.3-.8-2.2-1.3-2.3-10.4-2.1-8.3.2-9.6.5-10.1 2.2m52.8-1.1c-.7.7-1.2 1.7-1.2 2.2 0 .6.5.3 1.1-.6.8-1.5 2.3-1.7 10.9-1.4 5.5.2 10 0 10-.5 0-1.4-19.4-1.1-20.8.3m84.9 2.5c.1 3.5.2 3.6.8 1 .6-2.8.7-2.9 7.6-2.9 3.9 0 7.8.1 8.8.1 1.6.1 1.7 2.8 1.7 41.1 0 22.5.3 41 .8 41 .4 0 .7-18.8.7-41.9v-41.9l-10.2-.1-10.3-.2zm29.5-2.9c-.2.4 0 2.5.5 4.7l.8 4-.2-4.1c-.1-2.5.2-4 .8-3.8.5.2 5.5-.1 11-.5l10-.8-11.3-.1c-6.1 0-11.4.3-11.6.6m175.5 1.6c-.1 3.3 3.1 9.1 5.7 10.1 1 .4.6-.5-1.2-2.4-1.6-1.7-3.2-4.7-3.6-6.8-.7-3.3-.8-3.4-.9-.9m-581.8 2.1c0 2.2.2 3 .4 1.7.2-1.2.2-3 0-4-.3-.9-.5.1-.4 2.3m84.2-2.5c.3.5.8 1 1.1 1 .2 0 .4-.5.4-1 0-.6-.5-1-1.1-1-.5 0-.7.4-.4 1m249.3.2c-1.6.5-2.8 1.3-2.8 1.8 0 .7 5.4-1.4 6.9-2.7.8-.6-1.3-.2-4.1.9m29.2-.2c.8.5 2 1 2.5 1 .6 0 .3-.5-.5-1s-1.9-1-2.5-1c-.5 0-.3.5.5 1m119.2.7c-1.8.8-3.1 1.8-2.8 2 .2.2 2.1-.5 4.3-1.6 4.5-2.4 3.3-2.8-1.5-.4m29.9-1.4c1.7 1.4 9.8 5.4 9.4 4.6-.7-1-7.9-4.9-9.1-4.9q-.6 0-.3.3m97.6.4c-1.1 1.7-2.5 8.3-1.8 8.3.4 0 1.2-1.9 1.8-4.2 1.1-4.1 1.1-5.9 0-4.1m-522.2 1c2 1.9 8.8 5.7 8.1 4.5-.4-.7-2.6-2.2-4.9-3.3-2.3-1.2-3.7-1.7-3.2-1.2m340.8 3.8c0 2.7.2 3.8.4 2.2.2-1.5.2-3.7 0-5-.2-1.2-.4 0-.4 2.8m-514.5 0c-1.3 1.8-3.4 3.9-4.7 4.5s-2.1 1.3-1.8 1.6c.6.6 5.7-2.5 5.7-3.5 0-.3 1.1-1.9 2.5-3.4s2.1-2.7 1.5-2.7c-.5 0-2 1.6-3.2 3.5m396.7-2.5c-.3.5-.1 1 .4 1 .6 0 1.1-.5 1.1-1 0-.6-.2-1-.4-1-.3 0-.8.4-1.1 1m122.9 2.5c-1.5 2-2.5 3.8-2.2 4 .2.3 1.6-1.3 3.1-3.5 3.2-4.9 2.7-5.2-.9-.5m-714.6-.8c-1.8 2.1-3.1 4.3-2.5 4.3.2 0 1.3-1.4 2.5-3 2.5-3.3 2.4-4.1 0-1.3m163.7.3c-.3.5-.1 1 .4 1 .6 0 1.1-.5 1.1-1 0-.6-.2-1-.4-1-.3 0-.8.4-1.1 1m63.9 2.9c-4.4 3.8-9.1 10.1-7.7 10.1.5 0 1.6-1.3 2.6-2.9.9-1.5 3.5-4.5 5.8-6.5 2.2-2.1 3.9-3.9 3.7-4.1-.1-.2-2.1 1.3-4.4 3.4m94.3 1.4c-5.2 5.2-11.7 16.2-11.7 19.6 0 .9 1.1-.9 2.4-4 2.8-7 5.2-10.4 11.1-15.8 2.6-2.4 4.4-4.5 4.2-4.8-.3-.2-3 2-6 5"/><path d="M2078.3 1271.6c-2 1.8-2.2 2.2-.7 1.5 2.1-1 5.2-4.1 4.1-4.1-.3 0-1.9 1.2-3.4 2.6m111.7-1.1c0 .8.2 1.5.4 1.5s.6-.7 1-1.5c.3-.8.1-1.5-.4-1.5-.6 0-1 .7-1 1.5m36.9.2c-1.3 1.5-1.2 1.5.9.4 2.3-1.2 2.8-2.1 1.3-2.1-.5 0-1.5.7-2.2 1.7m145.6 2.7c-2.8 2.4-4.7 4.7-4.4 5s2.7-1.7 5.4-4.4c6.1-6.2 5.6-6.5-1-.6m-620.2-2.7c.9.2 2.5.2 3.5 0 .9-.3.1-.5-1.8-.5s-2.7.2-1.7.5m15.5 0c.6.2 1.8.2 2.5 0 .6-.3.1-.5-1.3-.5s-1.9.2-1.2.5m9 0c.6.2 1.8.2 2.5 0 .6-.3.1-.5-1.3-.5s-1.9.2-1.2.5m383.2 1.3c0 .5.5 1 1.1 1 .5 0 .7-.5.4-1-.3-.6-.8-1-1.1-1-.2 0-.4.4-.4 1m112-.6c0 .2.8 1 1.8 1.7 1.5 1.3 1.6 1.2.3-.4s-2.1-2.1-2.1-1.3m-275 .9c0 .2 1.4 1.6 3.1 3.3 3.2 2.9 3.2 2.9 1.5.2-1.4-2.1-4.6-4.6-4.6-3.5m92.4 1.7c.3 1.4.9 3.7 1.2 5.2.4 1.6 1 2.8 1.5 2.8.4 0 .1-2.1-.8-4.8-1.7-5.1-3-7.3-1.9-3.2m48.3-1.3c-1 1.6-2.6 8.6-1.8 7.7 1.1-1.2 3.2-7.6 2.7-8.1-.2-.3-.6-.1-.9.4m71 1.3c-.3 1.1-.1 2 .4 2s.9-.9.9-2-.2-2-.4-2-.6.9-.9 2m-483.4 3.5c0 2.2.2 3 .4 1.7.2-1.2.2-3 0-4-.3-.9-.5.1-.4 2.3m318.8 5c-3.4 4.2-6.1 7.9-6.1 8.2 0 .4.2.4.4.2 9.6-11.2 12.7-15.1 12.3-15.6-.3-.2-3.3 3-6.6 7.2m27.9-3.6c-1.9 1.6-3.2 3.2-2.9 3.5s2.1-1 3.9-2.9c4.1-4.3 3.6-4.5-1-.6m39.6.6c.3 1.6 1.1 3.4 1.6 4 .6.6.7-.1.2-2-.3-1.7-1.1-3.5-1.6-4-.6-.6-.7.1-.2 2m107.4-1.5c-.9.6-1 1-.3 1 .6 0 1.5-.5 1.8-1 .8-1.2.4-1.2-1.5 0m-12.7 4c-.5 2.2-.7 4-.4 4 .4 0 1.2-1.8 1.8-4 .5-2.2.7-4 .4-4-.4 0-1.2 1.8-1.8 4m-202.1-1c.7 1 1.4 1.8 1.5 1.6.6-.6-.9-3.6-1.8-3.6-.5 0-.4.9.3 2m183.4-.9c-.2.8-1.4 4.5-2.6 8.4-1.2 3.8-2.4 7.7-2.6 8.5-.3 1-.2 1.1.4.5 1.2-1.2 6.3-17.8 5.7-18.4-.3-.2-.7.2-.9 1m-585.1 4.9c-2.7 2.7-4.7 5-4.4 5s2.8-2.3 5.6-5c2.8-2.8 4.8-5 4.4-5s-2.9 2.2-5.6 5m613.1-2.1c-2.3 4.3-2 5.2.5 1.2 1.1-1.8 1.8-3.5 1.5-3.8-.2-.3-1.2.9-2 2.6m34.9-2.1c-4.3.9-3.1 1.7 2.1 1.4 3-.2 6.8.1 8.4.7 1.8.6 3 .6 3 .1 0-1.5-9.5-3-13.5-2.2m56.7 2.2c0 1.9.2 2.7.5 1.7.2-.9.2-2.5 0-3.5-.3-.9-.5-.1-.5 1.8m58.8-1.9c0 .5.5.7 1 .4.6-.3 1-.8 1-1.1 0-.2-.4-.4-1-.4-.5 0-1 .5-1 1.1m34.5-.1c-1.3.5-.1.8 3.7.8 9.4.2 17.9 5.2 20.9 12.4.6 1.6 1.4 2.7 1.6 2.4.9-.9-3.8-8.5-6.4-10.4-6.7-4.6-15.3-7-19.8-5.2m105.2-.3c-.4.3-.7 1.3-.7 2.2.1 1.3.3 1.3 1.1-.2 1.1-1.9.8-3.3-.4-2m-695.6 2.3c5 2.6 9.5 7.6 11.6 12.6 1.9 4.6 4 6.3 2.3 1.9-2.6-7-12.1-16.6-16.2-16.5-.7.1.3.9 2.3 2m58.7-1.3c-1 .2-1.8.9-1.8 1.4 0 .6.7.6 1.9-.1 3.7-1.9 14.4-1.2 19.4 1.4 2.6 1.3 4.3 1.8 3.7 1.1-2.4-2.9-7.9-4.5-14.7-4.4-3.7.1-7.6.3-8.5.6m98.9 0c-.3.5 1.7.8 4.4.9s4.9-.3 4.9-.7c0-1.1-8.7-1.2-9.3-.2m-4.7 1.4c0 .5.5.7 1 .4.6-.3 1-.8 1-1.1 0-.2-.4-.4-1-.4-.5 0-1 .5-1 1.1m15-.7c0 .2.7.6 1.5 1 .8.3 1.5.1 1.5-.4 0-.6-.7-1-1.5-1s-1.5.2-1.5.4m156.6 1.3c-.6 1.4-.5 1.5.5.6.7-.7 1-1.5.7-1.8s-.9.2-1.2 1.2m214.9-.6c-1.6.6-1.4.8 1.3.8 3.3.1 4.1-.4 2-1.2-.7-.2-2.2-.1-3.3.4m-390.5 1.4c-.7.8-.9 1.5-.6 1.5.4 0 1.4-.7 2.2-1.5.9-.8 1.1-1.5.6-1.5s-1.5.7-2.2 1.5m47-.5c-.9.6-1 1-.3 1 .6 0 1.5-.5 1.8-1 .8-1.2.4-1.2-1.5 0m336 .6c-1.9.8-4.5 2.5-5.8 3.7-2.9 2.7-6.6 8.6-5.9 9.3.3.3 1.3-1.1 2.3-3.1 1.9-4 8.6-9.5 11.5-9.5 1 0 2.1-.5 2.4-1 .8-1.4-.4-1.2-4.5.6m126.2 0c1 1 2 1.5 2.4 1.2.3-.4-.5-1.2-1.8-1.8-2.2-1.2-2.2-1.2-.6.6m-833.4.1c2.9.2 7.4.2 10 0s.2-.3-5.3-.3-7.6.1-4.7.3m16.5 0c.9.2 2.3.2 3 0 .6-.3-.1-.5-1.8-.5-1.6 0-2.2.2-1.2.5m33 0c2.6.2 6.7.2 9 0s.2-.3-4.8-.3c-4.9 0-6.8.1-4.2.3m25.9 0c2 .2 3.9 1.1 4.1 1.9.3.9.4.8.3-.3-.1-1.4-1.1-1.8-4.1-1.9l-4-.1zm274.8 1.3c.6 1.1 1.6 2 2.2 2s.3-.9-.7-2-2-2-2.2-2 .1.9.7 2m401.5 2c-2.1 2.2-3.6 4-3.3 4s2.4-1.8 4.6-4 3.7-4 3.3-4-2.5 1.8-4.6 4m-526.8-.2c-3.7 3.9-3.4 4.6.4 1.1 1.8-1.6 3-3.2 2.7-3.4-.2-.3-1.7.8-3.1 2.3m205.7-1.3c-1 .8-1.4 1.5-.8 1.5s1.7-.7 2.4-1.5c1.6-1.9.9-1.9-1.6 0m48.1-.5c.3.5.8 1 1.1 1 .2 0 .4-.5.4-1 0-.6-.5-1-1.1-1-.5 0-.7.4-.4 1m247.4 6.1c-1.2 3.8-1.9 7.3-1.6 7.6s.9-.8 1.2-2.3c.3-1.6 1.4-5 2.5-7.7 1-2.6 1.4-4.7.9-4.7-.4 0-1.8 3.2-3 7.1m-525.7-3.3c-3.7 10.7-3.6 28 .2 36.2 1.1 2.4 1.4 2.7 1.1 1-.3-1.4-1.3-5.7-2.1-9.5-1.8-7.8-1.3-15.9 1.2-24.5 1.6-5.5 1.3-8.1-.4-3.2m257.8-1.8c0 .5.5 1 1.1 1 .5 0 .7-.5.4-1-.3-.6-.8-1-1.1-1-.2 0-.4.4-.4 1m37.2 11.3c-1.8 6.7-3.6 13.1-3.9 14.2s-.3 1.8 0 1.4c.4-.3 2.2-6.1 4.2-13 2-6.8 3.8-13 4-13.7.2-.6.1-1.2-.3-1.2s-2.2 5.5-4 12.3m384-8c14.9 8.2 20.1 15.5 20.2 28.4.1 4.7.4 6.6 1 5.6.5-.9.6-4.5.3-8-.8-7.8-4.5-15.1-10.1-19.9-4.3-3.7-15.9-10.4-17.9-10.4-.7 0 2.3 1.9 6.5 4.3m-560.2-1.8c-.7.8-.8 1.5-.2 1.5.5 0 1.5-.7 2.2-1.5s.8-1.5.2-1.5c-.5 0-1.5.7-2.2 1.5m211-.6c0 .5.5 1.3 1 1.6.6.3 1 .2 1-.4 0-.5-.4-1.3-1-1.6-.5-.3-1-.2-1 .4m39.7-.2c-1 1.7-3.7 11.7-3.2 12.1.2.3.7-.1.9-.9s1.1-3.6 2-6.3c1.4-4.4 1.6-7 .3-4.9m102.4.9c0 1.1.3 1.4.6.6.3-.7.2-1.6-.1-1.9-.3-.4-.6.2-.5 1.3m164.4-.6c.3.5.8 1 1.1 1 .2 0 .4-.5.4-1 0-.6-.5-1-1.1-1-.5 0-.7.4-.4 1m-576.3 1.7c2.5 2.9 4.1 6.5 5.5 12.3l1.3 5.5-.5-4.9c-.5-4.9-5-14.6-6.8-14.6-.6 0-.3.8.5 1.7m102.8-.6c0 .5.5.7 1 .4.6-.3 1-.8 1-1.1 0-.2-.4-.4-1-.4-.5 0-1 .5-1 1.1m116.4.3c.3 1 1.1 3.8 1.7 6.2.6 2.5 1.5 4.6 1.9 4.9 1 .6-2.3-11.2-3.4-12.2-.5-.5-.6 0-.2 1.1"/><path d="M2211.9 1290.7c-.5 1.4-.9 3.3-.7 4.1.2.9.8-.3 1.4-2.6 1.3-4.7.9-5.6-.7-1.5m22.1.5c-1.6 2.7-2.9 6.3-1.7 4.7 1.5-1.9 4.7-7.9 4.3-7.9s-1.5 1.5-2.6 3.2m-481.2-1.5c1.8.2 4.5.2 6 0s0-.4-3.3-.4-4.5.2-2.7.4m12.7 0c9.6.7 20.3.7 19.8 0-.2-.4-5.7-.6-12.1-.5s-9.9.3-7.7.5m223 .3c.3.5.8 1 1.1 1 .2 0 .4-.5.4-1 0-.6-.5-1-1.1-1-.5 0-.7.4-.4 1m285.8 3.4c1.2 2.5 2.5 4.5 3 4.6.9 0-2.9-7.6-4.3-8.5-.5-.3 0 1.4 1.3 3.9m-486.3-3.1c0 .3 1.8 1.6 4 2.8 2.2 1.3 4 2.5 4 2.8s1 1.7 2.1 3.1l2.1 2.5-1.8-3.4c-1.6-2.8-10.4-9.4-10.4-7.8m204.8.5c-1 .2-1.8.8-1.8 1.3 0 1.1 1.1 1.1 3-.1 1.8-1.1 1.1-1.8-1.2-1.2m-399.8 2.7c-1.3 1.4-2 2.5-1.6 2.5s1.9-1.1 3.4-2.5 2.2-2.5 1.6-2.5-2.1 1.1-3.4 2.5m463.9 2.7-4.3 5.3 3.8-3.5c3.5-3.2 6.3-7 5.2-7-.2 0-2.3 2.4-4.7 5.2m110.3-1.3c.6 2.2 1.4 4.1 1.9 4.1.4 0 .3-1.5-.3-3.3-1.6-4.9-2.8-5.5-1.6-.8m309.8-2.9c0 .5.5 1 1.1 1 .5 0 .7-.5.4-1-.3-.6-.8-1-1.1-1-.2 0-.4.4-.4 1m-526.5 1c-.3.5-.2 1 .4 1 .5 0 1.3-.5 1.6-1 .3-.6.2-1-.4-1-.5 0-1.3.4-1.6 1m529.5.3c0 .2 1.4 1.3 3 2.5 1.7 1.3 3 1.9 3 1.4 0-.4-1.3-1.6-3-2.5-1.6-1-3-1.6-3-1.4m-559.7 4.2c0 2.2.2 3 .4 1.7.2-1.2.2-3 0-4-.3-.9-.5.1-.4 2.3m175.7-1.5c.6 1.1 1.2 2 1.4 2s.2-.9-.1-2-.9-2-1.5-2c-.5 0-.4.9.2 2m-381.9.6c0 1.1.3 1.4.6.6.3-.7.2-1.6-.1-1.9-.3-.4-.6.2-.5 1.3m35.1.4c0 1.4.2 1.9.5 1.2.2-.6.2-1.8 0-2.5-.3-.6-.5-.1-.5 1.3m199.7.7c-.5 1.4-.9 3.3-.7 4.1.2.9.8-.3 1.4-2.6 1.3-4.7.9-5.6-.7-1.5m431.2 2.3c-2 9.3-1.1 14.7 3.5 22.2 2.3 3.7 9 9.5 9.9 8.6.3-.3-1.2-1.7-3.3-3.2-2.2-1.5-5.2-5-6.8-7.9-2.5-4.5-2.9-6.2-2.9-12.7.1-4.1.7-8.5 1.3-9.8.7-1.2.8-2.2.3-2.2s-1.4 2.3-2 5m-526.5-2.5c-.3.9-.6 2.6-.5 3.8.1 1.6.4 1.2 1-1.2 1-3.4.6-5.5-.5-2.6m-264.6 1.4c0 1.1.4 2.2.9 2.5.4.3.6-.6.3-1.9-.5-3-1.2-3.3-1.2-.6m556.7 5.8c-4.4 13.3-5.6 18.3-4.6 18.3.5 0 .9-.6.9-1.4 0-.7 1.5-6.5 3.4-12.7 4-12.9 4.1-16.1.3-4.2m64.5-5.2c0 1.6.2 2.2.5 1.2.2-.9.2-2.3 0-3-.3-.6-.5.1-.5 1.8m217.5 3.5c.3 3 .7 5.7.9 5.9.8.9.2-7.5-.6-9.4-.6-1.3-.7-.1-.3 3.5m-500-3.3c-2.4 2.3 1.1 24.7 4.3 27.6 1 1 1.1.8.5-.8-3.2-8.1-4.6-15.4-4.1-21.3.5-6.3.5-6.7-.7-5.5m169.3.3c0 .5.5 1 1.1 1 .5 0 .7-.5.4-1-.3-.6-.8-1-1.1-1-.2 0-.4.4-.4 1m133.2 1.5c0 1.6.2 2.2.5 1.2.2-.9.2-2.3 0-3-.3-.6-.5.1-.5 1.8m253.2 6.5c-1.1 4.9-1.7 8.7-1.3 8.5.9-.6 4.2-15.2 3.7-16.5-.2-.5-1.2 3.1-2.4 8m-734.8-4.9c-.9 4.5-.7 7.9.3 7.9.5 0 .9-2.5.9-5.5s-.2-5.5-.3-5.5-.5 1.4-.9 3.1m403.9-.1c.3 1.9 1 3.9 1.5 4.4.7.7.7.1.1-1.9-1.7-5.4-2.1-6.1-1.6-2.5m27.9 2c-.6 2.8-.8 4.7-.4 4.3 1.1-1.2 2.9-9.3 2.1-9.3-.4 0-1.2 2.3-1.7 5m96.6-4.3c0 .4.5 1.5 1 2.3.8 1.3 1 1.3 1-.2 0-.9-.4-2-1-2.3-.5-.3-1-.3-1 .2m-562.8 4-.2 4.3-41.7.3-41.8.2 41.8.3c45.9.2 43.2.6 42.4-6-.3-3-.4-2.9-.5.9m483.6 5.7c-1.6 5.2-3.1 10.3-3.5 11.3-.3 1-.2 1.4.2 1 1.2-1 7.4-21.7 6.6-21.7-.3 0-1.8 4.2-3.3 9.4m-602.8-4.9c1.9 1.9 3.6 3.5 3.9 3.5s-1-1.6-2.9-3.5-3.6-3.5-3.9-3.5 1 1.6 2.9 3.5m325 19.5v23h-8c-4.5 0-8 .4-8 1 0 .5 3.6.8 8.4.7l8.5-.2.1-23.8c0-13-.2-23.7-.5-23.7s-.5 10.3-.5 23m409.7-22.3c-1.1 1-.8 45.3.2 45.3.6 0 1.2-46 .5-46 0 0-.4.3-.7.7m-231.2 1.3c.3.5.8 1 1.1 1 .2 0 .4-.5.4-1 0-.6-.5-1-1.1-1-.5 0-.7.4-.4 1m20.3 1.5c.2 1.4.8 2.5 1.2 2.5 1 0 .1-3.8-1-4.5-.4-.2-.5.7-.2 2m51.2-2.3c0 1.4 3.3 11.4 4 12.2.5.5.1-1.9-1-5.4-1.6-5.3-3-8.5-3-6.8m39.3 4.3c0 2.7.2 3.8.4 2.2.2-1.5.2-3.7 0-5-.2-1.2-.4 0-.4 2.8m-357.1-.5c0 1.9.2 2.7.5 1.7.2-.9.2-2.5 0-3.5-.3-.9-.5-.1-.5 1.8m205 3c2.9 3.3 5.6 6 6.1 6s-1.5-2.7-4.4-6-5.6-6-6.1-6 1.5 2.7 4.4 6m302.1-2c0 2.5.2 3.5.4 2.2.2-1.2.2-3.2 0-4.5-.2-1.2-.4-.2-.4 2.3m143.7-3.6c0 .2 2.6 2.2 5.8 4.6 3.6 2.7 4.8 3.3 3.3 1.6-2.2-2.3-9.1-7.1-9.1-6.2m-701.8 5.4c-.1 2.9-.8 6.7-1.6 8.5-1.8 4.3-7.7 9.4-12.3 10.6-7.5 1.9-7.7 2-2.8 1.6 10.4-1 18-10 17.2-20.6l-.3-5.4zm24 1.2c-.1 3.6-.5 7.6-.7 9l-.6 2.5 1.1-2.4c.6-1.4.9-5.4.7-9l-.3-6.6zm122-3c0 1.9.2 2.7.5 1.7.2-.9.2-2.5 0-3.5-.3-.9-.5-.1-.5 1.8m281.9-1.4c0 1.1.3 1.4.6.6.3-.7.2-1.6-.1-1.9-.3-.4-.6.2-.5 1.3m-504 1c0 1.1.3 1.4.6.6.3-.7.2-1.6-.1-1.9-.3-.4-.6.2-.5 1.3m774.5 1.1c-.4 1.6-.9 3.7-1.3 4.8-.3 1.4-.2 1.7.5 1 1.1-1.1 2.8-8.5 1.9-8.5-.3 0-.8 1.2-1.1 2.7m-221.7 1.5c-.3 2.2-.1 3.4.4 2.9s.7-2.1.5-3.7c-.3-2.7-.4-2.6-.9.8m-677.4-.2c.3.5 1.6 1.5 2.8 2.1 2.2 1.2 2.2 1.2.3-1-1.9-2.1-4.3-3-3.1-1.1m500.1.3c.3 1 .9 1.5 1.2 1.2s0-1.1-.7-1.8c-1-.9-1.1-.8-.5.6m54 0c.3 1 .9 1.5 1.2 1.2s0-1.1-.7-1.8c-1-.9-1.1-.8-.5.6m75.4 1.6c0 1.7.4 3.2.8 3.5.4.2.6-1.1.4-3-.5-4.2-1.2-4.5-1.2-.5m-109.4-.4c.4.8.8 1.5 1 1.5s.4-.7.4-1.5-.4-1.5-1-1.5c-.5 0-.7.7-.4 1.5"/><path d="M2427 1314.7c-.6 2.7-1.9 5.6-2.7 6.5-.9 1-1.1 1.8-.6 1.8 1.3 0 4.1-5.7 4.9-9.9 1-4.9-.2-3.6-1.6 1.6m-573.9-2.3c-.1 2.6 2.1 8.6 3.2 8.6.4 0 .5-.5.1-1.1-.4-.7-1.3-3-2-5.3s-1.3-3.2-1.3-2.2m324.9.1c0 .8.2 1.5.4 1.5s.6-.7 1-1.5c.3-.8.1-1.5-.4-1.5-.6 0-1 .7-1 1.5m-548 1.5c0 1.1.4 2 .9 2s.7-.9.4-2-.7-2-.9-2-.4.9-.4 2m118 1.4c0 2 .2 3.6.4 3.6.8 0 1.2-6.1.4-6.6-.4-.3-.8 1.1-.8 3m152.3-1.9c-.3.9-.3 1.8-.1 2.1.3.3.8-.4 1.1-1.6.6-2.3-.1-2.7-1-.5m48.2 1.5c.7 4.6 5 10.7 10.2 14.4 3.5 2.4 5.5 3 11.6 3.4 4.1.2 7.7.1 8-.4s-2.7-.9-6.6-.9c-11.3 0-17.8-4.7-22.2-16.1l-1.5-3.9zm207-1c.3.5.8 1 1.1 1 .2 0 .4-.5.4-1 0-.6-.5-1-1.1-1-.5 0-.7.4-.4 1m55.1 4c.5 4.3 1 5.8 1.7 4.9.2-.2-.2-2.4-.9-4.9l-1.4-4.5zm304-2.5c.4.8.8 1.5 1 1.5s.4-.7.4-1.5-.4-1.5-1-1.5c-.5 0-.7.7-.4 1.5m-337.5 1.1c0 1.1.3 1.4.6.6.3-.7.2-1.6-.1-1.9-.3-.4-.6.2-.5 1.3m99.4-.6c-.3.5-.1 1 .4 1 .6 0 1.1-.5 1.1-1 0-.6-.2-1-.4-1-.3 0-.8.4-1.1 1m82.9.7c.3 1 .8 3 1.2 4.5.3 1.6 1 2.8 1.4 2.8.5 0 .2-2-.7-4.5-1.4-4.2-3-6.5-1.9-2.8m-321.4.1c0 1.2 1.9 2.6 2.6 1.9.2-.2-.2-1-1.1-1.7-.9-.8-1.5-.8-1.5-.2m64.5.2c.3.5.8 1 1.1 1 .2 0 .4-.5.4-1 0-.6-.5-1-1.1-1-.5 0-.7.4-.4 1m-471.5.5c0 .5.5 1.7 1 2.5s1 1 1 .5c0-.6-.5-1.7-1-2.5s-1-1.1-1-.5m267.6 1.3c-.4 1.1-2.9 4.1-5.6 6.6s-4.6 4.6-4.1 4.6c2.3 0 12.1-11.3 10.8-12.6-.3-.3-.8.3-1.1 1.4m598.4-.7c0 .5.5.7 1 .4.6-.3 1-.8 1-1.1 0-.2-.4-.4-1-.4-.5 0-1 .5-1 1.1m-431.5 1.9c1 1.1 2 1.8 2.3 1.5.7-.6-1.8-3.5-3.1-3.5-.5 0-.2.9.8 2m209-.1c-.7 2.3-8 9.1-9.7 9.1-.6 0-.9.3-.6.6.8.8 4.8-1.4 7.4-4 3.1-3.1 5.8-7.6 4.6-7.6-.6 0-1.3.9-1.7 1.9m206.1-.4c-.3.9-.6 2.6-.5 3.8.1 1.6.4 1.2 1-1.2 1-3.4.6-5.5-.5-2.6m35 2c-.4 2.2-1.5 5.1-2.3 6.5-1.5 2.3-1.5 2.4 0 1.2 1.9-1.6 4-7.5 3.5-9.9-.2-1-.8 0-1.2 2.2m-482.2 11.5c0 8 .2 11.2.3 7.2.2-3.9.2-10.5 0-14.5-.1-3.9-.3-.7-.3 7.3m72.5-5.5c1.4 4.7 2.9 8.5 3.2 8.5.8 0-4.4-17-5.2-17-.3 0 .5 3.8 2 8.5m51.1-7.5c0 .5.5 1 1.1 1 .5 0 .7-.5.4-1-.3-.6-.8-1-1.1-1-.2 0-.4.4-.4 1m77 3c2.1 2.9 7.1 7 8.6 7 .5 0-.7-1.2-2.7-2.6s-4.2-3.6-4.9-5c-.8-1.3-1.7-2.4-2.2-2.4s0 1.3 1.2 3m228.9-1-2.4 2.1 2.6-1.6c2.1-1.3 2.8-1.3 3.2-.3.5 1.5 10.6 7.3 11.3 6.6.2-.3-1.5-1.5-3.9-2.8-2.3-1.2-5.1-3.1-6.3-4.2-2.1-1.8-2.1-1.8-4.5.2m-473.7 2.4c-1.7 1.9-4.4 4.2-6.2 5.1s-2.9 1.9-2.6 2.2c.9.9 5.8-2.5 9.4-6.5 2-2.4 3.5-3.3 4-2.6.4.6 1.8 1.7 3.2 2.3 2.2 1.1 2.1 1-.5-1.3-1.6-1.4-3.3-2.5-3.6-2.6-.4 0-2 1.5-3.7 3.4m-356.1-1.4c0 .8.4 2.4.9 3.5.5 1.3.9 1.4.9.5 0-.8-.4-2.4-.9-3.5-.5-1.3-.9-1.4-.9-.5m225 1c2.2 3.4 7.3 6.8 12.3 8.1 4.7 1.3 14.4.6 16-1.2.8-.9.6-1-.9-.5-4 1.5-11.1 1.8-15.1.7-2.3-.6-6.3-3-9-5.4-3.5-3-4.4-3.5-3.3-1.7m184.4-1c.3.5 1.1 1 1.6 1 .6 0 .7-.5.4-1-.3-.6-1.1-1-1.6-1-.6 0-.7.4-.4 1m115.5 0c0 .5.5 1 1.1 1 .5 0 .7-.5.4-1-.3-.6-.8-1-1.1-1-.2 0-.4.4-.4 1m-540.5 2c2.1 2.4 2.6 2.5 1.9.6-.3-.8-1.3-1.7-2.2-2.1-1.3-.5-1.3-.2.3 1.5m205.5-.8c0 .7-.7 2.5-1.4 4-.8 1.6-1.1 2.8-.7 2.8s1.5-1.8 2.4-4c.8-2.2 1.1-4 .6-4s-.9.6-.9 1.2m249 3.3c1.3 1.4 2.8 2.5 3.3 2.5.6 0 0-1.1-1.3-2.5s-2.8-2.5-3.3-2.5c-.6 0 0 1.1 1.3 2.5m66.8 0c-.3 1.4-.2 2.5.2 2.5s1-1.1 1.2-2.5c.3-1.4.2-2.5-.2-2.5s-1 1.1-1.2 2.5m168.3-.9c0 1.1.3 1.4.6.6.3-.7.2-1.6-.1-1.9-.3-.4-.6.2-.5 1.3m55.5-.3c.3 1 .9 1.5 1.2 1.2s0-1.1-.7-1.8c-1-.9-1.1-.8-.5.6m54.6 1.7c-4.6 3.1-11.4 4.6-16.3 3.6-1.9-.3-2.8-.2-2.4.4.8 1.3 8.9 1.3 13.5-.1 2.1-.6 5.3-2.4 7.1-4 4.3-3.7 3.6-3.7-1.9.1m78.5-2.3c-1 1.9-1.7 6.4-.9 5.9.6-.3 1.2-1.9 1.4-3.6.5-3 .3-3.7-.5-2.3m-450 1.4c.7.7 1.5 1 1.8.7s-.2-.9-1.2-1.2c-1.4-.6-1.5-.5-.6.5m113.7.4c.4 1.1 1.2 3.9 1.9 6.2.6 2.4 1.4 4.3 1.8 4.3.9 0-2.1-10.2-3.4-11.5-.7-.7-.8-.4-.3 1m53.6-.5c0 .5.5 1 1.1 1 .5 0 .7-.5.4-1-.3-.6-.8-1-1.1-1-.2 0-.4.4-.4 1m-22.6 7.6c-1.2 4.2-1.8 7.2-1.4 6.7 1.1-1.2 4.9-14.3 4.1-14.3-.3 0-1.6 3.4-2.7 7.6m343.3-6.9c-.4.3-.7 1.1-.7 1.7s.5.5 1.2-.2c.6-.6.9-1.4.7-1.7-.3-.3-.9-.2-1.2.2m-77.7 1.8c-.7.8-.8 1.5-.2 1.5.5 0 1.5-.7 2.2-1.5s.8-1.5.2-1.5c-.5 0-1.5.7-2.2 1.5m-832 .1c0 .5 1.5 2.1 3.3 3.5 3.2 2.5 7.1 5 5.2 3.3-.5-.5-2.7-2.5-4.7-4.3-2.1-1.9-3.8-3.1-3.8-2.5m11.1 1c0 1.1.3 1.4.6.6.3-.7.2-1.6-.1-1.9-.3-.4-.6.2-.5 1.3m370.5-.5c.7 1.1-3 6.8-5.3 8.2-.7.4-1.8 1.8-2.4 3-.7 1.2.9 0 3.5-2.7 6-6.2 7.1-8.2 5-9-.9-.4-1.2-.2-.8.5m42.4-.7c0 .8 6.3 8.2 7.8 9 .9.5-.4-1.4-2.8-4.2-4-4.8-5-5.8-5-4.8m-290.7 1.3c4.3.2 11 .2 15 0 4-.1.5-.3-7.8-.3-8.2 0-11.5.2-7.2.3m502.2.4c-1.6.5-5.5.8-8.5.5l-5.5-.5 4.4 1c4.7 1.2 13.1.4 13.1-1.2 0-.5-.1-.9-.2-.8-.2 0-1.6.5-3.3 1m135.5-.1c0 .5.5 1 1.1 1 .5 0 .7-.5.4-1-.3-.6-.8-1-1.1-1-.2 0-.4.4-.4 1m-178 3c1.2 1.6 2.6 3 3.1 3s0-1.4-1.3-3c-1.2-1.7-2.6-3-3.1-3-.4 0 .1 1.3 1.3 3m315-1.9c0 .5.5.7 1 .4.6-.3 1-.8 1-1.1 0-.2-.4-.4-1-.4-.5 0-1 .5-1 1.1m-594.4 4.4c2 2.5 3.8 4.5 4.1 4.5.9 0-5.2-8-6.5-8.5-.7-.2.3 1.5 2.4 4m510.6 3.8c-.1 4.9-.6 8.6-1 8.3-.4-.2-1.4-.1-2.2.5-1.2.7-1 .9.8.9 3 0 3.4-1.2 2.9-10.6l-.3-7.9zm5.3-7.3c-.3.5-.2 1 .4 1 .5 0 1.3-.5 1.6-1 .3-.6.2-1-.4-1-.5 0-1.3.4-1.6 1m-635.5 1.1c0 .5.5.7 1 .4.6-.3 1-.8 1-1.1 0-.2-.4-.4-1-.4-.5 0-1 .5-1 1.1m263.9 4.7c5.4 6.3 7.1 7.9 7.1 6.6 0-.9-9-10.6-11-11.8-.8-.5.9 1.8 3.9 5.2m416.4-5.1c.9.2 2.3.2 3 0 .6-.3-.1-.5-1.8-.5-1.6 0-2.2.2-1.2.5m-656.8 2.3c1 1.1 2 2 2.2 2s-.1-.9-.7-2-1.6-2-2.2-2-.3.9.7 2m525.5-1.6c0 .2 1.9 1.9 4.3 3.7l4.2 3.3-3.5-3.7c-3.1-3.2-5-4.5-5-3.3m163.2 1.6c-.7 1.1-.9 2-.4 2 .4 0 1.3-.9 2-2s.9-2 .4-2c-.4 0-1.3.9-2 2m-394.2.1c0 .5.5.7 1 .4.6-.3 1-.8 1-1.1 0-.2-.4-.4-1-.4-.5 0-1 .5-1 1.1m320.5.9c.3.5 1.1 1 1.6 1 .6 0 .7-.5.4-1-.3-.6-1.1-1-1.6-1-.6 0-.7.4-.4 1m-644.5 3.2c-1.2 2.2-1.2 2.2.6.6 1-1 1.5-2 1.2-2.4-.4-.3-1.2.5-1.8 1.8m297-1.1c0 .5.5.7 1 .4.6-.3 1-.8 1-1.1 0-.2-.4-.4-1-.4-.5 0-1 .5-1 1.1m-472 .8c0 .6.5 1.3 1 1.6.6.3 1-.1 1-.9 0-.9-.4-1.6-1-1.6-.5 0-1 .4-1 .9m497.2 3.1c-.5 2.2-.7 4-.3 4s1.2-1.8 1.8-4c.5-2.2.7-4 .3-4s-1.2 1.8-1.8 4m28.8-3.1c0 .5.5 1.3 1 1.6.6.3 1 .2 1-.4 0-.5-.4-1.3-1-1.6-.5-.3-1-.2-1 .4m61 1.1c.6 1.1 1.6 2 2.2 2s.3-.9-.7-2-2-2-2.2-2 .1.9.7 2m237.4-.5c1.1.8 2.2 1.2 2.5.9.6-.6-1.9-2.4-3.4-2.4-.5.1-.1.7.9 1.5m-614.4.4c0 .6.4 1.3 1 1.6s.7-.1.4-.9c-.7-1.8-1.4-2.1-1.4-.7m423.6 2.7c-2.2 1.9-3.5 3.4-3 3.4 1.3 0 8-5.7 7.4-6.3-.3-.3-2.3 1-4.4 2.9m-545.3.9c0 2.2.2 3 .4 1.7.2-1.2.2-3 0-4-.3-.9-.5.1-.4 2.3m81.4-1.6c-4.1 2.6-4.6 3.6-1 1.7 1.7-.9 3.5-2 3.8-2.6.8-1.3.6-1.2-2.8.9m87.8.6c-1.6 1.3-2.7 2.7-2.4 2.9.3.3 1.8-.8 3.4-2.4 3.5-3.6 3.1-3.8-1-.5m49.5-1.6c0 .5.5 1.3 1 1.6.6.3 1 .2 1-.4 0-.5-.4-1.3-1-1.6-.5-.3-1-.2-1 .4m114-.1c0 1.2 1.9 2.6 2.6 1.9.2-.2-.2-1-1.1-1.7-.9-.8-1.5-.8-1.5-.2m52.5 1.2c.4 1.4 1.2 2.9 1.7 3.5.7.7.8.2.3-1.5-.4-1.4-1.2-3-1.7-3.5q-1.05-1.05-.3 1.5m310.9 1.2-2.9 3.3 3.5-3c1.9-1.7 3.7-3.1 3.9-3.3.2-.1 0-.2-.5-.2-.6 0-2.3 1.5-4 3.2m43.6-2.3c0 1 3 2.4 3.7 1.7.3-.2-.5-.9-1.6-1.6-1.2-.6-2.1-.7-2.1-.1m59.5 1.1c-1 1.1-2.6 2.2-3.6 2.5-1.1.4-1.9 1.1-1.9 1.6 0 1.2 5.2-1.4 7-3.6 1.9-2.3.6-2.8-1.5-.5m-147.9.4c1 .8 2.1 1.2 2.4 1 .5-.6-2.1-2.4-3.4-2.4-.6 0-.1.6 1 1.4m-384 1.2c-1.1.7-1.7 1.6-1.5 1.9.3.3 1.4-.2 2.5-.9 1-.8 1.7-1.7 1.4-1.9-.3-.3-1.4.1-2.4.9m171.5-.9c0 .4.4 1.7.9 2.8.8 1.9.9 1.9.9-.2.1-1.2-.3-2.5-.9-2.8-.5-.3-1-.3-.9.2m23.4.3c-.3.5-.1 1 .4 1 .6 0 1.1-.5 1.1-1 0-.6-.2-1-.4-1-.3 0-.8.4-1.1 1m-287.2 2.4c.1 1.7.9 3.1 1.7 3.3 1 .3 1.1.2.4-.4-.7-.4-1.4-1.9-1.7-3.3-.4-2.2-.5-2.1-.4.4m570.7-1.4c0 .6.7 1 1.5 1s1.5-.2 1.5-.4-.7-.6-1.5-1c-.8-.3-1.5-.1-1.5.4m-671.9 1.1c-1.3.5-2.2 1.1-2 1.4.8.7 4.9-.7 4.9-1.6 0-.5-.1-.9-.2-.8-.2 0-1.4.5-2.7 1m88 1.5c-1.8.8-3.1 1.7-2.9 2 .7.7 6.8-1.7 6.8-2.7 0-.5-.1-.9-.2-.8-.2 0-1.8.7-3.7 1.5m299.4-.7c-.3.6-.3 1.1.2 1.1.4 0 .1.5-.7 1-1 .7-1.1 1-.2 1 .7 0 1.5-.7 1.9-1.5.7-1.9-.2-3.1-1.2-1.6m-425.7.8c-18.1.2-32.8.7-32.8 1.2 0 .7 8.9.8 53.8.2 8 0 13.2-.5 13.2-1.1s-.3-.9-.7-.8c-.5.2-15.5.4-33.5.5m251.5.8c0 .8.9 1.5 2 1.5s1.8-.1 1.6-.3c-.2-.1-1.1-.8-2-1.5-1.3-.9-1.6-.9-1.6.3m78.1 0c.8.8 1.8 1.5 2.2 1.5.3 0 .1-.7-.6-1.5s-1.7-1.5-2.2-1.5-.3.7.6 1.5m216.1-.5c-.8 1.3.9 2 2.4 1.1 1-.6.9-1-.3-1.4-.8-.3-1.8-.2-2.1.3m166.4 7.9c-1.4 5.1-2.2 8.8-1.7 8.3 1.1-1.1 5-15.1 4.6-16.4-.2-.5-1.5 3.1-2.9 8.1m43.1-7.9c-.8.5-1.2 1.1-.9 1.4.2.3 1.1.1 1.9-.4s1.2-1.1.9-1.4c-.2-.3-1.1-.1-1.9.4m-654 1c0 .5.7 1 1.6 1 .8 0 1.2-.5.9-1-.3-.6-1-1-1.6-1-.5 0-.9.4-.9 1m121 0c0 .5.5 1 1.1 1 .5 0 .7-.5.4-1-.3-.6-.8-1-1.1-1-.2 0-.4.4-.4 1m36 0c0 .5 3.2.9 7.4.8 4.1-.1 7.2-.6 7-1-.7-1.1-14.4-1-14.4.2m46.2.2c-.9.3 2.5.7 7.6.7 5 .1 9.2-.3 9.2-.8 0-1-14.2-1-16.8.1m18.3-.2c.3.5 1.2 1 2 1s1.7-.5 2-1c.4-.6-.5-1-2-1s-2.4.4-2 1m30.2-.3c-.3.4 4.3.9 10.1 1.1 6.2.1 10.2-.1 9.4-.6-1.6-1.1-18.9-1.5-19.5-.5m52.8.3c-.4.6.3 1 1.4 1 2.5 0 2.7-.6.6-1.3-.8-.4-1.7-.2-2 .3m8.8.2c1.6 1 9.3 1 8.3 0-.4-.4-2.7-.7-5.1-.7s-3.9.3-3.2.7m62.7-.2c0 .5 1.2 1 2.8 1 2.1 0 2.4-.2 1.2-1-2-1.3-4-1.3-4 0m23 0c0 .5.7.7 1.5.4.8-.4 1.5-.8 1.5-1s-.7-.4-1.5-.4-1.5.4-1.5 1m16.6.1c.3.5 5.1.9 10.7.9 7.1 0 9.7-.3 8.7-1-1.8-1.2-20.2-1.1-19.4.1m33.9-.1c.3.5 4.7 1 9.6 1 5.8 0 8.8-.4 8.4-1-.3-.6-4.7-1-9.6-1-5.8 0-8.8.4-8.4 1m116.3.2c.5.5 1.6.8 2.3.6.8-.3.3-.7-1-1.1-1.7-.4-2.1-.3-1.3.5m4.2-.2c0 .5 1.8 1 4 1s4-.5 4-1c0-.6-1.8-1-4-1s-4 .4-4 1m-564.4 1.2c.7 1 13.4 1 13.4 0 0-.4-3.1-.7-6.9-.7s-6.7.3-6.5.7m95.4-.2c0 .5.7 1 1.5 1s1.5-.5 1.5-1c0-.6-.7-1-1.5-1s-1.5.4-1.5 1m14 0c-1.3.9-1.3 1 0 1 .8 0 2.2-.5 3-1 1.3-.9 1.3-1 0-1-.8 0-2.2.5-3 1m267.5 0c.3.5 1.5 1 2.6 1s1.7-.5 1.4-1c-.3-.6-1.5-1-2.6-1s-1.7.4-1.4 1m10.5 0c-1.2.8-1.1 1 .7 1 1.2 0 2.5-.5 2.8-1 .8-1.3-1.5-1.3-3.5 0m139 0c1.4.4 4.1.8 6 .8h3.5l-3-.8c-1.6-.4-4.3-.8-6-.8-2.9 0-2.9 0-.5.8m11.5 0c-.3.5.1 1 .9 1s1.8-.5 2.1-1c.3-.6-.1-1-.9-1s-1.8.4-2.1 1m106 0c-.3.5-.1 1 .4 1 .6 0 1.1-.5 1.1-1 0-.6-.2-1-.4-1-.3 0-.8.4-1.1 1m-543.7.7c.6.2 1.8.2 2.5 0 .6-.3.1-.5-1.3-.5s-1.9.2-1.2.5m525.5.5c1.6 1 13.4 1 14 0 .3-.4-3-.7-7.3-.7-4.4 0-7.4.3-6.7.7m-3.7 3.5c-.4 1.6-.9 3.7-1.3 4.8-.3 1.4-.2 1.7.5 1 1.1-1.1 2.8-8.5 1.9-8.5-.3 0-.8 1.2-1.1 2.7m-2.6 9.8c0 .8.2 1.5.4 1.5s.6-.7 1-1.5c.3-.8.1-1.5-.4-1.5-.6 0-1 .7-1 1.5m-8 2.6c0 .5.4.9.9.9s1.7.3 2.7.7c1.1.4 1.5.3 1.1-.4-.9-1.4-4.7-2.4-4.7-1.2m6.6 1.4c-.3.8-.1 1.5.4 1.5.6 0 1-.7 1-1.5s-.2-1.5-.4-1.5-.6.7-1 1.5"/></g><g fill="#2563eb" stroke-width="0"><path d="M1783.8 1213.5c-.3.3-13.3.7-28.9.8l-28.4.2-.2 66.6-.3 66.6 32.9.1c26.1.1 34.1-.2 38.6-1.3 3.1-.9 6.1-1.2 6.7-.9.7.5.8.2.3-.6-.6-1-.4-1.2.9-.7 1.1.5 1.5.3 1-.5s-.2-.9 1-.5c.9.4 1.5.3 1.2-.2-.3-.4.8-1.8 2.4-2.9 3.5-2.7 4.7-2.8 2.9-.5-.7 1 .4.2 2.4-1.6 3.7-3.5 4.7-4.8 2.6-3.5-.7.4-1 .1-.7-.7s1-1.4 1.5-1.4c.6 0 1.5-.4 2-.9s.2-.6-.6-.1q-1.35.75-.9-.6c.3-.8 1.1-1.3 1.7-1.1.7.1 1-.2.7-.7-.4-.5-.1-3 .6-5.6.7-2.7 1.5-4 1.8-3.1.3.8.5-2.9.5-8.3 0-5.5-.3-9.4-.7-8.8-.5.7-.8.3-.8-1.1s-.4-2.1-1.1-1.6c-.8.4-.9-.1-.4-1.6.4-1.3.3-2-.2-1.7-.6.4-.9-.7-.8-2.3s-.2-2.7-.7-2.4-.8-.2-.6-1.2c.2-1.1-.2-1.8-.8-1.7-1.2.2-5.2-3.6-5.4-5.2-.1-.6-.8-.9-1.7-.7-1 .2-1.2-.1-.7-.9.4-.7.3-1-.4-.6-1.5 1-4.3-.3-3.5-1.6.4-.6 0-.8-1-.4-1.1.4-1.7.1-1.7-.8 0-.8.7-1.5 1.5-1.5s1.4-.6 1.3-1.3c-.2-.6.5-1.1 1.4-1.1 1 .1 1.6-.2 1.3-.6-.6-.9 1.9-3.2 2.7-2.5.3.3 1.3-.5 2.4-1.7 1.5-1.8 1.6-2 .2-.9-2.1 1.6-2.4-.1-.4-1.8.8-.6 1.9-2.5 2.6-4.1s1.6-2.8 2-2.5c.4.2.5-.7.2-2.1-.3-1.5 0-2.9.6-3.3 1.3-.8-1-15.7-3.2-19.9-1.9-3.7-2-4.6-.3-3.6.7.4.9.3.4-.2s-1.4-.9-1.9-.9c-.6 0-1.3-.6-1.6-1.4q-.45-1.35.9-.6c.8.5 1.2.6.9.2-.3-.3-.9-.6-1.5-.7-1.8-.3-4.5-3.2-3.8-4.3.3-.5.2-.8-.3-.4-.5.3-2.3-.6-3.9-2-1.7-1.4-2.4-2.2-1.6-1.8.9.5 1.2.4.7-.3-.4-.6-1.4-.8-2.3-.5-1.1.4-1.4.3-.9-.5s.1-1-1-.5c-1.1.4-1.5.3-1.1-.4.5-.7-.1-.9-1.5-.5-1.6.4-1.9.2-1.3-.8.5-.8.4-1.1-.2-.7-1.4.9-7.4-.3-6.8-1.2.2-.4-1-.5-2.7-.3-2.1.3-2.9.1-2.4-.7.7-1.1-.6-1.6-1.6-.6m4 21.3c1.2.7 1.9 1.8 1.6 2.4-.5.7-.2.8.5.4 1.6-1 5.3 2.4 4.6 4.1-.2.8-.1 1.2.4.9 1.4-.9 3.1 4.3 3.1 9.5 0 3.4-.4 4.8-1.1 4.3-.8-.5-.8-.1 0 1.4 1.5 2.9 1.4 3.7-.4 2.2-1.3-1.1-1.4-1-.9.5.5 1.2.4 1.6-.4 1.1-.6-.3-1.4-.1-1.8.5-.4.8-.3.9.4.5 1.8-1.1 1.4.3-.7 2.5-1.2 1.3-2.5 1.8-3.2 1.4-.8-.5-1-.4-.5.4.5.7-.6 1.7-2.9 2.6-2.8 1.2-7.1 1.5-19.8 1.3l-16.2-.3-.3-2.8c-.2-1.5-.8-2.5-1.3-2.2-.5.4-.9.1-.9-.4 0-.6.5-1.1 1-1.1.6 0 1-.5 1-1.1 0-.5-.4-.8-.8-.5-.4.2-.8-.7-.9-2.2-.2-2.4-.1-2.4.7-.7.9 2.1.6-5.9-.6-14.8-.3-2.6-.2-4.7.2-4.7.5 0 1-1.5 1.1-3.3.2-2.3 0-2.8-.7-1.7-.6.9-1 1-1 .3s.6-1.6 1.4-2c2.3-1.3 35.8 0 38.4 1.5m-.8 55.2c2 .5 4.5 1.7 5.5 2.6 1.1.8 1.4 1.2.6.8-.9-.4-1.2-.3-.7.4.4.6 1.3.9 2 .6 1.7-.6 4 2.2 3 3.7-.4.8-.3.9.4.5 1.2-.7 1.6.5 1.3 3.3-.2.7.2 1 .7.7s.7.7.5 2.2c-.4 2.1-.2 2.4.6 1.2.8-1.1 1.1-.3 1.1 3.6 0 6-1.7 11.7-3.3 10.7-.6-.4-.7-.1-.2.6.9 1.6-3.4 6.3-5.2 5.7-.7-.3-1.2 0-1 .6.5 2.6-6.8 3.7-24.5 3.7-20.4.1-18.1 1.5-18.1-10.9.1-4.9-.1-5.8-.7-3.5-.8 3-.8 3-.9-.8-.1-2.3.3-3.6.9-3.2.6.3 1 .1 1-.4 0-.6-.4-1.1-1-1.1-.5 0-1-1.7-1-3.8q0-3.6.9-2.4c.5.9.7-.3.5-3-.1-2.3 0-6.2.3-8.6l.6-4.2h16.6c9.1 0 18.2.5 20.1 1m31 45.4c0 .2-.7.9-1.5 1.6-1.3 1.1-1.4 1-.9-.4s2.4-2.3 2.4-1.2"/><path d="M1749.2 1245c0 1.9.2 2.7.5 1.7.2-.9.2-2.5 0-3.5-.3-.9-.5-.1-.5 1.8m32.1 45.7c.9.2 2.3.2 3 0 .6-.3-.1-.5-1.8-.5-1.6 0-2.2.2-1.2.5m18.8 23.9c0 1.1.3 1.4.6.6.3-.7.2-1.6-.1-1.9-.3-.4-.6.2-.5 1.3m-17.3 15.1c.7.3 1.6.2 1.9-.1.4-.3-.2-.6-1.3-.5-1.1 0-1.4.3-.6.6m725.3-114c-2.2.3-3.5 1.1-3.8 2.4-.3 1-.9 1.7-1.3 1.4-.5-.3-.6.5-.2 1.7.3 1.2.1 1.9-.5 1.5s-.9 1.3-.9 4.3c.1 2.7-.4 5.4-1.1 6.1-.6.6-4.1 1.2-7.6 1.3-3.6 0-6.3.4-6.1.8.6 1-3.4 2-4.7 1.2q-1.05-.6-.6.3c.4.6-.6 1.6-2.2 2.2-1.5.7-4.5 3-6.6 5.1-2.1 2.2-4.3 3.6-4.8 3.3-.6-.3-.7-.1-.3.5.7 1.2-2.4 8.3-3.4 7.7-.3-.2-.6 4.5-.6 10.5.1 6.4.5 10.6 1 10.2.5-.3.6.2.3 1.2-.4.9-.3 1.5.2 1.2 1-.7 2.3 2.2 1.6 3.4-.3.5.4.7 1.5.5s1.8 0 1.5.5 0 1.2.6 1.5c.5.4.8 1.4.5 2.2s-.2 1.1.4.8c1.1-.7 5.1 2.5 4.5 3.6-.3.4.3.6 1.3.5.9 0 1.6.4 1.5 1.1-.2.7.3 1 1 .7.7-.2 2.1.3 3.2 1.2 1.1.8 1.4 1.2.6.8-.9-.4-1.2-.3-.7.4.4.6 1.3.9 2 .6.9-.3 1.3.7 1.4 3.8s-.1 3.9-.8 2.8-.8-.5-.4 2c.4 2.8.3 3.2-.6 2s-1-1.1-.5.8c.9 3.1-.4 8.9-1.6 7.1-1.2-1.9-1.1-.6.1 2.5.6 1.6.6 2.7 0 3.1s-1 1.5-1 2.6c0 1.2-.4 1.7-1.1 1.3-.8-.4-.9.1-.4 1.6.5 1.4.3 2-.3 1.6-.6-.3-1.2-.1-1.4.5-.3.8-1.8.4-4.6-1-2.4-1.2-4-2.6-3.7-3.1s0-1.2-.6-1.6c-.8-.4-.9-.3-.5.4.9 1.6-.7 1.5-2.2 0-.9-1-1.6-.8-3 .6-.9 1.1-1.1 1.6-.4 1.2 1.6-1 1.5-.1-.2 1.3-1.1.9-1.6.9-2.2 0-.5-.8-.3-.9.6-.4s1.1.4.6-.4c-.6-.9-1.1-.9-2.2 0-.7.6-1.2 1.5-.9 1.9.7 1.1-4 8.1-4.9 7.5-.3-.3-.1.1.4.7.6.7 1.8 1.3 2.8 1.3.9 0 1.7.7 1.7 1.5.1.8.6 1.4 1.3 1.2.7-.1 2.5.4 4.1 1.3 1.6.8 3.1 1.1 3.5.8.5-.5.9.9.8 2.7 0 .3 1.5.5 3.5.4 3.2-.1 3.4.1 1.7 1.3s-1.7 1.3.4 1.3c1.2 0 2.2.4 2.2.9s.3 1.7.7 2.7c.4 1.2.3 1.5-.5 1-.8-.4-1.2 0-1.2 1.1 0 1.5-.2 1.6-1 .3-.7-1.1-.8-.5-.4 2 .3 2.1.2 3-.3 2.3s-.8.3-.8 2.8c0 2.1.3 4 .7 4 1.4.2 2.2.5 5.3 1.8 1.7.8 4.2 1.4 5.7 1.5 1.6 0 2.8.5 2.9 1.1 0 .5.4.1.9-1 1.2-2.7 1.2-4.3 0-2.5-1.4 2.1-1.2.9.6-6.5.9-3.6 1.9-6.3 2.3-6.1.4.3 1.3.1 2.1-.5 1.3-.7 1.3-.9 0-.9s-1.3-.1 0-1c.9-.5 1.9-.5 2.7.2 2.2 1.8 15.4 0 22-3.1 3.2-1.5 6.4-3.5 7.2-4.4.7-.9 1.7-1.4 2.2-1.1s.8 0 .7-.8c-.2-.7.2-1.2.8-1.1.7.1 1.1-.5 1-1.5 0-.9.4-1.6.9-1.5.6.1 1.1-.6 1.2-1.5 0-.9.8-4.6 1.8-8.1 1.3-4.9 1.5-7.8.9-12-.5-3.1-.8-6.4-.8-7.3s-.4-1.4-.9-1.1c-.6.4-.8-.1-.4-1.1s.3-1.5-.3-1.1c-.9.6-1.4-.7-1.1-2.7 0-.4-.7-.4-1.7-.1-.9.3-1.4.3-1-.2.4-.4-.6-1.8-2.2-3.2-1.6-1.3-2.9-3-2.7-3.6.1-.7-.4-1.1-1.1-.9-1.9.3-5.4-1.7-4.7-2.8.4-.6-.1-.7-1.1-.3-1.2.4-1.5.3-1-.5s.1-1-1-.5c-1.3.5-1.5.3-.9-.7q.75-1.35-.3-.6c-.6.4-2.4 0-3.9-.8-1.6-.8-2.3-1.5-1.8-1.6.6 0 .3-.5-.5-1-.9-.6-1.5-2.5-1.6-5 0-3.9.1-4 1.3-1.8 1.5 2.8 1.6 2.3.4-2-.5-1.7-.6-3.2-.2-3.2 1.1 0 3.5-10.6 2.7-11.9-.4-.6-.3-1.1.3-1.1.5 0 1.1-1 1.3-2.3.2-1.2 1-2.2 1.8-2.2.8-.1 1.4-.6 1.3-1.2s.6-.9 1.7-.6 1.7 1 1.3 1.6q-.45.9.6.3c1.5-.9 5.3.3 4.6 1.5-.3.5.2.6 1.1.2 1.1-.4 1.5-.2 1.1.4s.1 1 1 .9c1 0 1.8.4 1.8 1.1 0 2.1 3.8 4.3 5.3 3.1 1-.8 1-1.4 0-2.7-.7-.9-.9-1.3-.4-.9s1.6-.1 2.5-1c1-1.1 1.2-1.2.6-.2s-.2.9 1.2-.4c2.1-1.7 2.3-4.3.2-3.1-1.6 1.1-1-1.2.8-2.6 1.5-1.2 1.6-1.2.8.1s-.7 1.3.8.1c1.9-1.5 2.3-4.1.6-4.1-.5 0-.7-.5-.3-1.2s.3-.8-.4-.4c-1.6 1-5.4-1.2-4.6-2.6.4-.7.3-.8-.4-.4-1.6 1-5.4-1.2-4.6-2.6.4-.7.3-.8-.5-.4-1.5.9-5.3-.3-4.6-1.5.3-.5-.1-.6-1-.3-1 .4-2.4-.2-3.6-1.5-1.1-1.1-2.4-2.1-2.9-2.1-.6 0-1-.5-1-1.1 0-.5.4-.7 1-.4.7.4.7-.3 0-1.9-.6-1.7-.6-2.6 0-2.6s1-1 1-2.3c0-1.8.2-1.9 1-.7.8 1.1.9.7.4-1.5-.3-1.7-.7-3.6-1-4.3-.2-.8.1-1 .8-.6s.8.3.4-.5c-.5-.7-1.6-.9-2.9-.5-1.9.6-2 .5-.9-.8 1-1.3.8-1.5-1.4-1-1.9.3-2.5.1-2-.7.4-.6.4-1-.1-.9-.4 0-2.3.3-4.2.5m-12.3 36c-.1.5.4 2.1 1 3.6 1.4 3.3 1.5 4.8.3 2.9-.6-1-1-.3-1.5 2.2-.4 2-.4 4.1 0 4.8.5.7.3.8-.6.3-1-.6-1.2-.1-.8 1.9.4 1.9.2 2.4-.7 1.6-.8-.7-1-.2-.7 2.2.3 2 .1 2.9-.6 2.4-.6-.3-.8.1-.5 1.3.4 1.5 0 1.8-2.1 1.6-3-.4-4.6-1.3-4.6-2.6 0-.6.6-.7 1.3-.3.8.5.8.2-.2-.9-1.5-1.9-2.6-2.3-1.5-.5.5.7.3.8-.5.4-.7-.5-1-1.5-.6-2.3.4-1.2.2-1.3-.8-.5-1 .9-1.2.4-.9-2.4.2-1.9.8-3.7 1.3-4s.9-1.1.9-1.7c0-.7-.4-.6-1 .3-1.9 2.9-1-.5 1-3.7 2.3-3.9 6.4-6.7 8.5-5.9.9.3 1.3.2 1-.4s.1-1 .9-1c.9 0 1.5.3 1.4.7m36.7 9.5c.5-.4.5-.1.1.6-.6 1-1.1 1-2.2.1-.8-.6-1.4-1.4-1.4-1.6 0-.3.6 0 1.3.6.8.6 1.8.7 2.2.3m-26.2 46.2c-.4.5-.1.6.6.1 1.6-.9 7.3 4.4 6.4 5.9-.4.6 0 .5.9-.2 1.5-1.2 1.6-.9 1.3 2.2-.2 2 .1 3.3.6 3 1.4-.8 1.1 3.2-.5 6.9-2.4 5.7-5.9 8-12.7 8.5-7 .5-8.3-.3-8.5-5.5-.1-3.3 0-3.4 1.3-1.7 1.2 1.6 1.3 1.5.7-1.6-.3-2.1-.2-3 .3-2.3.6.8.9 0 1-2.5.2-7.5.8-12 1.5-11.6.5.3.8-.1.8-1s.8-1.3 2.5-1.1c2.2.2 2.3 0 1.3-1.3-1.2-1.3-1-1.4.9-.2 1.2.8 1.9 1.8 1.6 2.4"/><path d="m2486.4 1256.2-1.9 2.3 2.3-1.9c2.1-1.8 2.7-2.6 1.9-2.6-.2 0-1.2 1-2.3 2.2m22.6 53.2c0 .2.8 1 1.8 1.7 1.5 1.3 1.6 1.2.3-.4s-2.1-2.1-2.1-1.3m2.4 19.8-1.9 2.3 2.3-1.9c2.1-1.8 2.7-2.6 1.9-2.6-.2 0-1.2 1-2.3 2.2m-73.3-98.3-10.3.6-.1 20-.1 20-.5-16.5-.6-16.5-.5 17.5-.5 17.5-2.4-2.7c-1.4-1.6-2.9-2.4-3.9-2.1-1 .4-1.3.2-.8-.5.5-.8.1-1-1-.5-1.3.5-1.5.3-.9-.7.5-.8.4-1.1-.3-.7-1.4.9-4.3-.3-3.6-1.4.5-.9-2.4-.6-6.3.7-2.1.6-1.5-.6.6-1.4 1.1-.4-2.2-.7-7.4-.7s-8.8.4-8.2.8c.7.5-.2.6-2.1.3-2.3-.4-3.1-.2-2.6.6s.2.9-1 .5c-.9-.4-1.5-.3-1.2.2s-.1 1.2-1 1.5c-2.2.9-2.6.8-1.8-.6.4-.7.3-.8-.5-.4-.6.4-.9 1.1-.6 1.6.6 1-2.3 2.2-3.5 1.5-.9-.6-2.3 1.2-2.6 3.3-.3 1.4-5.5 5.8-6.5 5.5-.4-.1-.6.5-.5 1.5 0 .9-.4 1.6-1 1.5s-1 .9-.8 2.2c.1 1.4-.2 2.5-.6 2.5-.5 0-1.2.9-1.5 2-.4 1.1-1 1.8-1.5 1.5-.4-.3-.6.5-.2 1.7.3 1.4.1 1.9-.6 1.4-.7-.4-1-.2-.8.6 1.2 3.8 1.6 7.2.7 5.9-.7-1-1.1 1.7-1.3 8.6-.2 5.6 0 9.9.4 9.7.3-.2.9.9 1.3 2.6.4 1.6 1.1 3 1.6 3 .6 0 .5.9-.2 2.1-.9 1.7-.8 2 .2 1.4q1.35-.9.6.9c-.4 1-.3 1.5.3 1.1 1.1-.7 3.3 3.2 2.5 4.5-.4.6-.2.9.2.8 1.4-.5 10.3 8.4 9.6 9.5-.3.6-.1.7.5.3s3.5.5 6.4 2 7.2 2.8 9.6 2.9c2.4.2 4.6.6 4.9.9 1 .9 8.5.7 7.9-.2-.3-.5.8-.7 2.3-.4 1.6.2 5-.5 7.6-1.7 2.6-1.1 5.1-1.9 5.5-1.6.4.2 1.6-.5 2.6-1.8l1.9-2.2-2.5 2-2.5 2 1.9-2.3c2.8-3.3 4.6-2.8 4.6 1.3v3.5h21v-7.8c0-4.2.1-30.8.3-59 .1-28.1.2-51.1.2-51s-4.7.4-10.4.7m-26.3 50.7c1.3.2 2 .9 1.7 1.4s0 .7.7.5c.8-.3 2.2.2 3.3 1.1 1.1.8 1.4 1.2.6.8-.9-.5-1.2-.3-.7.5.4.6 1.2.9 1.7.5 2.4-1.4 8.4 8 7.2 11.2-.4 1.2-.3 1.5.5 1 .7-.4 1.2-.6 1.3-.4.7 3 1.2 15.8.7 15.8s-.8.7-.8 1.6c0 .8-.4 1.3-.9 1-.5-.4-.7.2-.4 1.3.3 1 0 2.2-.6 2.5-.7.5-.9 0-.5-1.1.5-1.4.4-1.5-.4-.4-.6.8-.8 1.9-.6 2.5.6 1.6-6.2 8-7.5 7.1-.7-.4-1-.1-.9.7.2.8-.6 1.3-1.9 1.2-1.7 0-2 .3-1.2 1.2s.5 1.1-1 .7c-1.2-.3-2.1-.1-2.1.4 0 1.1-12.3-.1-16.3-1.6-1.7-.7-2.5-1.5-2.1-2.3.4-.7.3-.8-.5-.4-1.4.9-4.3-1.2-3.6-2.4.3-.5 0-1.2-.6-1.6-.8-.4-.9-.3-.5.4s.5 1.2.2 1.2c-1.3 0-5.7-8.3-5.2-9.6.3-.9.1-1.2-.4-.9-.6.3-1-.1-1-1s-.4-1.4-.9-1c-.6.3-.8-.5-.6-1.7.2-1.3.6-4.9 1-8.1.4-3.7 1-5.5 1.7-5.1s.8.2.4-.5c-1-1.6.3-5.3 1.6-4.5.7.5.8.2.3-.5-.9-1.6 6.4-9.3 8.3-8.6.7.2 1 .1.7-.4-1.8-2.9 9.9-4.4 19.3-2.5"/><path d="m2387.4 1288.2-2.9 3.3 3.3-2.9c1.7-1.7 3.2-3.1 3.2-3.3 0-.8-.8-.1-3.6 2.9m39.7 15.4c0 1.1.3 1.4.6.6.3-.7.2-1.6-.1-1.9-.3-.4-.6.2-.5 1.3m-46.8 3.9c0 2.7.2 3.8.4 2.2.2-1.5.2-3.7 0-5-.2-1.2-.4 0-.4 2.8m46.8 4.1c0 1.1.3 1.4.6.6.3-.7.2-1.6-.1-1.9-.3-.4-.6.2-.5 1.3m-6.2 13.1c-1.3 1.6-1.2 1.7.4.4s2.1-2.1 1.3-2.1c-.2 0-1 .8-1.7 1.7m-409.4-34.2c0 33 .1 46.4.2 29.7.2-16.7.2-43.7 0-60-.1-16.3-.2-2.7-.2 30.3m2.1-1.3.3 58.3 9.6.3 9.5.2.2-14.7.2-14.8.6 16 .6 16 .2-17.7c.1-10.8.6-17.9 1.2-18.3s.9-.1.8.6c-.2.7.2 1.3.7 1.4 1.6.1 3.5 1.5 3.5 2.6 0 .6-.6.7-1.2.3-.9-.5-.8-.2.1.9.8 1 1.6 1.5 1.9 1.2.7-.6 3.2 1.5 3.2 2.7 0 .5-.5.6-1.2.2-.7-.5-.8-.3-.4.5.5.7 1.1 1 1.4.7.7-.7 3.2 1.3 3.2 2.6 0 .5-.6.6-1.2.2-.9-.5-.8-.2.1.9.8 1 1.6 1.5 1.9 1.2.7-.6 3.2 1.5 3.2 2.7 0 .5-.6.6-1.2.2-.9-.5-.8-.2.1.9.8 1 1.6 1.5 1.9 1.2.7-.6 4.2 2.5 4.2 3.7 0 .5-.6.6-1.2.2-.9-.5-.9-.3.1.9.7.9 1.6 1.5 2 1.3.3-.2 1.5.2 2.6 1 1 .8 1.5 1.4 1 1.4-.4 0 0 .9 1 2 1.6 1.8 3.1 2 14 2 10.7 0 12.4-.2 12.9-1.7.4-1 .4-1.4 0-1s-2.3-.7-4.1-2.5c-3.3-3.2-4.5-5.6-2-4.2.8.5.8.3-.2-.9-.7-.9-1.7-1.5-2.1-1.2-1.1.7-4.1-3-3.8-4.6.2-.7-.2-1.3-.8-1.4-.5 0-2.5-1.2-4.3-2.8-3-2.5-3.2-3.2-.6-2.7.5.1.1-.8-.9-1.9-1.1-1.2-2.1-1.9-2.4-1.6-.7.6-4.2-2.5-4.2-3.7 0-.5.5-.6 1.2-.2.7.5.8.3.4-.5-.5-.7-1.1-1-1.4-.7-.7.7-5.2-3.3-5.2-4.6 0-.5.6-.6 1.3-.2.8.5.7.2-.2-.9-.8-1-1.6-1.5-1.9-1.2s-1.8-.7-3.3-2.1c-2.1-2-2.6-3.1-1.9-4.4.5-1 .7-1.9.5-2.2-.3-.3.5-1.3 1.7-2.4l2.3-1.9-2 2.5-2 2.5 2.8-2.4c2.7-2.4 3.6-3.8 1.7-2.6-1.8 1.1-1-1.1 1-3 1.1-1 2-1.4 2-1s.9 0 2-1 1.7-2.2 1.4-2.7c-.7-1.1 2.5-5 3.6-4.3.4.3 1.4-.3 2.1-1.2 1-1.2 1-1.4.2-.9-.7.4-1.3.3-1.3-.1 0-1.2 6.9-7.9 7.6-7.5.3.2.9 0 1.2-.4.4-.4.1-.4-.5 0-.8.4-1.3.1-1.3-.7s.7-1.8 1.6-2.1c.8-.3 1.2-1.1.8-1.7-.4-.7-.3-.9.4-.5.6.3 1.3.2 1.7-.4s1-.8 1.5-.5c.4.3 1.3-.1 1.9-.8 1.3-1.7 1.4-1.7-11.8-2.2-6.8-.3-11.1 0-12.5.8-1.2.6-2.4 1.1-2.8 1.2-.4 0-1.3.6-2 1.4-1 1-1 1.2 0 .7 1.9-1.1 1.4.9-.8 2.9-1.1 1-1.7 2.3-1.3 2.9s-.1.5-1-.3c-1.5-1.2-1.7-1.2-1.2.1s-3.9 6.5-5.3 6.1c-.4-.1-.6.4-.4 1.1.1.7-.5 1.9-1.3 2.6s-1.5.9-1.5.5-.6-.2-1.4.5c-.8.6-1.3 1.7-1 2.5.3.7 0 1.6-.7 2.1-.8.5-1 .3-.5-.7.4-.8-.2-.3-1.3 1l-2.1 2.3-.2-31.3-.3-31.4-.5 29-.5 29-.5-28.5-.5-28.5-9.6-.3-9.7-.3zm50.4.2c0 .2-.8 1-1.7 1.7-1.6 1.3-1.7 1.2-.4-.4s2.1-2.1 2.1-1.3m-242.9-45.8c0 1.1.3 1.4.6.6.3-.7.2-1.6-.1-1.9-.3-.4-.6.2-.5 1.3m-191.4 17.1c-7 7.1-13.1 12.7-13.8 12.5-.3 0-4.2 3.6-8.7 8.1-12.1 12.1-14.9 14.7-16.1 14.7-.6 0-1.1.9-1.1 2.1 0 2.1 8.5 10.8 10.6 10.9.6 0 1.9 1 3 2.2 1.3 1.4 1.4 1.9.4 1.4-.8-.4-.4.1.9 1.1s4.2 3.5 6.5 5.5c2.2 2.1 4.4 3.8 4.8 3.8s2.2 1.6 3.9 3.5c1.8 1.9 3.5 3.3 3.8 3 .4-.2 3.3 2.1 6.5 5.1 3.2 3.1 6.2 5.2 6.7 4.7 1.2-1.2-.1-8.4-1.4-7.6-.6.4-.8-.2-.5-1.5.4-1.2.2-2.2-.4-2.2s-.8-.9-.5-2c.3-1.3.1-1.8-.6-1.3-.6.4-.8-.2-.5-1.5.4-1.2.2-2.2-.4-2.2-.5 0-.7-1-.4-2.3.3-1.2.3-1.6 0-1-1.1 2.4-2 1.3-1.9-2.5v-3.7l42.5-.5 42.5-.5.1-2.3c.1-1.8.1-1.9-.3-.2-.4 2-1.1 2-42.6 1.8l-42.2-.3 41.7-.2 41.7-.3v-11.8l.1-11.7-40.7.2c-22.5.1-41.4-.2-42.3-.7-.9-.6 15.6-1 41.2-1 33.2 0 42.7.3 43.1 1.2.2.8.3.7.3-.2-.1-1.3-5.9-1.6-43.1-2l-43-.5-.2-2.3c-.2-1.3.1-2.1.6-1.8.4.3.6-.7.4-2.2-.3-1.6-.1-2.2.4-1.5.5.6.8-.6.9-3 0-2.3.9-5.8 2-7.7 1.8-3.4 2.6-8 1.4-8-.4 0-2.8 2.1-5.3 4.7m721.5 2 3.7.4.4 10.2.3 10.2V1273l-.1-10.5-4-.1-4-.1zm46.1 0c.9.2 2.5.2 3.5 0 .9-.3.1-.5-1.8-.5s-2.7.2-1.7.5m-522.8 1c-7.6.5-15.6 2.3-15 3.4.4.5-.5.5-2-.1-1.9-.7-2.4-.7-1.9.2.5.8.2.9-1.1.4-1.6-.6-1.6-.4-.4 1.1.8.9.9 1.4.3 1-.7-.4-1.4-.1-1.7.7s-1.6 1.2-3.1 1.1c-1.4-.2-3 .3-3.7 1.1-.6.8-.8 1.4-.4 1.4.5 0 0 .9-1 2s-2.1 1.7-2.5 1.5c-.4-.3-.7.3-.6 1.3 0 .9-.4 1.6-1 1.5-.7-.1-1.1.5-1 1.5 0 .9-.5 1.6-1.2 1.4-1-.2-1 .2-.1 2 1 2 1 2.1-.2 1.1-1.4-1.2-1.7-.2-2.2 7.9-.2 3.4-.5 3.5-1.7.5-.6-1.6-.8-.9-.5 2.8.3 2.9.2 4.1-.3 2.7-.4-1.3-.7 1.6-.7 7 0 5.1.2 8.2.4 6.8.3-1.8.8-.6 1.9 4 .8 3.6 1.5 7.5 1.6 8.7 0 1.1.4 1.9.8 1.7 1.1-.7 3 3.5 2.2 4.9-.4.6-.4.9.1.5.9-.9 3.5.9 3.5 2.4 0 .5-.6.6-1.2.2-.7-.4 0 .7 1.6 2.4 3 3.2 4.3 4.1 3.1 2.2-.3-.6-.2-1 .4-1 .5 0 1.3.5 1.6 1 .4.6 1.2.7 1.8.3.7-.4.5.2-.3 1.2s-1 1.6-.3 1.2 3.5.4 6.4 1.8c2.8 1.5 5.7 2.4 6.5 2.1s1.4-.1 1.4.5 1 .9 2.3.8c1.2-.1 3 .2 4 .6s4.6.5 7.9.1c5-.5 8.2-1.6 16.2-5.4.5-.3.5.2.1.9-.5.8.1.5 1.3-.5 2.6-2.3 2.9-3.4.5-1.5-1.5 1.1-1.6 1.1-.6-.1 2.4-2.6 4.2-2 4.9 1.6l.6 3.4h18.8l-.2-41.1-.3-41.1-9.2-.3-9.3-.3v3.1c0 5.4-1.3 6.3-4.5 3-1.6-1.5-2.2-1.9-1.4-.8 1.4 1.9 1.4 1.9-1.2 0-1.5-1.1-2.5-2.4-2.2-2.8.3-.5-.5-.3-1.8.4-2.2 1.1-2.3 1.1-1-.5 1.2-1.4 1.2-1.6-.4-1-1.3.5-1.6.4-1-.5.6-1.1.3-1.1-1.6 0-2.1 1.1-2.2 1-1.2-.2 1-1.3.6-1.4-2.5-1.2-2.9.2-3.3.1-1.7-.6 1.2-.6 1.4-.9.5-.8-.8 0-3.7.2-6.5.4m12 18.3c1.4.5 2.3 1.4 2 2-.3.5 0 .7.9.4s2 .3 2.8 1.5c.7 1.2 1.9 2.1 2.6 2.1.8 0 1.2.6.9 1.5-.4.8-.1 1.7.5 2.1.7.4.8.3.4-.4s-.5-1.2-.2-1.2c1.4 0 4.8 8.8 5.3 13.5.7 6.4-.4 12.8-1.9 11.9-.6-.4-.8.1-.4 1.3.3 1.1-.1 2.7-1 3.9-.8 1-1.2 1.3-.8.5.4-.9.3-1.2-.4-.7-.6.4-.9 1.2-.6 1.9.6 1.8-5.1 7.1-6.7 6.2-.8-.6-1-.4-.4.5.6 1 .4 1.2-.9.7-1-.4-1.5-.3-1.1.3.9 1.4-7.2 3.2-12.9 2.7-5.8-.5-8.8-1.5-8-2.8.3-.5-.2-.6-1-.3-1.9.7-9.1-6-8.1-7.6.3-.5-.1-1-1.1-1-1.1 0-1.5-.6-1.1-2 .3-1.1.1-1.8-.4-1.4-1.1.7-1.1.7-1.3-10.1-.2-9 .8-14 2.6-12.8.6.3.4-.5-.3-1.8-1.1-2.2-1.1-2.3.5-1 1.4 1.2 1.6 1.2 1.1-.1-.3-.8.2-2.1 1.2-2.9 1.7-1.3 1.7-1.3.3.6-1.2 1.7-1.2 1.8 0 .7.8-.7 1.6-1.7 1.6-2.3.1-.5.2-1.4.3-1.9 0-.6.8-1 1.7-1s1.2.5.8 1.2-.3.8.5.4c.6-.4.9-1.2.5-1.7-1.8-2.9 15.9-5.3 22.1-2.9m-33.8 26.7c-.3 1-.5.2-.5-1.7s.2-2.7.5-1.8c.2 1 .2 2.6 0 3.5m-7.6 30c1.3 1.6 1.2 1.7-.3.4-1.7-1.3-2.2-2.1-1.4-2.1.2 0 1 .8 1.7 1.7"/><path d="M1900.1 1302.6c0 1.1.3 1.4.6.6.3-.7.2-1.6-.1-1.9-.3-.4-.6.2-.5 1.3m-27.3 29.1c.7.3 1.6.2 1.9-.1.4-.3-.2-.6-1.3-.5-1.1 0-1.4.3-.6.6m87.6-66.7c-2.3.5-6.5 2-9.3 3.4-2.8 1.5-5.6 2.5-6.3 2.4-.7-.2-1.2.2-1.1.8s-1.1 2.4-2.7 3.9c-1.7 1.6-3 2.5-3 2.1 0-.5-.6-.3-1.4.4-.8.6-1.3 1.7-1 2.5.3.7 0 1.6-.7 2.1-.8.5-1 .3-.4-.6.5-.8.4-1.1-.3-.6-.6.4-.8 1.4-.5 2.3.4 1.1.3 1.4-.5.9s-1-.1-.5 1c.4 1.2.3 1.5-.5 1s-1-.1-.5 1c.4 1.2.3 1.5-.5 1-.9-.5-.9 0-.2 2.1 1 2.7.9 2.7-.6.8s-1.5-1.9-.8.9c.5 2.3.4 2.7-.6 2.1s-1.2-.4-.7.8c1.4 3.8 2 9 .8 8.3-1.8-1.1-1.3 7 .8 14.9 1.1 3.8 2.4 7.1 3 7.3.8.3.8 1 0 2.4-.7 1.4-.7 1.8 0 1.4 1.1-.7 3.6 3 3.6 5.4 0 .8.3 1.3.7 1 .9-.7 5.9 4.1 5.3 5.1-.3.4 0 1.1.6 1.5.8.4.9.3.5-.4-1-1.7.9-1.5 2.3.1.6.8.7 1.8.3 2.2-.4.5-.2.5.5.1s2.7.1 4.5 1 4.5 1.7 6 1.6c1.5 0 3 .4 3.3.9.4.5 1.7.6 3.1.3 1.4-.4 2.4-.2 2.4.5 0 3 19 .1 25.8-4 3.8-2.2 4.6-2.4 3.6-.7-.5.7-.3.8.5.4.7-.5 1-1.1.7-1.4-.7-.7 3.4-5.2 4.7-5.2.5 0 .3.8-.4 1.7-1.1 1.6-1.1 1.6.1.5.8-.7 1.5-2 1.5-3 0-.9.7-1.7 1.5-1.7 1 0 1.5-1 1.5-3.2-.1-1.8.3-2.9.9-2.6.5.3.6.1.2-.6-.4-.6-1.3-1.1-1.9-1-3 .4-4.7-.2-4.7-1.5 0-.8-.5-1.8-1.2-2.2s-.8-.3-.4.4c.5.8.2 1-.8.6-.9-.3-1.4-1-1.1-1.4.3-.5 0-1.2-.6-1.6-.8-.5-.9-.3-.4.6s.2 1-1.2.6c-1.3-.4-2.8.3-4.8 2.4-2.9 3-5.2 4.1-3.9 1.7.4-.7.3-.9-.2-.4s-.9 1.4-.9 2c0 .7-1.5 1.6-3.2 2.2-1.8.5-3.3 1.2-3.3 1.5 0 1-14.6-.7-16.9-2-1.2-.6-1.8-1.6-1.5-2.2.5-.7.2-.8-.5-.3-1.6.9-7.3-4.4-6.7-6.2.3-.7.2-1.2-.2-1.2-2 .3-2.8-.3-2.9-2.3-.1-1.3-.6-2.4-1.2-2.6s-.6-1.4.1-3.3c.6-1.8.8-5.5.4-8.7-.4-4.1-.3-5.3.4-4.2.8 1.1.9.8.4-1.4-.5-2-.4-2.7.4-2.2s1 .1.6-.9c-.7-1.7 1.4-4.8 2.7-3.9.5.3.6-.1.3-.9-.6-1.6 1.8-3.9 3.7-3.5.7.2 1.3-.4 1.4-1.2.1-3.5 12.8-6.1 20.1-4.1 4.7 1.3 9.7 4.8 8.8 6.2-.3.5 0 .8.8.7.7-.2 1.3.5 1.3 1.4s.4 1.9.8 2.2.5.3.2-.1c-.6-.7 5.9-3.4 8.6-3.6.9-.1 1.6-.8 1.4-1.7-.3-2.2 1.6-3 3.9-1.8 1.2.6 1.8.7 1.4.3-.4-.5-.2-1.5.5-2.3 1-1.3.9-1.4-.2-.7-1.1.6-1.3.4-.8-.8.4-1 .2-1.6-.6-1.4-.7.1-1.2-.6-1.2-1.5 0-1-.6-2.3-1.3-3-.6-.6-1.2-.8-1.2-.4 0 .5-.7.3-1.5-.4s-1.2-1.7-.8-2.3c.3-.5.1-.7-.5-.3-.5.3-1.2 0-1.4-.6-.3-.7-1.3-1.3-2.4-1.3-1 0-1.8-.5-1.7-1.2.2-.8-.4-1-1.4-.6-1.1.5-1.4.3-.8-.6.6-1.1.3-1.1-1.6 0-2.2 1.1-2.3 1.1-1.1-.4 1.1-1.3 1-1.5-.7-1-1.2.3-2.3 0-2.6-.8-.6-1.6-17.4-2.2-24.1-.9m42.1 11.9c.3.5.2 1.2-.3 1.5s-.9-.1-.9-.9c0-1.7.3-1.9 1.2-.6m-54.8 32.8c-.3 1-.5.2-.5-1.7s.2-2.7.5-1.8c.2 1 .2 2.6 0 3.5m140.3-42.5c.6 1.7.7 3.4.5 3.7-.3.2-.5-.2-.5-.9s-.2-1.1-.5-.8c-1 .9.7 3.8 1.8 3.1.6-.4.8.2.5 1.5-.4 1.4-.2 2 .4 1.6.7-.5.9.3.4 2.2-.4 1.8-.3 2.4.2 1.6.6-.9 1.3 0 2.2 3.2.7 2.5 1.7 4.6 2.2 4.6s.6.5.3 1c-.8 1.2 4.4 17.3 5.7 17.8.4.2.6.8.2 1.3-.3.5.4 3.9 1.6 7.5 1.2 3.5 1.9 7.2 1.6 8-.4 1-.2 1.3.6.8s.9.2.4 2.2c-.4 1.7-.3 2.4.2 1.6.6-.8 1.8 1.9 3.7 8 1.5 5.1 3 9.9 3.3 10.7.3.9.1 1.2-.5.8-.7-.5-.9 0-.6 1.4.4 1.3.8 1.6 1.3.9.4-.7 4.6-1.1 11.6-1.1 6 0 10.4-.3 9.8-.7-.8-.5.3-5.7 3.7-17.2 2.7-9.1 4.7-17.3 4.5-18.3-.2-.9-.1-1.5.4-1.2.4.2 1.3-1.6 2-4.1.9-3.2 1.6-4.1 2.2-3.2.5.8.6.2.2-1.6-.5-2-.4-2.7.4-2.2.8.4 1 .2.6-.7-.3-.8-.1-1.8.5-2.2.6-.3 1.1-.1 1.1.5s.5.8 1 .5c.7-.4.9.3.5 2.2-.5 2.2-.4 2.5.5 1.3s1.1-1 .7 1.2c-.2 1.7 0 2.5.6 2.1s.8.2.5 1.5c-.4 1.4-.2 2 .4 1.6.7-.5.9.3.4 2.2-.4 1.9-.3 2.4.2 1.5.7-.9 1.3.2 2.2 3.8.6 2.8 1.6 5.1 2 5.1s.8.6.7 1.2c-.1 3.5.4 5.9 1.1 5.4.4-.3.8 1.7.7 4.5-.1 2.7.2 4.4.6 3.8s1.5 2.1 2.5 6l1.9 7.2 9.9-.3 9.9-.3 1.2-3.5c.8-2.4 1.4-3 1.8-2 .3.8.3.2 0-1.4-.5-2.2-.3-2.7.7-2.1.9.5 1.1.4.6-.4-.4-.6-.4-2.5-.1-4.3.6-2.3.9-2.7 1.7-1.7.7 1 .7.8.3-.9-.3-1.2-.3-3.2 0-4.3.6-1.7.9-1.9 1.7-.8.7 1 .8.8.3-.8-.8-2.9 4.6-20.8 5.7-19.1.6.8.7.5.3-1-.4-1.4.7-6.6 2.9-13.7 2-6.4 3.3-12.1 2.9-13.1s-.2-1.5.4-1.1c1.1.7 3.4-5.8 2.7-7.7-.3-.7.5-1.8 1.8-2.4l2.3-1.1-2.5-.1c-1.4-.1-6.3-.3-11-.5l-8.5-.3.1 4.4c.1 2.4-.3 4.4-.8 4.4-.6 0-.8.7-.4 1.5.7 1.8-1 2-1.8.2-.3-.6-.3-.2 0 1 .7 3.1-1.7 10.8-2.8 9.1-.6-.9-.7-.5-.3.9.6 2.3-1.4 10.5-2.4 9.9-.3-.2-.6 1-.7 2.7-.1 4.8-3.3 14.9-4.5 14.2-.6-.4-.7.4-.3 2.1.7 2.8.7 2.9-1.7 1.2-1.7-1.1-2.3-2.4-2.2-4.5.2-1.8-.1-2.3-.6-1.5-1.1 1.9-2.4-3.2-1.6-6.1q.6-2.25-.3-.9c-1.2 1.7-4.8-10-3.6-11.9.6-1.2.5-1.2-.8-.1-1.4 1.1-1.6 1-1.1-.9.4-1.3.2-2-.4-1.6s-1-.7-1-2.5-.4-3.3-1-3.5-.8-1.3-.5-2.5c.3-1.3.1-1.9-.5-1.5-.7.5-.9 0-.6-1.3.3-1.1.1-2-.3-2-.9 0-1.5-2.9-1.8-8.6l-.1-3-4.6.7c-6.9 1.1-13.4 1.4-14.6.6-.7-.5-.9 0-.5 1.5s.2 1.9-.7 1.3c-1-.5-1.1-.2-.7 1.3.9 2.7-1.4 10.3-2.7 9.5-.6-.4-.7-.1-.3.6 1.1 1.8-2.5 14.5-3.6 12.9q-.9-1.35-.3.9c.7 2.6-1.4 10.5-2.6 9.7-.5-.3-.4.7.1 2.1 1.4 3.6 1.3 4-.7 2.4-1.3-1.1-1.5-1.1-.9-.1 1.1 1.8-.2 6.4-1.5 5.6-.7-.4-.9.1-.4 1.5.7 2.3-.1 2.6-2.5 1.1-.8-.5-1.1-1.2-.8-1.6.7-.7-1.4-3.4-2.3-2.9-.3.2-.5-1.9-.4-4.8.1-2.8-.1-4.5-.3-3.9-.2.7-.8 1.2-1.3 1.2s-.4-1.1.1-2.6c1.2-3.1 1.3-4.4.1-2.6-1.1 1.8-2.4-3.1-1.6-6.1.5-1.6.4-1.8-.3-.8-.7.9-1.3-.1-2.2-3.8-.6-2.8-1.5-5.1-1.9-5.1s-.7-2.2-.6-5c.1-3.2-.2-4.5-.8-3.7-.5.7-.7.1-.3-1.8.3-1.7.3-2.4 0-1.8-.3.7-1 1.3-1.5 1.3-.6 0-.8-.4-.5-.9.4-.5.2-2-.3-3.3-.8-2.2-1.4-2.4-10.2-2.7-5.1-.1-9.7-.4-10-.7-.4-.2-.4 1 .1 2.8m149.6-2c.6.9-3.4 2.1-4.6 1.3-.6-.4-1-.3-.9.2.1.4.1 1.4 0 2.2-.1 1.1-.4 1.1-1.8 0-1-.9-1.4-.9-1-.2.5.7-.2 1.7-1.5 2.4-2 1-2.2 1-1.3-.2.6-.8-.1-.3-1.5 1.1s-2.1 1.9-1.5 1c.6-1 .2-.9-1.2.4-1.3 1-2 2.3-1.7 2.8.7 1.1-1.5 4-2.6 3.3-.4-.3-.7.3-.6 1.3 0 .9-.4 1.6-1.1 1.5-.8-.2-1 .4-.6 1.4.4 1.1.3 1.4-.5.9s-1-.1-.5 1c.4 1.2.3 1.5-.5 1s-1-.1-.5 1c.4 1.1.3 1.5-.4 1.1-.7-.5-.9.1-.5 1.5.3 1.3.1 1.9-.5 1.5s-.8.4-.6 2.1c.4 2.1.2 2.4-.6 1.2-.9-1.1-1-.4-.6 3 .3 3 .2 3.7-.3 2-.5-1.6-.8.9-.7 6.7 0 5 .3 8.7.6 8.1.4-.5.9.6 1.3 2.6.9 5 4.2 12.4 7.2 16.3 2.6 3.5 3.1 4.8 1.2 3.7-.7-.4-.2.5 1.1 1.9 2.6 2.8 4.2 3.8 2.1 1.2-.7-.8-.8-1.5-.3-1.5 1.2 0 4.2 3.1 4.1 4.3 0 .5.4 1.2.8 1.5.4.4.4.1 0-.6-1-1.7-.5-1.6 4.8 1.4 2.6 1.4 5.3 2.4 6 2.1s1.8-.1 2.4.5c.7.7 4.8 1 9.9.9 12.4-.2 15.2-.5 14.5-1.5-.3-.5.2-.7 1.1-.3 1 .4 1.6.2 1.4-.5-.1-.6.4-1.3 1.2-1.6.9-.3 1.1 0 .6.8-.5.9-.4 1.1.4.6.9-.6.9-1.2-.1-2.4-.7-1-.8-1.4-.3-.9.4.4 1.7-.1 2.7-1 3.9-3.5 5.3-2.2 5.1 4.4-.1 1 2.4 1.3 9.3 1.3h9.4v-41c0-38.3-.1-41-1.7-41.1-1 0-4.9-.1-8.8-.1h-7l-.8 4c-.8 4.2-2.5 4.9-5 2.2-1-1.1-.8-1.1.8 0 1.5 1.1 1.4.8-.4-1.3-2.6-2.9-3.6-3.5-2.6-1.5.4.7 0 .5-.8-.4-.8-1-1.7-1.5-2-1.1-.4.3-.7.1-.7-.6s-.4-1-.9-.7c-1.2.8-4.2-.4-3.6-1.4.2-.4-5.4-.7-12.5-.6-7 0-12.6.4-12.4.8m25.6 17c1.5.6 2.5 1.5 2.1 2.1s-.1.7.6.2c1.6-.9 9.3 6.4 8.6 8.3-.3.8 0 1 .7.6.8-.5.9-.2.5 1-.4 1-.3 1.5.3 1.1.6-.3 1-.1 1 .5s.5.8 1.1.4c.9-.5 1 .1.5 2-.4 1.5-.3 2.5.1 2.3.5-.3.5 2.9.2 7.1-.4 4.2-.5 8-.2 8.4.2.5 0 .8-.5.8s-1.4 1.2-2 2.6c-.7 1.4-1.7 2.2-2.2 1.9s-.7 0-.5.7c.7 1.9-4 6.2-5.6 5.3-.8-.6-1-.4-.4.5.6 1 .4 1.2-1.1.6-1-.4-1.5-.4-1.1 0 1 1-2.2 3-6.1 3.9-4.3.9-13.4-.3-12.5-1.8.4-.6 0-.8-1-.4-1 .3-1.7.2-1.7-.3s-.6-.7-1.4-.4-1.7 0-2.2-.7c-.5-.8-.3-1 .6-.4.9.5 1.1.4.6-.4-.4-.6-1.2-.9-1.7-.5-1.4.8-6.1-3.7-5.5-5.3.3-.7 0-1.2-.7-1-.7.1-1.2-.8-1.1-2 0-1.8-.2-2-1.3-1.1s-1.2.6-.3-1.6c1.4-3.8 1.3-4.3-.5-2-1.5 1.8-1.5 1.7-.8-1.6.4-1.9.7-5.9.6-8.8-.2-3.8.1-5.1.9-4.6s.9.2.5-.9c-.3-1-.2-1.7.4-1.7s.8-.4.5-.9c-.9-1.4.5-4.2 1.7-3.4.6.4.7.1.2-.6-1.6-2.7 8.8-10.8 12.6-9.8 1.1.3 1.7.1 1.4-.3-1.2-1.9 9.7-1.8 14.7.2m-34 26c-.8.8-.9.4-.5-1.3.4-1.3.8-1.8 1.1-1 .2.7-.1 1.8-.6 2.3"/><path d="m2237.4 1288.2-1.9 2.3 2.3-1.9c2.1-1.8 2.7-2.6 1.9-2.6-.2 0-1.2 1-2.3 2.2m32.6.3c1.3 1.4 2.6 2.5 2.8 2.5.3 0-.5-1.1-1.8-2.5s-2.6-2.5-2.8-2.5c-.3 0 .5 1.1 1.8 2.5m7.1 15.1c0 1.1.3 1.4.6.6.3-.7.2-1.6-.1-1.9-.3-.4-.6.2-.5 1.3m0 8c0 1.1.3 1.4.6.6.3-.7.2-1.6-.1-1.9-.3-.4-.6.2-.5 1.3m-24.3 20.1c1.2.2 3 .2 4 0 .9-.3-.1-.5-2.3-.4-2.2 0-3 .2-1.7.4m76.5-63.2c0 2.7.2 3.8.4 2.2.2-1.5.2-3.7 0-5-.2-1.2-.4 0-.4 2.8"/><path d="M2345 1265.1c-1.9.4-4.1.6-4.9.3-1.2-.4-1.2-.2 0 1.3.8.9.9 1.4.2 1-.6-.4-2.5.4-4.1 1.8-1.6 1.3-3.2 2.1-3.6 1.8-.4-.4-.4 0-.1.9.4 1.1 0 2-1.3 2.7-2.7 1.4-3.2.6-3.2-5.1v-4.8h-6.4c-3.4 0-7.7.5-9.5 1.1l-3.1 1.1v38.8c0 21.4-.3 39.5-.6 40.4-.5 1.4.7 1.6 9.9 1.6h10.6v-21.3c0-25 .7-30.4 4.8-35.5 3.5-4.5 10.5-8.1 15.8-8.4l4-.1v-9.3c0-9.4 0-9.4-2.5-9.3-1.4.1-4.1.5-6 1m-47.5 40.4c0 22 .1 30.9.2 19.7.2-11.2.2-29.2 0-40-.1-10.8-.2-1.7-.2 20.3m9 2c0 22.5.1 31.9.2 20.8.2-11.1.2-29.5 0-41-.1-11.4-.2-2.4-.2 20.2m-337.2-24.8c.9.2 2.5.2 3.5 0 .9-.3.1-.5-1.8-.5s-2.7.2-1.7.5m-254 13.3c0 4.7.2 6.6.4 4.2.2-2.3.2-6.1 0-8.5-.2-2.3-.4-.4-.4 4.3"/><path d="m2335.4 1290.2-1.9 2.3 2.3-1.9c2.1-1.8 2.7-2.6 1.9-2.6-.2 0-1.2 1-2.3 2.2m-2.9 3.9c-.4.6-.5 1.2-.2 1.5.2.3.7-.2 1-1.1.7-1.7.1-2-.8-.4m-1.4 4.5c0 1.1.3 1.4.6.6.3-.7.2-1.6-.1-1.9-.3-.4-.6.2-.5 1.3m-151 5c0 1.1.3 1.4.6.6.3-.7.2-1.6-.1-1.9-.3-.4-.6.2-.5 1.3m178.2 3.4c0 3 .2 4.3.4 2.7.2-1.5.2-3.9 0-5.5-.2-1.5-.4-.2-.4 2.8m-27.9 10c0 7.4.1 10.5.3 6.7.2-3.7.2-9.7 0-13.5-.2-3.7-.3-.6-.3 6.8m-151.3-9.4c0 1.1.3 1.4.6.6.3-.7.2-1.6-.1-1.9-.3-.4-.6.2-.5 1.3m-352.8 3.9c0 2.2.2 3 .4 1.7.2-1.2.2-3 0-4-.3-.9-.5.1-.4 2.3m127.7 12.9c0 .2.8 1 1.8 1.7 1.5 1.3 1.6 1.2.3-.4s-2.1-2.1-2.1-1.3m-216.7 25.3c.9.2 2.3.2 3 0 .6-.3-.1-.5-1.8-.5-1.6 0-2.2.2-1.2.5m16 0c.9.2 2.5.2 3.5 0 .9-.3.1-.5-1.8-.5s-2.7.2-1.7.5m20.5 0c3.4.2 8.8.2 12 0 3.1-.2.3-.3-6.3-.3s-9.2.1-5.7.3m139 0c.7.3 1.6.2 1.9-.1.4-.3-.2-.6-1.3-.5-1.1 0-1.4.3-.6.6m104 0c.7.3 1.6.2 1.9-.1.4-.3-.2-.6-1.3-.5-1.1 0-1.4.3-.6.6m71 0c.6.2 1.8.2 2.5 0 .6-.3.1-.5-1.3-.5s-1.9.2-1.2.5m27 0c.7.3 1.6.2 1.9-.1.4-.3-.2-.6-1.3-.5-1.1 0-1.4.3-.6.6m56.5 0c.9.2 2.5.2 3.5 0 .9-.3.1-.5-1.8-.5s-2.7.2-1.7.5m137.5 0c.6.2 1.8.2 2.5 0 .6-.3.1-.5-1.3-.5s-1.9.2-1.2.5m-427 1c.7.3 1.6.2 1.9-.1.4-.3-.2-.6-1.3-.5-1.1 0-1.4.3-.6.6m361 0c.7.3 1.6.2 1.9-.1.4-.3-.2-.6-1.3-.5-1.1 0-1.4.3-.6.6m150 0c.6.2 1.8.2 2.5 0 .6-.3.1-.5-1.3-.5s-1.9.2-1.2.5m16 0c.7.3 1.6.2 1.9-.1.4-.3-.2-.6-1.3-.5-1.1 0-1.4.3-.6.6"/></g><path fill="#2563eb" d="M2537 1252.5c-.7.9-1 1.8-.7 2.1s1-.4 1.7-1.5c1.3-2.5.8-2.7-1-.6m-523.7 15.5c0 2.5.2 3.5.4 2.2.2-1.2.2-3.2 0-4.5-.2-1.2-.4-.2-.4 2.3m340 4.5c0 4.4.2 6.1.4 3.7.2-2.3.2-5.9 0-8-.2-2-.4-.1-.4 4.3m-45.1 33.7.3 40.3.2-39.4c.3-30.1.6-39.7 1.6-40.3.8-.5.7-.8-.5-.8-1.7 0-1.8 2.5-1.6 40.2m-294.8-2.2c0 13.5.2 19 .3 12.2.2-6.7.2-17.7 0-24.5-.1-6.7-.3-1.2-.3 12.3m-12.4-19c-.9.6-1 1-.3 1 .6 0 1.5-.5 1.8-1 .8-1.2.4-1.2-1.5 0m-367.2.7c1.2.2 3.2.2 4.5 0 1.2-.2.2-.4-2.3-.4s-3.5.2-2.2.4m13 0c1.7.2 4.7.2 6.5 0 1.7-.2.3-.4-3.3-.4s-5 .2-3.2.4m21 0c4.6.2 11.8.2 16 0 4.2-.1.5-.3-8.3-.3s-12.3.2-7.7.3m37.5 0c1.5.2 3.7.2 5 0 1.2-.2 0-.4-2.8-.4-2.7 0-3.8.2-2.2.4m572.8 11.9c0 1.1.3 1.4.6.6.3-.7.2-1.6-.1-1.9-.3-.4-.6.2-.5 1.3m-348.9 4.4c0 1.4.2 1.9.5 1.2.2-.6.2-1.8 0-2.5-.3-.6-.5-.1-.5 1.3m299.9 12.6c0 1.1.3 1.4.6.6.3-.7.2-1.6-.1-1.9-.3-.4-.6.2-.5 1.3m232.8 11.1c-1.3 1.6-1.2 1.7.4.4s2.1-2.1 1.3-2.1c-.2 0-1 .8-1.7 1.7m-448.6 14.3c0 2.5.2 3.5.4 2.2.2-1.2.2-3.2 0-4.5-.2-1.2-.4-.2-.4 2.3m-257.5 7.7c.7.3 1.6.2 1.9-.1.4-.3-.2-.6-1.3-.5-1.1 0-1.4.3-.6.6m202 0c.7.3 1.6.2 1.9-.1.4-.3-.2-.6-1.3-.5-1.1 0-1.4.3-.6.6m6 1c.7.3 1.6.2 1.9-.1.4-.3-.2-.6-1.3-.5-1.1 0-1.4.3-.6.6"/></svg>