<svg xmlns="http://www.w3.org/2000/svg" viewBox="0 0 3730 2555"><g stroke-width="0"><path d="M1602.6 1057.1c-3.2 8.3-6.5 17.2-7.3 19.7-.9 2.6-1.7 4.8-1.8 5-.1.1-6.4-2.5-14-5.8-7.6-3.4-14.1-5.9-14.5-5.8-.5.2 3.9 14.5 9.6 31.8s10.3 31.8 10.1 32.3c-.1.4-7.5-6.3-16.5-14.9s-16.5-15.4-16.8-15.2c-.2.3-1.5 4-2.8 8.4-1.3 4.3-2.8 7.8-3.3 7.8-.4-.1-7.3-1.8-15.2-3.9-7.8-2-14.5-3.4-14.7-3.2-.3.2 2.5 7.3 6.1 15.7 3.6 8.5 6.4 15.9 6.1 16.6-.2.6-2.6 1.9-5.3 2.8-2.6.9-6.3 2.5-8.2 3.5l-3.5 1.8 4 2.6c7 4.5 55.6 33.8 56.9 34.3.7.3 2 5 3 11.5 1.6 9.9 1.9 10.8 3.4 9.6.9-.8 7.4-6 14.4-11.7 14.9-11.9 11-11.3 36.4-5.2l16.2 3.9.8-4c.8-4 1.3-4.3 20.3-16.4 10.7-6.7 23.9-14.9 29.2-18 5.4-3.2 9.8-6.1 9.8-6.5 0-.7-1.5-1.4-12.7-6.3-2.4-1-4.3-1.8-4.3-1.9s3.1-7.3 6.9-16.1 6.8-16.1 6.6-16.3-6.4 1.3-13.9 3.2c-7.5 2-14 3.6-14.4 3.6-.5 0-1.9-3.6-3.1-8-1.3-4.4-2.5-8-2.7-8-.1 0-7.5 7.1-16.4 15.7-8.9 8.7-16.5 15.9-17 16.1-.4.2 4-14.4 9.8-32.3s10.2-32.8 9.9-33.1c-.4-.4-6.7 2-14.1 5.4l-13.5 6-3.1-7.6c-8.2-19.8-11.8-28.8-12.4-30.5-.3-.9-.9-1.7-1.4-1.7-.4 0-3.4 6.8-6.6 15.1M1284 1162v14h55v140h32v-140h47.1l-.3-13.8-.3-13.7-66.7-.3-66.8-.2zm467 18.3c-.3.3-.4 30.1-.2 66.2l.2 65.7 33.8-.5c36.9-.5 39.5-.8 49.3-6.8q8.4-5.25 13.2-15.6c1.7-3.9 2.2-6.6 2.2-14.4 0-8.8-.3-10.1-3.3-16.2-3.6-7.3-9.8-13-15.3-14.2l-3.1-.7 5.6-5c8.3-7.4 10.1-11.3 10.1-22.3 0-7.4-.5-9.8-2.4-13.7-5.1-10.5-15.3-18.2-27.1-20.7-5.6-1.2-62.1-2.8-63-1.8m60.3 24.6c9.4 5.8 10.1 18.8 1.4 25.5-4.3 3.3-11.7 4.5-26.7 4.3l-10.5-.2-.3-16.3-.3-16.4 16.3.4c15.1.3 16.6.5 20.1 2.7m4.5 52.2c6.3 3.1 9.5 8.4 9.5 15.7 0 8.4-2.8 12.9-10.2 16.7-2.8 1.4-6.6 1.7-21.5 1.8l-18.1.2-.3-18.3-.2-18.2h18.2c16.5 0 18.6.2 22.6 2.1m646.7-63.8c-.9 3.9-1.9 7.9-2.1 8.8-.3 1.1-1.9 1.6-5.7 1.7-7.2.3-10.5 1.1-15.8 3.7-5.7 3-11.1 8.9-13.4 14.8-2.2 5.7-1.7 17.5.9 22.5s8.5 11.1 14.2 14.8l5 3.2-3.7 15.2c-2 8.3-3.9 15.4-4.3 15.7-1 1-9.7-2.8-13.2-5.9-1.8-1.6-3.8-2.8-4.2-2.6-1.8.6-11.2 12.2-10.9 13.2.7 2.2 12.3 9.4 18.4 11.6 4.9 1.7 6.2 2.6 5.9 3.9-.3.9-1 3.6-1.6 6.1s-1.3 5.3-1.6 6.2c-.4 1.4.6 2 4.8 3.2 11.5 3.3 10.3 3.8 12.3-5.7l1.9-8.4 8.6-.5c10.1-.6 16.7-3.1 22.3-8.6 12.3-11.9 12.3-31.6-.1-44-3.5-3.5-12-9.6-14.5-10.5-1.5-.5 5.2-28.7 6.7-28.7s7.6 3.7 10.4 6.4l2.4 2.1 5.4-6c2.9-3.3 5.4-6.5 5.4-7.2 0-2.3-10.4-8.6-19.2-11.6-1.6-.6-1.6-1.1.2-7.6 1.1-3.9 2-7.7 2-8.5 0-1.3-2.5-2.1-12.6-4.1-2-.4-2.4.3-3.9 6.8m-6.5 27.6c0 1.1-2.5 12.4-4.1 18.4-.9 3.2-1.2 3.6-2.9 2.7-2.6-1.4-6-7.3-6-10.4 0-4.1 2.5-8.1 6.2-9.9s6.8-2.2 6.8-.8m13 56.6c5.4 8.8-1 19.5-11.7 19.5-3.8 0-4.4-.3-3.9-1.8.3-.9 1.4-5.5 2.6-10.2 1.1-4.7 2.5-10.2 3-12.3l1.1-3.7 3.4 2.6c1.9 1.4 4.4 4.1 5.5 5.9m-434-23v56.5h20v-16.4c0-11.2.4-16.7 1.1-17.2.7-.4 1.5-.1 1.9.7.5.8 6.3 8.5 13 17.1l12.2 15.8h13.4c15.7 0 15.3.8 5.2-11-3.5-4.1-11.3-13.6-17.4-21.1l-11.2-13.6 14.9-16.9c8.2-9.3 14.9-17.2 14.9-17.7 0-.4-6-.7-13.2-.7l-13.3.1-10.5 12.9-10.5 13-.3-29-.2-29h-20zm353-36.8v19.6l-2.2-2c-5-4.5-8.9-5.8-17.8-5.8-9.8.1-15.1 2.1-22.2 8.7-2.3 2.1-4.3 3.8-4.5 3.8-.1 0-.3-2.7-.3-5.9 0-4.4-.4-6-1.6-6.5-4.7-1.8-11.9.6-16.4 5.6l-3 3.2v-8.4h-8.9c-6.5 0-9 .4-9.4 1.3-.8 2-.9 74.1-.1 77.1.6 2.6.8 2.6 9.5 2.6h8.9v-23.1c0-25.8.7-30.7 5.2-34.4 3.1-2.6 9.4-4.3 10.8-2.9.4.5 0 4-1 7.9-4.5 16.9-.9 33.4 9.6 43.8 7 7.1 12.2 9.1 22.9 9.1 9.5 0 14.1-1.5 19.2-6.3 3-2.9 3.3-2.7 3.3 1.9v4h17v-113h-19zm-6.9 32.8c10 6.5 11.9 28.4 3.1 36.8-12.8 12.3-31.2 3.1-31.2-15.7 0-8.1 1.5-12.9 5.2-17.2 6.7-7.6 15-9 22.9-3.9"/><path d="M1433 1209.9c-2.5.5-7 1.9-10.1 3-35.2 13.3-45.3 61.5-18.5 88.5 11.4 11.5 24.1 16 43.1 15.4 9.8-.3 11.7-.7 17.5-3.4 3.6-1.7 8.2-4.5 10.2-6.3 2-1.7 3.8-3.1 4.2-3.1.3 0 .6 2.7.6 6v6h27v-106h-27v14.4l-3.2-3.1c-4.4-4.1-10.3-7.6-16.3-9.7-5.8-1.9-21-2.9-27.5-1.7m29.5 26.5c9.1 4.1 14.5 11.4 16.5 22.4 2.6 14.4-3.6 26.4-16.5 32.4-7.6 3.5-20 3.3-27.7-.5-16.7-8.2-22-29.3-11.2-44.8 3.2-4.6 11.7-10.5 17.1-11.8 5.6-1.4 16.1-.2 21.8 2.3m201.4-22.8c-11.1 9.5-45.9 42.7-45.4 43.4.8 1.2 51.5 44.5 52.7 44.9.6.2.8-.5.3-2-1.1-3.9-9.6-30.3-10.1-31.7-.5-.9 7.7-1.2 39-1.2h39.6v-28h-38.5c-29.2 0-38.5-.3-38.5-1.2 0-.7 2-7.2 4.5-14.5s4.5-13.5 4.5-13.8c0-1.6-3.3 0-8.1 4.1"/><path d="M1518.2 1210.9c.2.5 8 9.6 17.3 20.2 21.6 24.4 26.5 30.2 26.5 31 0 .3-9.8 11.8-21.7 25.6-12 13.7-22.4 25.7-23.2 26.6-1.2 1.6-.1 1.7 16.6 1.7h17.9l14.4-16.9c8-9.3 14.9-16.9 15.3-16.8.5.1 7.2 7.7 15 16.7l14.2 16.5 18.3.3c10 .1 18.2 0 18.2-.4 0-.3-7.1-8.6-15.7-18.3-16.6-18.5-27.9-31.5-30.1-34.3-1.2-1.5.4-3.6 13.6-18 24.2-26.4 30.2-33.2 30.2-34 0-.5-9.1-.8-20.2-.8h-20.3l-7.5 9.7c-4.1 5.3-9.3 12-11.5 14.9s-4.3 5.3-4.6 5.4c-.6 0-7.4-8.3-19.3-23.8l-4.9-6.2h-19.4c-11.6 0-19.3.4-19.1.9m369.3 19c-18.8 3.6-31.5 20-31.5 40.6 0 9.2 2.9 18.9 7.6 25.2 4.9 6.6 7.8 9 15.4 12.6 6 2.9 7.3 3.2 16.5 3.2 11 0 18-2.2 22.6-7.1 3.2-3.4 3.9-3 3.9 2.1v4.6l9.8-.3 9.7-.3v-80l-9.7-.3-9.8-.3v10.2l-3.7-3c-7.9-6.3-20.4-9.2-30.8-7.2m22.5 20.4c5.3 2.7 10.4 10.3 11.4 17 1.6 10.5-3.9 20.8-12.9 24.3-6.7 2.5-17 1.7-22.4-1.9-8.8-5.9-11.8-19.9-6.5-30.6 5.6-11.1 18.5-14.9 30.4-8.8m70-20.3c-19.6 4.2-33.4 23.4-31.7 44 .9 10.8 4 17.5 11.6 25 7.3 7.2 13.1 10.5 21.1 12 17.1 3.2 32.9-1.7 42.4-13.3 2-2.4 3.6-4.6 3.6-4.9 0-.7-13.8-9.8-14.8-9.8-.5 0-1.9 1.2-3.3 2.6-5.8 6.3-18.5 9.3-26.2 6.1-15.1-6.4-18.6-26.1-6.8-37.8 9-9 21.9-8.8 31.1.5l4.4 4.5 6.6-4.6c3.6-2.5 6.9-5 7.4-5.4 1.5-1.3-4.2-8.5-9.7-12.3-2.9-2-7.2-4.2-9.6-5.1-5.5-1.9-20.1-2.7-26.1-1.5m269.2 0c-9.4 2-19.6 10-24.2 19-5.6 11-6.7 29.2-2.2 39.3 7.2 16.3 22.2 25.3 38.9 23.3 6.9-.8 11-2.5 15.6-6.6l3.7-3.2v9.2h17v-81h-17v4c0 2.2-.3 4-.6 4s-2-1.1-3.8-2.5c-1.8-1.3-4.8-3.1-6.8-3.9-4.6-1.9-15.1-2.7-20.6-1.6m21.3 20.4c2.7 1.7 5.1 4.2 7 7.8 2.6 4.5 3 6.4 3 12.8 0 9.2-2.3 14.1-8.4 18.5-3.9 2.7-5 3-12 3-6.8 0-8.3-.3-12-2.8-7.5-5-10.8-16.4-7.7-26.8 4-13.8 18-19.6 30.1-12.5m-164.5-19.8c0 .4 5.2 17.1 11.6 37.3 6.3 20.1 12 38.1 12.5 39.9l1.1 3.3 10.5-.3 10.6-.3 6.7-23.3c3.8-12.8 7-23.5 7.2-23.7.3-.3 4.8 13.8 13 41.2l1.9 6.3h20.7l.7-3.3c.4-1.7 5.6-19.3 11.6-39s10.9-36.4 10.9-37.2c0-1.2-2-1.5-10.3-1.5h-10.4l-6.3 24.2c-3.5 13.4-6.7 25-7.1 25.8-.5 1-1 .2-1.8-2.5-.6-2.2-3.9-13.7-7.3-25.5l-6.3-21.5h-19l-7 24.7c-6.1 21.7-8.5 28.2-8.5 23.4 0-1.2-7.5-29.1-11.5-42.9l-1.6-5.7h-11c-6 0-10.9.3-10.9.6"/></g></svg>